M48
; DRILL file {KiCad (5.1.9-0-10_14)} date Tuesday, March 16, 2021 at 10:34:54 PM
; FORMAT={-:-/ absolute / inch / decimal}
; #@! TF.CreationDate,2021-03-16T22:34:54+01:00
; #@! TF.GenerationSoftware,Kicad,Pcbnew,(5.1.9-0-10_14)
FMAT,2
INCH
T1C0.0157
T2C0.0300
T3C0.0315
T4C0.0354
T5C0.0394
T6C0.0512
T7C0.0787
T8C0.0866
T9C0.0984
T10C0.1260
%
G90
G05
T1
X0.626Y-1.8583
X2.024Y-4.6531
X3.7457Y-2.4134
T2
X0.6394Y-1.1874
X0.6394Y-1.2874
X0.6394Y-1.3874
X0.6394Y-1.4874
X0.6394Y-1.5874
X0.6394Y-1.6874
X0.6394Y-1.7874
X1.2394Y-1.1874
X1.2394Y-1.2874
X1.2394Y-1.3874
X1.2394Y-1.4874
X1.2394Y-1.5874
X1.2394Y-1.6874
X1.2394Y-1.7874
X7.7156Y-3.888
X7.7156Y-4.9398
X8.2274Y-3.8888
X8.2274Y-4.9406
X8.7274Y-3.888
X8.7274Y-4.9398
X9.2392Y-3.8888
X9.2392Y-4.9406
X9.3809Y-3.888
X9.3809Y-4.9398
X9.8927Y-3.8888
X9.8927Y-4.9406
X9.9874Y-2.0043
X10.0344Y-3.888
X10.0344Y-4.9398
X10.0874Y-1.2043
X10.0874Y-2.0043
X10.1874Y-1.2043
X10.1874Y-2.0043
X10.2874Y-1.2043
X10.2874Y-2.0043
X10.3874Y-1.2043
X10.3874Y-2.0043
X10.4874Y-1.2043
X10.4874Y-2.0043
X10.5463Y-3.8888
X10.5463Y-4.9406
X10.5874Y-1.2043
X10.5874Y-2.0043
X10.6874Y-2.0043
X10.688Y-3.888
X10.688Y-4.9398
X10.7874Y-2.0043
X11.1998Y-3.8888
X11.1998Y-4.9406
T3
X1.424Y-3.7283
X1.524Y-3.7283
X1.624Y-3.7283
X1.724Y-3.7283
X1.824Y-3.7283
X1.924Y-3.7283
X2.024Y-3.7283
X2.1677Y-1.1445
X2.1677Y-1.8445
X2.2677Y-1.1445
X2.2677Y-1.8445
X2.3677Y-1.1445
X2.3677Y-1.8445
X2.4677Y-1.1445
X2.4677Y-1.8445
X2.5677Y-1.1445
X2.5677Y-1.8445
X2.6677Y-1.1445
X2.6677Y-1.8445
X2.7677Y-1.1445
X2.7677Y-1.8445
X2.8677Y-1.1445
X2.8677Y-1.8445
X2.9677Y-1.1445
X2.9677Y-1.8445
X3.0677Y-1.1445
X3.0677Y-1.8445
X3.1677Y-1.1445
X3.1677Y-1.8445
X3.2677Y-1.1445
X3.2677Y-1.8445
X3.5433Y-2.311
X3.5433Y-2.611
X3.6433Y-2.311
X3.6433Y-2.611
X3.7433Y-2.311
X3.7433Y-2.611
X3.8433Y-2.311
X3.8433Y-2.611
X3.8618Y-3.9449
X3.9433Y-2.311
X3.9433Y-2.611
X3.9618Y-3.9449
X4.0433Y-2.311
X4.0433Y-2.611
X4.0618Y-3.9449
X4.1433Y-2.311
X4.1433Y-2.611
X4.1618Y-3.9449
X4.2433Y-2.311
X4.2433Y-2.611
X4.3433Y-2.311
X4.3433Y-2.611
X4.4433Y-2.311
X4.4433Y-2.611
X4.5433Y-2.311
X4.5433Y-2.611
X4.6433Y-2.311
X4.6433Y-2.611
X4.7433Y-2.311
X4.7433Y-2.611
X4.8433Y-2.311
X4.8433Y-2.611
X4.8854Y-3.9449
X4.9854Y-3.9449
X5.0854Y-3.9449
X5.1854Y-3.9449
X5.1969Y-2.311
X5.1969Y-2.611
X5.2969Y-2.311
X5.2969Y-2.611
X5.3969Y-2.311
X5.3969Y-2.611
X5.4969Y-2.311
X5.4969Y-2.611
X5.5969Y-2.311
X5.5969Y-2.611
X5.6969Y-2.311
X5.6969Y-2.611
X5.7969Y-2.311
X5.7969Y-2.611
X5.8969Y-2.311
X5.8969Y-2.611
X5.9091Y-3.9449
X5.9969Y-2.311
X5.9969Y-2.611
X6.0091Y-3.9449
X6.0969Y-2.311
X6.0969Y-2.611
X6.1091Y-3.9449
X6.1969Y-2.311
X6.1969Y-2.611
X6.2091Y-3.9449
X6.2969Y-2.311
X6.2969Y-2.611
X6.3969Y-2.311
X6.3969Y-2.611
X6.4969Y-2.311
X6.4969Y-2.611
X6.8504Y-2.311
X6.8504Y-2.611
X6.9327Y-3.9449
X6.9504Y-2.311
X6.9504Y-2.611
X7.0327Y-3.9449
X7.0504Y-2.311
X7.0504Y-2.611
X7.1327Y-3.9449
X7.1504Y-2.311
X7.1504Y-2.611
X7.2327Y-3.9449
X7.2504Y-2.311
X7.2504Y-2.611
X7.3504Y-2.311
X7.3504Y-2.611
X7.4504Y-2.311
X7.4504Y-2.611
X7.5504Y-2.311
X7.5504Y-2.611
X7.6504Y-2.311
X7.6504Y-2.611
X7.7504Y-2.311
X7.7504Y-2.611
X7.7715Y-3.2343
X7.7715Y-5.5453
X7.8504Y-2.311
X7.8504Y-2.611
X7.9504Y-2.311
X7.9504Y-2.611
X8.0504Y-2.311
X8.0504Y-2.611
X8.1504Y-2.311
X8.1504Y-2.611
X8.1715Y-3.2343
X8.1715Y-5.5453
X8.5709Y-1.1748
X8.5709Y-1.5748
X8.7638Y-1.1748
X8.7638Y-1.5748
X8.7833Y-3.2343
X8.7833Y-5.5453
X8.7886Y-2.2498
X8.7886Y-2.8498
X8.7906Y-1.7441
X8.7906Y-2.0441
X8.8886Y-2.2498
X8.8886Y-2.8498
X8.8906Y-1.7441
X8.8906Y-2.0441
X8.9646Y-1.1748
X8.9646Y-1.5748
X8.9886Y-2.2498
X8.9886Y-2.8498
X8.9906Y-1.7441
X8.9906Y-2.0441
X9.0886Y-2.2498
X9.0886Y-2.8498
X9.0906Y-1.7441
X9.0906Y-2.0441
X9.1535Y-1.1772
X9.1535Y-1.5772
X9.1833Y-3.2343
X9.1833Y-5.5453
X9.1886Y-2.2498
X9.1886Y-2.8498
X9.2886Y-2.2498
X9.2886Y-2.8498
X9.2902Y-1.7343
X9.2902Y-2.0343
X9.3504Y-1.1772
X9.3504Y-1.5772
X9.3886Y-2.2498
X9.3886Y-2.8498
X9.3902Y-1.7343
X9.3902Y-2.0343
X9.4368Y-3.2343
X9.4368Y-5.5453
X9.4886Y-2.2498
X9.4886Y-2.8498
X9.4902Y-1.7343
X9.4902Y-2.0343
X9.5354Y-1.2244
X9.5354Y-1.5244
X9.5886Y-2.2498
X9.5886Y-2.8498
X9.6886Y-2.2498
X9.6886Y-2.8498
X9.7886Y-2.2498
X9.7886Y-2.8498
X9.8368Y-3.2343
X9.8368Y-5.5453
X9.8886Y-2.2498
X9.8886Y-2.8498
X9.9886Y-2.2498
X9.9886Y-2.8498
X10.0886Y-2.2498
X10.0886Y-2.8498
X10.0904Y-3.2343
X10.0904Y-5.5453
X10.1886Y-2.2498
X10.1886Y-2.8498
X10.2886Y-2.2498
X10.2886Y-2.8498
X10.3886Y-2.2498
X10.3886Y-2.8498
X10.4886Y-2.2498
X10.4886Y-2.8498
X10.4904Y-3.2343
X10.4904Y-5.5453
X10.5886Y-2.2498
X10.5886Y-2.8498
X10.6886Y-2.2498
X10.6886Y-2.8498
X10.7439Y-3.2343
X10.7439Y-5.5453
X10.7886Y-2.2498
X10.7886Y-2.8498
X10.8886Y-2.2498
X10.8886Y-2.8498
X10.9886Y-2.2498
X10.9886Y-2.8498
X11.0886Y-2.2498
X11.0886Y-2.8498
X11.1439Y-3.2343
X11.1439Y-5.5453
T4
X5.6811Y-1.6043
X5.7811Y-1.2043
X5.7811Y-1.7043
X5.9811Y-1.6043
X6.1811Y-1.2043
X6.1811Y-1.7043
X6.2811Y-1.6043
X6.5118Y-1.6043
X6.6118Y-1.2043
X6.6118Y-1.7043
X6.8118Y-1.6043
X7.0118Y-1.2043
X7.0118Y-1.7043
X7.1118Y-1.6043
X7.3425Y-1.6043
X7.4425Y-1.2043
X7.4425Y-1.7043
X7.6425Y-1.6043
X7.8425Y-1.2043
X7.8425Y-1.7043
X7.9425Y-1.6043
T5
X1.4341Y-2.6693
X1.4341Y-2.7677
X1.4341Y-2.8661
X2.0049Y-2.6693
X2.0049Y-2.8661
X3.7226Y-3.3327
X3.7226Y-3.4311
X3.7226Y-3.5295
X3.7226Y-5.25
X3.7226Y-5.3484
X3.7226Y-5.4469
X4.0866Y-1.2053
X4.185Y-1.2053
X4.2935Y-3.3327
X4.2935Y-3.5295
X4.2935Y-5.25
X4.2935Y-5.4469
X4.4331Y-1.2053
X4.5315Y-1.2053
X4.7463Y-3.3327
X4.7463Y-3.4311
X4.7463Y-3.5295
X4.7463Y-5.25
X4.7463Y-5.3484
X4.7463Y-5.4469
X4.7795Y-1.2053
X4.878Y-1.2053
X5.3171Y-3.3327
X5.3171Y-3.5295
X5.3171Y-5.25
X5.3171Y-5.4469
X5.7699Y-3.3327
X5.7699Y-3.4311
X5.7699Y-3.5295
X5.7699Y-5.25
X5.7699Y-5.3484
X5.7699Y-5.4469
X6.3407Y-3.3327
X6.3407Y-3.5295
X6.3407Y-5.25
X6.3407Y-5.4469
X6.7935Y-3.3327
X6.7935Y-3.4311
X6.7935Y-3.5295
X6.7935Y-5.25
X6.7935Y-5.3484
X6.7935Y-5.4469
X7.3644Y-3.3327
X7.3644Y-3.5295
X7.3644Y-5.25
X7.3644Y-5.4469
T6
X0.6752Y-3.6463
X0.6752Y-4.1384
X0.6752Y-4.7069
X0.6752Y-5.199
X0.872Y-3.6463
X0.872Y-4.1384
X0.872Y-4.7069
X0.872Y-5.199
X2.5669Y-3.6463
X2.5669Y-4.1384
X2.5669Y-4.7069
X2.5669Y-5.199
X2.7638Y-3.6463
X2.7638Y-4.1384
X2.7638Y-4.7069
X2.7638Y-5.199
X7.874Y-3.6463
X7.874Y-4.1384
X7.874Y-4.698
X7.874Y-5.1902
X8.0709Y-3.6463
X8.0709Y-4.1384
X8.0709Y-4.698
X8.0709Y-5.1902
X8.8858Y-3.6463
X8.8858Y-4.1384
X8.8858Y-4.698
X8.8858Y-5.1902
X9.0827Y-3.6463
X9.0827Y-4.1384
X9.0827Y-4.698
X9.0827Y-5.1902
X9.5394Y-3.6463
X9.5394Y-4.1384
X9.5394Y-4.698
X9.5394Y-5.1902
X9.7362Y-3.6463
X9.7362Y-4.1384
X9.7362Y-4.698
X9.7362Y-5.1902
X10.1929Y-3.6463
X10.1929Y-4.1384
X10.1929Y-4.698
X10.1929Y-5.1902
X10.3898Y-3.6463
X10.3898Y-4.1384
X10.3898Y-4.698
X10.3898Y-5.1902
X10.8465Y-3.6463
X10.8465Y-4.1384
X10.8465Y-4.698
X10.8465Y-5.1902
X11.0433Y-3.6463
X11.0433Y-4.1384
X11.0433Y-4.698
X11.0433Y-5.1902
T7
X1.2756Y-3.748
X1.2756Y-5.0953
X2.1724Y-3.748
X2.1724Y-5.0953
X3.5787Y-3.9646
X3.5787Y-4.8307
X4.4449Y-3.9646
X4.4449Y-4.8307
X4.6024Y-3.9646
X4.6024Y-4.8307
X5.4685Y-3.9646
X5.4685Y-4.8307
X5.626Y-3.9646
X5.626Y-4.8307
X6.4921Y-3.9646
X6.4921Y-4.8307
X6.6496Y-3.9646
X6.6496Y-4.8307
X7.5157Y-3.9646
X7.5157Y-4.8307
T8
X1.7293Y-2.5472
X1.7293Y-2.9882
X4.0179Y-3.2106
X4.0179Y-3.6516
X4.0179Y-5.128
X4.0179Y-5.5689
X5.0415Y-3.2106
X5.0415Y-3.6516
X5.0415Y-5.128
X5.0415Y-5.5689
X6.0652Y-3.2106
X6.0652Y-3.6516
X6.0652Y-5.128
X6.0652Y-5.5689
X7.0888Y-3.2106
X7.0888Y-3.6516
X7.0888Y-5.128
X7.0888Y-5.5689
T9
X9.789Y-1.2129
X9.7929Y-2.002
X11.0929Y-1.202
X11.0929Y-2.002
T10
X0.437Y-1.0039
X0.437Y-5.748
X3.2323Y-3.3465
X8.4685Y-3.3465
X11.3031Y-1.0039
X11.3031Y-5.748
T0
M30
