%TF.GenerationSoftware,KiCad,Pcbnew,(5.1.9-0-10_14)*%
%TF.CreationDate,2021-03-16T22:34:44+01:00*%
%TF.ProjectId,xva1-ui,78766131-2d75-4692-9e6b-696361645f70,rev?*%
%TF.SameCoordinates,Original*%
%TF.FileFunction,Soldermask,Top*%
%TF.FilePolarity,Negative*%
%FSLAX46Y46*%
G04 Gerber Fmt 4.6, Leading zero omitted, Abs format (unit mm)*
G04 Created by KiCad (PCBNEW (5.1.9-0-10_14)) date 2021-03-16 22:34:44*
%MOMM*%
%LPD*%
G01*
G04 APERTURE LIST*
%ADD10C,0.300000*%
%ADD11O,1.600000X1.600000*%
%ADD12C,1.600000*%
%ADD13C,6.400000*%
%ADD14C,3.600000*%
%ADD15C,1.524000*%
%ADD16R,1.524000X1.524000*%
%ADD17O,1.850000X3.048000*%
%ADD18R,2.000000X2.000000*%
%ADD19C,2.000000*%
%ADD20C,2.800000*%
%ADD21C,1.800000*%
%ADD22C,2.400000*%
%ADD23R,1.600000X1.600000*%
%ADD24C,3.000000*%
%ADD25O,1.700000X2.000000*%
%ADD26C,3.048000*%
G04 APERTURE END LIST*
D10*
X15029642Y-89850000D02*
X14967142Y-89778571D01*
X14851071Y-89564285D01*
X14797500Y-89421428D01*
X14752857Y-89207142D01*
X14726071Y-88850000D01*
X14761785Y-88564285D01*
X14877857Y-88207142D01*
X14976071Y-87992857D01*
X15065357Y-87850000D01*
X15235000Y-87635714D01*
X15315357Y-87564285D01*
X15610000Y-89207142D02*
X15815357Y-89278571D01*
X16172500Y-89278571D01*
X16324285Y-89207142D01*
X16404642Y-89135714D01*
X16493928Y-88992857D01*
X16511785Y-88850000D01*
X16458214Y-88707142D01*
X16395714Y-88635714D01*
X16261785Y-88564285D01*
X15985000Y-88492857D01*
X15851071Y-88421428D01*
X15788571Y-88350000D01*
X15735000Y-88207142D01*
X15752857Y-88064285D01*
X15842142Y-87921428D01*
X15922500Y-87850000D01*
X16074285Y-87778571D01*
X16431428Y-87778571D01*
X16636785Y-87850000D01*
X17476071Y-88564285D02*
X17386785Y-89278571D01*
X17074285Y-87778571D02*
X17476071Y-88564285D01*
X18074285Y-87778571D01*
X18324285Y-89207142D02*
X18529642Y-89278571D01*
X18886785Y-89278571D01*
X19038571Y-89207142D01*
X19118928Y-89135714D01*
X19208214Y-88992857D01*
X19226071Y-88850000D01*
X19172500Y-88707142D01*
X19110000Y-88635714D01*
X18976071Y-88564285D01*
X18699285Y-88492857D01*
X18565357Y-88421428D01*
X18502857Y-88350000D01*
X18449285Y-88207142D01*
X18467142Y-88064285D01*
X18556428Y-87921428D01*
X18636785Y-87850000D01*
X18788571Y-87778571D01*
X19145714Y-87778571D01*
X19351071Y-87850000D01*
X19788571Y-87778571D02*
X20645714Y-87778571D01*
X20029642Y-89278571D02*
X20217142Y-87778571D01*
X21056428Y-88492857D02*
X21556428Y-88492857D01*
X21672500Y-89278571D02*
X20958214Y-89278571D01*
X21145714Y-87778571D01*
X21860000Y-87778571D01*
X22315357Y-89278571D02*
X22502857Y-87778571D01*
X22868928Y-88850000D01*
X23502857Y-87778571D01*
X23315357Y-89278571D01*
X23815357Y-89850000D02*
X23895714Y-89778571D01*
X24065357Y-89564285D01*
X24154642Y-89421428D01*
X24252857Y-89207142D01*
X24368928Y-88850000D01*
X24404642Y-88564285D01*
X24377857Y-88207142D01*
X24333214Y-87992857D01*
X24279642Y-87850000D01*
X24163571Y-87635714D01*
X24101071Y-87564285D01*
X276117857Y-108870000D02*
X276832142Y-108870000D01*
X275975000Y-109298571D02*
X276475000Y-107798571D01*
X276975000Y-109298571D01*
X278332142Y-109298571D02*
X277832142Y-108584285D01*
X277475000Y-109298571D02*
X277475000Y-107798571D01*
X278046428Y-107798571D01*
X278189285Y-107870000D01*
X278260714Y-107941428D01*
X278332142Y-108084285D01*
X278332142Y-108298571D01*
X278260714Y-108441428D01*
X278189285Y-108512857D01*
X278046428Y-108584285D01*
X277475000Y-108584285D01*
X278975000Y-109298571D02*
X278975000Y-107798571D01*
X279546428Y-107798571D01*
X279689285Y-107870000D01*
X279760714Y-107941428D01*
X279832142Y-108084285D01*
X279832142Y-108298571D01*
X279760714Y-108441428D01*
X279689285Y-108512857D01*
X279546428Y-108584285D01*
X278975000Y-108584285D01*
X225103571Y-107798571D02*
X225603571Y-109298571D01*
X226103571Y-107798571D01*
X226889285Y-107798571D02*
X227175000Y-107798571D01*
X227317857Y-107870000D01*
X227460714Y-108012857D01*
X227532142Y-108298571D01*
X227532142Y-108798571D01*
X227460714Y-109084285D01*
X227317857Y-109227142D01*
X227175000Y-109298571D01*
X226889285Y-109298571D01*
X226746428Y-109227142D01*
X226603571Y-109084285D01*
X226532142Y-108798571D01*
X226532142Y-108298571D01*
X226603571Y-108012857D01*
X226746428Y-107870000D01*
X226889285Y-107798571D01*
X228175000Y-109298571D02*
X228175000Y-107798571D01*
X229746428Y-109155714D02*
X229675000Y-109227142D01*
X229460714Y-109298571D01*
X229317857Y-109298571D01*
X229103571Y-109227142D01*
X228960714Y-109084285D01*
X228889285Y-108941428D01*
X228817857Y-108655714D01*
X228817857Y-108441428D01*
X228889285Y-108155714D01*
X228960714Y-108012857D01*
X229103571Y-107870000D01*
X229317857Y-107798571D01*
X229460714Y-107798571D01*
X229675000Y-107870000D01*
X229746428Y-107941428D01*
X230389285Y-108512857D02*
X230889285Y-108512857D01*
X231103571Y-109298571D02*
X230389285Y-109298571D01*
X230389285Y-107798571D01*
X231103571Y-107798571D01*
X241775000Y-109298571D02*
X241775000Y-107798571D01*
X242275000Y-108870000D01*
X242775000Y-107798571D01*
X242775000Y-109298571D01*
X243489285Y-109298571D02*
X243489285Y-107798571D01*
X244060714Y-107798571D02*
X245060714Y-109298571D01*
X245060714Y-107798571D02*
X244060714Y-109298571D01*
X245632142Y-108512857D02*
X246132142Y-108512857D01*
X246346428Y-109298571D02*
X245632142Y-109298571D01*
X245632142Y-107798571D01*
X246346428Y-107798571D01*
X247846428Y-109298571D02*
X247346428Y-108584285D01*
X246989285Y-109298571D02*
X246989285Y-107798571D01*
X247560714Y-107798571D01*
X247703571Y-107870000D01*
X247775000Y-107941428D01*
X247846428Y-108084285D01*
X247846428Y-108298571D01*
X247775000Y-108441428D01*
X247703571Y-108512857D01*
X247560714Y-108584285D01*
X246989285Y-108584285D01*
X270510714Y-135392857D02*
X270010714Y-135392857D01*
X270010714Y-136178571D02*
X270010714Y-134678571D01*
X270725000Y-134678571D01*
X271296428Y-136178571D02*
X271296428Y-134678571D01*
X272725000Y-136178571D02*
X272010714Y-136178571D01*
X272010714Y-134678571D01*
X273010714Y-134678571D02*
X273867857Y-134678571D01*
X273439285Y-136178571D02*
X273439285Y-134678571D01*
X274367857Y-135392857D02*
X274867857Y-135392857D01*
X275082142Y-136178571D02*
X274367857Y-136178571D01*
X274367857Y-134678571D01*
X275082142Y-134678571D01*
X276582142Y-136178571D02*
X276082142Y-135464285D01*
X275725000Y-136178571D02*
X275725000Y-134678571D01*
X276296428Y-134678571D01*
X276439285Y-134750000D01*
X276510714Y-134821428D01*
X276582142Y-134964285D01*
X276582142Y-135178571D01*
X276510714Y-135321428D01*
X276439285Y-135392857D01*
X276296428Y-135464285D01*
X275725000Y-135464285D01*
X279439285Y-134607142D02*
X278153571Y-136535714D01*
X281010714Y-135750000D02*
X281725000Y-135750000D01*
X280867857Y-136178571D02*
X281367857Y-134678571D01*
X281867857Y-136178571D01*
X283082142Y-136178571D02*
X282367857Y-136178571D01*
X282367857Y-134678571D01*
X284367857Y-134750000D02*
X284225000Y-134678571D01*
X284010714Y-134678571D01*
X283796428Y-134750000D01*
X283653571Y-134892857D01*
X283582142Y-135035714D01*
X283510714Y-135321428D01*
X283510714Y-135535714D01*
X283582142Y-135821428D01*
X283653571Y-135964285D01*
X283796428Y-136107142D01*
X284010714Y-136178571D01*
X284153571Y-136178571D01*
X284367857Y-136107142D01*
X284439285Y-136035714D01*
X284439285Y-135535714D01*
X284153571Y-135535714D01*
X285367857Y-134678571D02*
X285653571Y-134678571D01*
X285796428Y-134750000D01*
X285939285Y-134892857D01*
X286010714Y-135178571D01*
X286010714Y-135678571D01*
X285939285Y-135964285D01*
X285796428Y-136107142D01*
X285653571Y-136178571D01*
X285367857Y-136178571D01*
X285225000Y-136107142D01*
X285082142Y-135964285D01*
X285010714Y-135678571D01*
X285010714Y-135178571D01*
X285082142Y-134892857D01*
X285225000Y-134750000D01*
X285367857Y-134678571D01*
X254861785Y-90350000D02*
X254799285Y-90278571D01*
X254683214Y-90064285D01*
X254629642Y-89921428D01*
X254585000Y-89707142D01*
X254558214Y-89350000D01*
X254593928Y-89064285D01*
X254710000Y-88707142D01*
X254808214Y-88492857D01*
X254897500Y-88350000D01*
X255067142Y-88135714D01*
X255147500Y-88064285D01*
X255504642Y-89778571D02*
X255692142Y-88278571D01*
X256263571Y-88278571D01*
X256397500Y-88350000D01*
X256460000Y-88421428D01*
X256513571Y-88564285D01*
X256486785Y-88778571D01*
X256397500Y-88921428D01*
X256317142Y-88992857D01*
X256165357Y-89064285D01*
X255593928Y-89064285D01*
X257102857Y-88992857D02*
X257602857Y-88992857D01*
X257718928Y-89778571D02*
X257004642Y-89778571D01*
X257192142Y-88278571D01*
X257906428Y-88278571D01*
X259218928Y-89778571D02*
X258808214Y-89064285D01*
X258361785Y-89778571D02*
X258549285Y-88278571D01*
X259120714Y-88278571D01*
X259254642Y-88350000D01*
X259317142Y-88421428D01*
X259370714Y-88564285D01*
X259343928Y-88778571D01*
X259254642Y-88921428D01*
X259174285Y-88992857D01*
X259022500Y-89064285D01*
X258451071Y-89064285D01*
X260460000Y-88992857D02*
X259960000Y-88992857D01*
X259861785Y-89778571D02*
X260049285Y-88278571D01*
X260763571Y-88278571D01*
X263165357Y-89635714D02*
X263085000Y-89707142D01*
X262861785Y-89778571D01*
X262718928Y-89778571D01*
X262513571Y-89707142D01*
X262388571Y-89564285D01*
X262335000Y-89421428D01*
X262299285Y-89135714D01*
X262326071Y-88921428D01*
X262433214Y-88635714D01*
X262522500Y-88492857D01*
X262683214Y-88350000D01*
X262906428Y-88278571D01*
X263049285Y-88278571D01*
X263254642Y-88350000D01*
X263317142Y-88421428D01*
X263763571Y-88278571D02*
X264620714Y-88278571D01*
X264004642Y-89778571D02*
X264192142Y-88278571D01*
X265790357Y-89778571D02*
X265379642Y-89064285D01*
X264933214Y-89778571D02*
X265120714Y-88278571D01*
X265692142Y-88278571D01*
X265826071Y-88350000D01*
X265888571Y-88421428D01*
X265942142Y-88564285D01*
X265915357Y-88778571D01*
X265826071Y-88921428D01*
X265745714Y-88992857D01*
X265593928Y-89064285D01*
X265022500Y-89064285D01*
X267147500Y-89778571D02*
X266433214Y-89778571D01*
X266620714Y-88278571D01*
X267433214Y-90350000D02*
X267513571Y-90278571D01*
X267683214Y-90064285D01*
X267772500Y-89921428D01*
X267870714Y-89707142D01*
X267986785Y-89350000D01*
X268022500Y-89064285D01*
X267995714Y-88707142D01*
X267951071Y-88492857D01*
X267897500Y-88350000D01*
X267781428Y-88135714D01*
X267718928Y-88064285D01*
X199653571Y-136178571D02*
X199653571Y-134678571D01*
X200010714Y-134678571D01*
X200225000Y-134750000D01*
X200367857Y-134892857D01*
X200439285Y-135035714D01*
X200510714Y-135321428D01*
X200510714Y-135535714D01*
X200439285Y-135821428D01*
X200367857Y-135964285D01*
X200225000Y-136107142D01*
X200010714Y-136178571D01*
X199653571Y-136178571D01*
X201439285Y-134678571D02*
X201725000Y-134678571D01*
X201867857Y-134750000D01*
X202010714Y-134892857D01*
X202082142Y-135178571D01*
X202082142Y-135678571D01*
X202010714Y-135964285D01*
X201867857Y-136107142D01*
X201725000Y-136178571D01*
X201439285Y-136178571D01*
X201296428Y-136107142D01*
X201153571Y-135964285D01*
X201082142Y-135678571D01*
X201082142Y-135178571D01*
X201153571Y-134892857D01*
X201296428Y-134750000D01*
X201439285Y-134678571D01*
X202582142Y-134678571D02*
X202939285Y-136178571D01*
X203225000Y-135107142D01*
X203510714Y-136178571D01*
X203867857Y-134678571D01*
X204439285Y-136178571D02*
X204439285Y-134678571D01*
X205296428Y-136178571D01*
X205296428Y-134678571D01*
X201296428Y-107798571D02*
X201296428Y-109012857D01*
X201367857Y-109155714D01*
X201439285Y-109227142D01*
X201582142Y-109298571D01*
X201867857Y-109298571D01*
X202010714Y-109227142D01*
X202082142Y-109155714D01*
X202153571Y-109012857D01*
X202153571Y-107798571D01*
X202867857Y-109298571D02*
X202867857Y-107798571D01*
X203439285Y-107798571D01*
X203582142Y-107870000D01*
X203653571Y-107941428D01*
X203725000Y-108084285D01*
X203725000Y-108298571D01*
X203653571Y-108441428D01*
X203582142Y-108512857D01*
X203439285Y-108584285D01*
X202867857Y-108584285D01*
X257053571Y-108512857D02*
X257553571Y-108512857D01*
X257767857Y-109298571D02*
X257053571Y-109298571D01*
X257053571Y-107798571D01*
X257767857Y-107798571D01*
X258910714Y-108512857D02*
X258410714Y-108512857D01*
X258410714Y-109298571D02*
X258410714Y-107798571D01*
X259125000Y-107798571D01*
X260196428Y-108512857D02*
X259696428Y-108512857D01*
X259696428Y-109298571D02*
X259696428Y-107798571D01*
X260410714Y-107798571D01*
X260982142Y-108512857D02*
X261482142Y-108512857D01*
X261696428Y-109298571D02*
X260982142Y-109298571D01*
X260982142Y-107798571D01*
X261696428Y-107798571D01*
X263196428Y-109155714D02*
X263125000Y-109227142D01*
X262910714Y-109298571D01*
X262767857Y-109298571D01*
X262553571Y-109227142D01*
X262410714Y-109084285D01*
X262339285Y-108941428D01*
X262267857Y-108655714D01*
X262267857Y-108441428D01*
X262339285Y-108155714D01*
X262410714Y-108012857D01*
X262553571Y-107870000D01*
X262767857Y-107798571D01*
X262910714Y-107798571D01*
X263125000Y-107870000D01*
X263196428Y-107941428D01*
X263625000Y-107798571D02*
X264482142Y-107798571D01*
X264053571Y-109298571D02*
X264053571Y-107798571D01*
X264910714Y-109227142D02*
X265125000Y-109298571D01*
X265482142Y-109298571D01*
X265625000Y-109227142D01*
X265696428Y-109155714D01*
X265767857Y-109012857D01*
X265767857Y-108870000D01*
X265696428Y-108727142D01*
X265625000Y-108655714D01*
X265482142Y-108584285D01*
X265196428Y-108512857D01*
X265053571Y-108441428D01*
X264982142Y-108370000D01*
X264910714Y-108227142D01*
X264910714Y-108084285D01*
X264982142Y-107941428D01*
X265053571Y-107870000D01*
X265196428Y-107798571D01*
X265553571Y-107798571D01*
X265767857Y-107870000D01*
X224233214Y-90350000D02*
X224170714Y-90278571D01*
X224054642Y-90064285D01*
X224001071Y-89921428D01*
X223956428Y-89707142D01*
X223929642Y-89350000D01*
X223965357Y-89064285D01*
X224081428Y-88707142D01*
X224179642Y-88492857D01*
X224268928Y-88350000D01*
X224438571Y-88135714D01*
X224518928Y-88064285D01*
X224876071Y-89778571D02*
X225063571Y-88278571D01*
X225635000Y-88278571D01*
X225768928Y-88350000D01*
X225831428Y-88421428D01*
X225885000Y-88564285D01*
X225858214Y-88778571D01*
X225768928Y-88921428D01*
X225688571Y-88992857D01*
X225536785Y-89064285D01*
X224965357Y-89064285D01*
X226358214Y-89350000D02*
X227072500Y-89350000D01*
X226161785Y-89778571D02*
X226849285Y-88278571D01*
X227161785Y-89778571D01*
X227635000Y-88278571D02*
X228492142Y-88278571D01*
X227876071Y-89778571D02*
X228063571Y-88278571D01*
X229679642Y-89635714D02*
X229599285Y-89707142D01*
X229376071Y-89778571D01*
X229233214Y-89778571D01*
X229027857Y-89707142D01*
X228902857Y-89564285D01*
X228849285Y-89421428D01*
X228813571Y-89135714D01*
X228840357Y-88921428D01*
X228947500Y-88635714D01*
X229036785Y-88492857D01*
X229197500Y-88350000D01*
X229420714Y-88278571D01*
X229563571Y-88278571D01*
X229768928Y-88350000D01*
X229831428Y-88421428D01*
X230304642Y-89778571D02*
X230492142Y-88278571D01*
X230402857Y-88992857D02*
X231260000Y-88992857D01*
X231161785Y-89778571D02*
X231349285Y-88278571D01*
X231661785Y-90350000D02*
X231742142Y-90278571D01*
X231911785Y-90064285D01*
X232001071Y-89921428D01*
X232099285Y-89707142D01*
X232215357Y-89350000D01*
X232251071Y-89064285D01*
X232224285Y-88707142D01*
X232179642Y-88492857D01*
X232126071Y-88350000D01*
X232010000Y-88135714D01*
X231947500Y-88064285D01*
X239118928Y-90350000D02*
X239056428Y-90278571D01*
X238940357Y-90064285D01*
X238886785Y-89921428D01*
X238842142Y-89707142D01*
X238815357Y-89350000D01*
X238851071Y-89064285D01*
X238967142Y-88707142D01*
X239065357Y-88492857D01*
X239154642Y-88350000D01*
X239324285Y-88135714D01*
X239404642Y-88064285D01*
X239860000Y-88992857D02*
X240360000Y-88992857D01*
X240476071Y-89778571D02*
X239761785Y-89778571D01*
X239949285Y-88278571D01*
X240663571Y-88278571D01*
X241163571Y-88278571D02*
X241976071Y-89778571D01*
X242163571Y-88278571D02*
X240976071Y-89778571D01*
X242520714Y-88278571D02*
X243377857Y-88278571D01*
X242761785Y-89778571D02*
X242949285Y-88278571D01*
X245708214Y-89635714D02*
X245627857Y-89707142D01*
X245404642Y-89778571D01*
X245261785Y-89778571D01*
X245056428Y-89707142D01*
X244931428Y-89564285D01*
X244877857Y-89421428D01*
X244842142Y-89135714D01*
X244868928Y-88921428D01*
X244976071Y-88635714D01*
X245065357Y-88492857D01*
X245226071Y-88350000D01*
X245449285Y-88278571D01*
X245592142Y-88278571D01*
X245797500Y-88350000D01*
X245860000Y-88421428D01*
X246306428Y-88278571D02*
X247163571Y-88278571D01*
X246547500Y-89778571D02*
X246735000Y-88278571D01*
X248333214Y-89778571D02*
X247922500Y-89064285D01*
X247476071Y-89778571D02*
X247663571Y-88278571D01*
X248235000Y-88278571D01*
X248368928Y-88350000D01*
X248431428Y-88421428D01*
X248485000Y-88564285D01*
X248458214Y-88778571D01*
X248368928Y-88921428D01*
X248288571Y-88992857D01*
X248136785Y-89064285D01*
X247565357Y-89064285D01*
X249690357Y-89778571D02*
X248976071Y-89778571D01*
X249163571Y-88278571D01*
X249976071Y-90350000D02*
X250056428Y-90278571D01*
X250226071Y-90064285D01*
X250315357Y-89921428D01*
X250413571Y-89707142D01*
X250529642Y-89350000D01*
X250565357Y-89064285D01*
X250538571Y-88707142D01*
X250493928Y-88492857D01*
X250440357Y-88350000D01*
X250324285Y-88135714D01*
X250261785Y-88064285D01*
X223103571Y-134678571D02*
X223389285Y-134678571D01*
X223532142Y-134750000D01*
X223675000Y-134892857D01*
X223746428Y-135178571D01*
X223746428Y-135678571D01*
X223675000Y-135964285D01*
X223532142Y-136107142D01*
X223389285Y-136178571D01*
X223103571Y-136178571D01*
X222960714Y-136107142D01*
X222817857Y-135964285D01*
X222746428Y-135678571D01*
X222746428Y-135178571D01*
X222817857Y-134892857D01*
X222960714Y-134750000D01*
X223103571Y-134678571D01*
X224317857Y-136107142D02*
X224532142Y-136178571D01*
X224889285Y-136178571D01*
X225032142Y-136107142D01*
X225103571Y-136035714D01*
X225175000Y-135892857D01*
X225175000Y-135750000D01*
X225103571Y-135607142D01*
X225032142Y-135535714D01*
X224889285Y-135464285D01*
X224603571Y-135392857D01*
X224460714Y-135321428D01*
X224389285Y-135250000D01*
X224317857Y-135107142D01*
X224317857Y-134964285D01*
X224389285Y-134821428D01*
X224460714Y-134750000D01*
X224603571Y-134678571D01*
X224960714Y-134678571D01*
X225175000Y-134750000D01*
X226675000Y-136035714D02*
X226603571Y-136107142D01*
X226389285Y-136178571D01*
X226246428Y-136178571D01*
X226032142Y-136107142D01*
X225889285Y-135964285D01*
X225817857Y-135821428D01*
X225746428Y-135535714D01*
X225746428Y-135321428D01*
X225817857Y-135035714D01*
X225889285Y-134892857D01*
X226032142Y-134750000D01*
X226246428Y-134678571D01*
X226389285Y-134678571D01*
X226603571Y-134750000D01*
X226675000Y-134821428D01*
X229532142Y-134607142D02*
X228246428Y-136535714D01*
X231460714Y-134678571D02*
X231746428Y-134678571D01*
X231889285Y-134750000D01*
X232032142Y-134892857D01*
X232103571Y-135178571D01*
X232103571Y-135678571D01*
X232032142Y-135964285D01*
X231889285Y-136107142D01*
X231746428Y-136178571D01*
X231460714Y-136178571D01*
X231317857Y-136107142D01*
X231175000Y-135964285D01*
X231103571Y-135678571D01*
X231103571Y-135178571D01*
X231175000Y-134892857D01*
X231317857Y-134750000D01*
X231460714Y-134678571D01*
X232746428Y-136178571D02*
X232746428Y-134678571D01*
X233317857Y-134678571D01*
X233460714Y-134750000D01*
X233532142Y-134821428D01*
X233603571Y-134964285D01*
X233603571Y-135178571D01*
X233532142Y-135321428D01*
X233460714Y-135392857D01*
X233317857Y-135464285D01*
X232746428Y-135464285D01*
X199653571Y-136178571D02*
X199653571Y-134678571D01*
X200010714Y-134678571D01*
X200225000Y-134750000D01*
X200367857Y-134892857D01*
X200439285Y-135035714D01*
X200510714Y-135321428D01*
X200510714Y-135535714D01*
X200439285Y-135821428D01*
X200367857Y-135964285D01*
X200225000Y-136107142D01*
X200010714Y-136178571D01*
X199653571Y-136178571D01*
X201439285Y-134678571D02*
X201725000Y-134678571D01*
X201867857Y-134750000D01*
X202010714Y-134892857D01*
X202082142Y-135178571D01*
X202082142Y-135678571D01*
X202010714Y-135964285D01*
X201867857Y-136107142D01*
X201725000Y-136178571D01*
X201439285Y-136178571D01*
X201296428Y-136107142D01*
X201153571Y-135964285D01*
X201082142Y-135678571D01*
X201082142Y-135178571D01*
X201153571Y-134892857D01*
X201296428Y-134750000D01*
X201439285Y-134678571D01*
X202582142Y-134678571D02*
X202939285Y-136178571D01*
X203225000Y-135107142D01*
X203510714Y-136178571D01*
X203867857Y-134678571D01*
X204439285Y-136178571D02*
X204439285Y-134678571D01*
X205296428Y-136178571D01*
X205296428Y-134678571D01*
X201296428Y-107798571D02*
X201296428Y-109012857D01*
X201367857Y-109155714D01*
X201439285Y-109227142D01*
X201582142Y-109298571D01*
X201867857Y-109298571D01*
X202010714Y-109227142D01*
X202082142Y-109155714D01*
X202153571Y-109012857D01*
X202153571Y-107798571D01*
X202867857Y-109298571D02*
X202867857Y-107798571D01*
X203439285Y-107798571D01*
X203582142Y-107870000D01*
X203653571Y-107941428D01*
X203725000Y-108084285D01*
X203725000Y-108298571D01*
X203653571Y-108441428D01*
X203582142Y-108512857D01*
X203439285Y-108584285D01*
X202867857Y-108584285D01*
X260410714Y-136178571D02*
X259696428Y-136178571D01*
X259696428Y-134678571D01*
X261410714Y-135392857D02*
X260910714Y-135392857D01*
X260910714Y-136178571D02*
X260910714Y-134678571D01*
X261625000Y-134678571D01*
X262482142Y-134678571D02*
X262767857Y-134678571D01*
X262910714Y-134750000D01*
X263053571Y-134892857D01*
X263125000Y-135178571D01*
X263125000Y-135678571D01*
X263053571Y-135964285D01*
X262910714Y-136107142D01*
X262767857Y-136178571D01*
X262482142Y-136178571D01*
X262339285Y-136107142D01*
X262196428Y-135964285D01*
X262125000Y-135678571D01*
X262125000Y-135178571D01*
X262196428Y-134892857D01*
X262339285Y-134750000D01*
X262482142Y-134678571D01*
X243025000Y-135392857D02*
X243525000Y-135392857D01*
X243739285Y-136178571D02*
X243025000Y-136178571D01*
X243025000Y-134678571D01*
X243739285Y-134678571D01*
X244382142Y-136178571D02*
X244382142Y-134678571D01*
X245239285Y-136178571D01*
X245239285Y-134678571D01*
X245739285Y-134678571D02*
X246239285Y-136178571D01*
X246739285Y-134678571D01*
X275354642Y-90350000D02*
X275292142Y-90278571D01*
X275176071Y-90064285D01*
X275122500Y-89921428D01*
X275077857Y-89707142D01*
X275051071Y-89350000D01*
X275086785Y-89064285D01*
X275202857Y-88707142D01*
X275301071Y-88492857D01*
X275390357Y-88350000D01*
X275560000Y-88135714D01*
X275640357Y-88064285D01*
X275935000Y-89707142D02*
X276140357Y-89778571D01*
X276497500Y-89778571D01*
X276649285Y-89707142D01*
X276729642Y-89635714D01*
X276818928Y-89492857D01*
X276836785Y-89350000D01*
X276783214Y-89207142D01*
X276720714Y-89135714D01*
X276586785Y-89064285D01*
X276310000Y-88992857D01*
X276176071Y-88921428D01*
X276113571Y-88850000D01*
X276060000Y-88707142D01*
X276077857Y-88564285D01*
X276167142Y-88421428D01*
X276247500Y-88350000D01*
X276399285Y-88278571D01*
X276756428Y-88278571D01*
X276961785Y-88350000D01*
X277524285Y-88992857D02*
X278024285Y-88992857D01*
X278140357Y-89778571D02*
X277426071Y-89778571D01*
X277613571Y-88278571D01*
X278327857Y-88278571D01*
X279765357Y-89921428D02*
X279631428Y-89850000D01*
X279506428Y-89707142D01*
X279318928Y-89492857D01*
X279185000Y-89421428D01*
X279042142Y-89421428D01*
X279068928Y-89778571D02*
X278935000Y-89707142D01*
X278810000Y-89564285D01*
X278774285Y-89278571D01*
X278836785Y-88778571D01*
X278943928Y-88492857D01*
X279104642Y-88350000D01*
X279256428Y-88278571D01*
X279542142Y-88278571D01*
X279676071Y-88350000D01*
X279801071Y-88492857D01*
X279836785Y-88778571D01*
X279774285Y-89278571D01*
X279667142Y-89564285D01*
X279506428Y-89707142D01*
X279354642Y-89778571D01*
X279068928Y-89778571D01*
X280140357Y-90350000D02*
X280220714Y-90278571D01*
X280390357Y-90064285D01*
X280479642Y-89921428D01*
X280577857Y-89707142D01*
X280693928Y-89350000D01*
X280729642Y-89064285D01*
X280702857Y-88707142D01*
X280658214Y-88492857D01*
X280604642Y-88350000D01*
X280488571Y-88135714D01*
X280426071Y-88064285D01*
X63043928Y-89850000D02*
X62981428Y-89778571D01*
X62865357Y-89564285D01*
X62811785Y-89421428D01*
X62767142Y-89207142D01*
X62740357Y-88850000D01*
X62776071Y-88564285D01*
X62892142Y-88207142D01*
X62990357Y-87992857D01*
X63079642Y-87850000D01*
X63249285Y-87635714D01*
X63329642Y-87564285D01*
X64543928Y-89278571D02*
X64133214Y-88564285D01*
X63686785Y-89278571D02*
X63874285Y-87778571D01*
X64445714Y-87778571D01*
X64579642Y-87850000D01*
X64642142Y-87921428D01*
X64695714Y-88064285D01*
X64668928Y-88278571D01*
X64579642Y-88421428D01*
X64499285Y-88492857D01*
X64347500Y-88564285D01*
X63776071Y-88564285D01*
X65285000Y-88492857D02*
X65785000Y-88492857D01*
X65901071Y-89278571D02*
X65186785Y-89278571D01*
X65374285Y-87778571D01*
X66088571Y-87778571D01*
X67258214Y-89278571D02*
X66543928Y-89278571D01*
X66731428Y-87778571D01*
X68231428Y-87778571D02*
X68517142Y-87778571D01*
X68651071Y-87850000D01*
X68776071Y-87992857D01*
X68811785Y-88278571D01*
X68749285Y-88778571D01*
X68642142Y-89064285D01*
X68481428Y-89207142D01*
X68329642Y-89278571D01*
X68043928Y-89278571D01*
X67910000Y-89207142D01*
X67785000Y-89064285D01*
X67749285Y-88778571D01*
X67811785Y-88278571D01*
X67918928Y-87992857D01*
X68079642Y-87850000D01*
X68231428Y-87778571D01*
X69311785Y-88850000D02*
X70026071Y-88850000D01*
X69115357Y-89278571D02*
X69802857Y-87778571D01*
X70115357Y-89278571D01*
X70615357Y-89278571D02*
X70802857Y-87778571D01*
X71160000Y-87778571D01*
X71365357Y-87850000D01*
X71490357Y-87992857D01*
X71543928Y-88135714D01*
X71579642Y-88421428D01*
X71552857Y-88635714D01*
X71445714Y-88921428D01*
X71356428Y-89064285D01*
X71195714Y-89207142D01*
X70972500Y-89278571D01*
X70615357Y-89278571D01*
X71901071Y-89850000D02*
X71981428Y-89778571D01*
X72151071Y-89564285D01*
X72240357Y-89421428D01*
X72338571Y-89207142D01*
X72454642Y-88850000D01*
X72490357Y-88564285D01*
X72463571Y-88207142D01*
X72418928Y-87992857D01*
X72365357Y-87850000D01*
X72249285Y-87635714D01*
X72186785Y-87564285D01*
X16900000Y-109298571D02*
X16900000Y-107798571D01*
X17400000Y-108870000D01*
X17900000Y-107798571D01*
X17900000Y-109298571D01*
X18614285Y-108512857D02*
X19114285Y-108512857D01*
X19328571Y-109298571D02*
X18614285Y-109298571D01*
X18614285Y-107798571D01*
X19328571Y-107798571D01*
X19971428Y-109298571D02*
X19971428Y-107798571D01*
X20828571Y-109298571D01*
X20828571Y-107798571D01*
X21542857Y-107798571D02*
X21542857Y-109012857D01*
X21614285Y-109155714D01*
X21685714Y-109227142D01*
X21828571Y-109298571D01*
X22114285Y-109298571D01*
X22257142Y-109227142D01*
X22328571Y-109155714D01*
X22400000Y-109012857D01*
X22400000Y-107798571D01*
X65307142Y-109227142D02*
X65521428Y-109298571D01*
X65878571Y-109298571D01*
X66021428Y-109227142D01*
X66092857Y-109155714D01*
X66164285Y-109012857D01*
X66164285Y-108870000D01*
X66092857Y-108727142D01*
X66021428Y-108655714D01*
X65878571Y-108584285D01*
X65592857Y-108512857D01*
X65450000Y-108441428D01*
X65378571Y-108370000D01*
X65307142Y-108227142D01*
X65307142Y-108084285D01*
X65378571Y-107941428D01*
X65450000Y-107870000D01*
X65592857Y-107798571D01*
X65950000Y-107798571D01*
X66164285Y-107870000D01*
X66735714Y-108870000D02*
X67450000Y-108870000D01*
X66592857Y-109298571D02*
X67092857Y-107798571D01*
X67592857Y-109298571D01*
X67878571Y-107798571D02*
X68378571Y-109298571D01*
X68878571Y-107798571D01*
X69378571Y-108512857D02*
X69878571Y-108512857D01*
X70092857Y-109298571D02*
X69378571Y-109298571D01*
X69378571Y-107798571D01*
X70092857Y-107798571D01*
X64914285Y-136107142D02*
X65128571Y-136178571D01*
X65485714Y-136178571D01*
X65628571Y-136107142D01*
X65700000Y-136035714D01*
X65771428Y-135892857D01*
X65771428Y-135750000D01*
X65700000Y-135607142D01*
X65628571Y-135535714D01*
X65485714Y-135464285D01*
X65200000Y-135392857D01*
X65057142Y-135321428D01*
X64985714Y-135250000D01*
X64914285Y-135107142D01*
X64914285Y-134964285D01*
X64985714Y-134821428D01*
X65057142Y-134750000D01*
X65200000Y-134678571D01*
X65557142Y-134678571D01*
X65771428Y-134750000D01*
X66414285Y-136178571D02*
X66414285Y-134678571D01*
X66414285Y-135392857D02*
X67271428Y-135392857D01*
X67271428Y-136178571D02*
X67271428Y-134678571D01*
X67985714Y-136178571D02*
X67985714Y-134678571D01*
X69200000Y-135392857D02*
X68700000Y-135392857D01*
X68700000Y-136178571D02*
X68700000Y-134678571D01*
X69414285Y-134678571D01*
X69771428Y-134678571D02*
X70628571Y-134678571D01*
X70200000Y-136178571D02*
X70200000Y-134678571D01*
X17864285Y-135392857D02*
X18364285Y-135392857D01*
X18578571Y-136178571D02*
X17864285Y-136178571D01*
X17864285Y-134678571D01*
X18578571Y-134678571D01*
X19150000Y-136107142D02*
X19364285Y-136178571D01*
X19721428Y-136178571D01*
X19864285Y-136107142D01*
X19935714Y-136035714D01*
X20007142Y-135892857D01*
X20007142Y-135750000D01*
X19935714Y-135607142D01*
X19864285Y-135535714D01*
X19721428Y-135464285D01*
X19435714Y-135392857D01*
X19292857Y-135321428D01*
X19221428Y-135250000D01*
X19150000Y-135107142D01*
X19150000Y-134964285D01*
X19221428Y-134821428D01*
X19292857Y-134750000D01*
X19435714Y-134678571D01*
X19792857Y-134678571D01*
X20007142Y-134750000D01*
X21507142Y-136035714D02*
X21435714Y-136107142D01*
X21221428Y-136178571D01*
X21078571Y-136178571D01*
X20864285Y-136107142D01*
X20721428Y-135964285D01*
X20650000Y-135821428D01*
X20578571Y-135535714D01*
X20578571Y-135321428D01*
X20650000Y-135035714D01*
X20721428Y-134892857D01*
X20864285Y-134750000D01*
X21078571Y-134678571D01*
X21221428Y-134678571D01*
X21435714Y-134750000D01*
X21507142Y-134821428D01*
X189164285Y-49878571D02*
X189164285Y-48378571D01*
X189664285Y-49450000D01*
X190164285Y-48378571D01*
X190164285Y-49878571D01*
X190878571Y-49878571D02*
X190878571Y-48378571D01*
X191592857Y-49878571D02*
X191592857Y-48378571D01*
X191950000Y-48378571D01*
X192164285Y-48450000D01*
X192307142Y-48592857D01*
X192378571Y-48735714D01*
X192450000Y-49021428D01*
X192450000Y-49235714D01*
X192378571Y-49521428D01*
X192307142Y-49664285D01*
X192164285Y-49807142D01*
X191950000Y-49878571D01*
X191592857Y-49878571D01*
X193092857Y-49878571D02*
X193092857Y-48378571D01*
X193807142Y-49307142D02*
X194950000Y-49307142D01*
X195950000Y-48378571D02*
X196235714Y-48378571D01*
X196378571Y-48450000D01*
X196521428Y-48592857D01*
X196592857Y-48878571D01*
X196592857Y-49378571D01*
X196521428Y-49664285D01*
X196378571Y-49807142D01*
X196235714Y-49878571D01*
X195950000Y-49878571D01*
X195807142Y-49807142D01*
X195664285Y-49664285D01*
X195592857Y-49378571D01*
X195592857Y-48878571D01*
X195664285Y-48592857D01*
X195807142Y-48450000D01*
X195950000Y-48378571D01*
X197235714Y-48378571D02*
X197235714Y-49592857D01*
X197307142Y-49735714D01*
X197378571Y-49807142D01*
X197521428Y-49878571D01*
X197807142Y-49878571D01*
X197950000Y-49807142D01*
X198021428Y-49735714D01*
X198092857Y-49592857D01*
X198092857Y-48378571D01*
X198592857Y-48378571D02*
X199450000Y-48378571D01*
X199021428Y-49878571D02*
X199021428Y-48378571D01*
X147864285Y-49878571D02*
X147864285Y-48378571D01*
X148364285Y-49450000D01*
X148864285Y-48378571D01*
X148864285Y-49878571D01*
X149578571Y-49878571D02*
X149578571Y-48378571D01*
X150292857Y-49878571D02*
X150292857Y-48378571D01*
X150650000Y-48378571D01*
X150864285Y-48450000D01*
X151007142Y-48592857D01*
X151078571Y-48735714D01*
X151150000Y-49021428D01*
X151150000Y-49235714D01*
X151078571Y-49521428D01*
X151007142Y-49664285D01*
X150864285Y-49807142D01*
X150650000Y-49878571D01*
X150292857Y-49878571D01*
X151792857Y-49878571D02*
X151792857Y-48378571D01*
X152507142Y-49307142D02*
X153650000Y-49307142D01*
X154364285Y-49878571D02*
X154364285Y-48378571D01*
X155078571Y-49878571D02*
X155078571Y-48378571D01*
X155935714Y-49878571D01*
X155935714Y-48378571D01*
X167214285Y-49878571D02*
X167214285Y-48378571D01*
X167714285Y-49450000D01*
X168214285Y-48378571D01*
X168214285Y-49878571D01*
X168928571Y-49878571D02*
X168928571Y-48378571D01*
X169642857Y-49878571D02*
X169642857Y-48378571D01*
X170000000Y-48378571D01*
X170214285Y-48450000D01*
X170357142Y-48592857D01*
X170428571Y-48735714D01*
X170500000Y-49021428D01*
X170500000Y-49235714D01*
X170428571Y-49521428D01*
X170357142Y-49664285D01*
X170214285Y-49807142D01*
X170000000Y-49878571D01*
X169642857Y-49878571D01*
X171142857Y-49878571D02*
X171142857Y-48378571D01*
X171857142Y-49307142D02*
X173000000Y-49307142D01*
X173500000Y-48378571D02*
X174357142Y-48378571D01*
X173928571Y-49878571D02*
X173928571Y-48378571D01*
X174857142Y-49878571D02*
X174857142Y-48378571D01*
X174857142Y-49092857D02*
X175714285Y-49092857D01*
X175714285Y-49878571D02*
X175714285Y-48378571D01*
X177285714Y-49878571D02*
X176785714Y-49164285D01*
X176428571Y-49878571D02*
X176428571Y-48378571D01*
X177000000Y-48378571D01*
X177142857Y-48450000D01*
X177214285Y-48521428D01*
X177285714Y-48664285D01*
X177285714Y-48878571D01*
X177214285Y-49021428D01*
X177142857Y-49092857D01*
X177000000Y-49164285D01*
X176428571Y-49164285D01*
X177928571Y-48378571D02*
X177928571Y-49592857D01*
X178000000Y-49735714D01*
X178071428Y-49807142D01*
X178214285Y-49878571D01*
X178500000Y-49878571D01*
X178642857Y-49807142D01*
X178714285Y-49735714D01*
X178785714Y-49592857D01*
X178785714Y-48378571D01*
X199653571Y-136178571D02*
X199653571Y-134678571D01*
X200010714Y-134678571D01*
X200225000Y-134750000D01*
X200367857Y-134892857D01*
X200439285Y-135035714D01*
X200510714Y-135321428D01*
X200510714Y-135535714D01*
X200439285Y-135821428D01*
X200367857Y-135964285D01*
X200225000Y-136107142D01*
X200010714Y-136178571D01*
X199653571Y-136178571D01*
X201439285Y-134678571D02*
X201725000Y-134678571D01*
X201867857Y-134750000D01*
X202010714Y-134892857D01*
X202082142Y-135178571D01*
X202082142Y-135678571D01*
X202010714Y-135964285D01*
X201867857Y-136107142D01*
X201725000Y-136178571D01*
X201439285Y-136178571D01*
X201296428Y-136107142D01*
X201153571Y-135964285D01*
X201082142Y-135678571D01*
X201082142Y-135178571D01*
X201153571Y-134892857D01*
X201296428Y-134750000D01*
X201439285Y-134678571D01*
X202582142Y-134678571D02*
X202939285Y-136178571D01*
X203225000Y-135107142D01*
X203510714Y-136178571D01*
X203867857Y-134678571D01*
X204439285Y-136178571D02*
X204439285Y-134678571D01*
X205296428Y-136178571D01*
X205296428Y-134678571D01*
X201296428Y-107798571D02*
X201296428Y-109012857D01*
X201367857Y-109155714D01*
X201439285Y-109227142D01*
X201582142Y-109298571D01*
X201867857Y-109298571D01*
X202010714Y-109227142D01*
X202082142Y-109155714D01*
X202153571Y-109012857D01*
X202153571Y-107798571D01*
X202867857Y-109298571D02*
X202867857Y-107798571D01*
X203439285Y-107798571D01*
X203582142Y-107870000D01*
X203653571Y-107941428D01*
X203725000Y-108084285D01*
X203725000Y-108298571D01*
X203653571Y-108441428D01*
X203582142Y-108512857D01*
X203439285Y-108584285D01*
X202867857Y-108584285D01*
D11*
%TO.C,R7*%
X197395000Y-140850000D03*
D12*
X207555000Y-140850000D03*
%TD*%
D11*
%TO.C,R6*%
X197395000Y-82150000D03*
D12*
X207555000Y-82150000D03*
%TD*%
D11*
%TO.C,R9*%
X239695000Y-82150000D03*
D12*
X249855000Y-82150000D03*
%TD*%
D11*
%TO.C,R10*%
X256295000Y-82150000D03*
D12*
X266455000Y-82150000D03*
%TD*%
D11*
%TO.C,R11*%
X272895000Y-82150000D03*
D12*
X283055000Y-82150000D03*
%TD*%
D11*
%TO.C,R15*%
X272895000Y-140850000D03*
D12*
X283055000Y-140850000D03*
%TD*%
D11*
%TO.C,R14*%
X256295000Y-140850000D03*
D12*
X266455000Y-140850000D03*
%TD*%
D11*
%TO.C,R13*%
X239695000Y-140850000D03*
D12*
X249855000Y-140850000D03*
%TD*%
D11*
%TO.C,R12*%
X223095000Y-140850000D03*
D12*
X233255000Y-140850000D03*
%TD*%
D11*
%TO.C,R8*%
X223095000Y-82150000D03*
D12*
X233255000Y-82150000D03*
%TD*%
D13*
%TO.C,REF\u002A\u002A*%
X215100000Y-85000000D03*
D14*
X215100000Y-85000000D03*
%TD*%
%TO.C,REF\u002A\u002A*%
X82100000Y-85000000D03*
D13*
X82100000Y-85000000D03*
%TD*%
%TO.C,REF\u002A\u002A*%
X287100000Y-146000000D03*
D14*
X287100000Y-146000000D03*
%TD*%
D13*
%TO.C,REF\u002A\u002A*%
X287100000Y-25500000D03*
D14*
X287100000Y-25500000D03*
%TD*%
D13*
%TO.C,REF\u002A\u002A*%
X11100000Y-25500000D03*
D14*
X11100000Y-25500000D03*
%TD*%
D13*
%TO.C,REF\u002A\u002A*%
X11100000Y-146000000D03*
D14*
X11100000Y-146000000D03*
%TD*%
D15*
%TO.C,SW22*%
X284475000Y-125490000D03*
D16*
X271475000Y-125470000D03*
D17*
X280500000Y-131830000D03*
X275500000Y-131830000D03*
X280500000Y-119330000D03*
X275500000Y-119330000D03*
%TD*%
D15*
%TO.C,SW18*%
X284475000Y-98775000D03*
D16*
X271475000Y-98755000D03*
D17*
X280500000Y-105115000D03*
X275500000Y-105115000D03*
X280500000Y-92615000D03*
X275500000Y-92615000D03*
%TD*%
D15*
%TO.C,SW21*%
X267875000Y-125490000D03*
D16*
X254875000Y-125470000D03*
D17*
X263900000Y-131830000D03*
X258900000Y-131830000D03*
X263900000Y-119330000D03*
X258900000Y-119330000D03*
%TD*%
D15*
%TO.C,SW20*%
X251275000Y-125490000D03*
D16*
X238275000Y-125470000D03*
D17*
X247300000Y-131830000D03*
X242300000Y-131830000D03*
X247300000Y-119330000D03*
X242300000Y-119330000D03*
%TD*%
D15*
%TO.C,SW19*%
X234675000Y-125490000D03*
D16*
X221675000Y-125470000D03*
D17*
X230700000Y-131830000D03*
X225700000Y-131830000D03*
X230700000Y-119330000D03*
X225700000Y-119330000D03*
%TD*%
D15*
%TO.C,SW17*%
X267875000Y-98775000D03*
D16*
X254875000Y-98755000D03*
D17*
X263900000Y-105115000D03*
X258900000Y-105115000D03*
X263900000Y-92615000D03*
X258900000Y-92615000D03*
%TD*%
D15*
%TO.C,SW16*%
X251275000Y-98775000D03*
D16*
X238275000Y-98755000D03*
D17*
X247300000Y-105115000D03*
X242300000Y-105115000D03*
X247300000Y-92615000D03*
X242300000Y-92615000D03*
%TD*%
D15*
%TO.C,SW15*%
X234675000Y-98775000D03*
D16*
X221675000Y-98755000D03*
D17*
X230700000Y-105115000D03*
X225700000Y-105115000D03*
X230700000Y-92615000D03*
X225700000Y-92615000D03*
%TD*%
D15*
%TO.C,SW14*%
X208975000Y-125490000D03*
D16*
X195975000Y-125470000D03*
D17*
X205000000Y-131830000D03*
X200000000Y-131830000D03*
X205000000Y-119330000D03*
X200000000Y-119330000D03*
%TD*%
D15*
%TO.C,SW13*%
X208975000Y-98775000D03*
D16*
X195975000Y-98755000D03*
D17*
X205000000Y-105115000D03*
X200000000Y-105115000D03*
X205000000Y-92615000D03*
X200000000Y-92615000D03*
%TD*%
D18*
%TO.C,SW8*%
X172555000Y-133350000D03*
D19*
X172555000Y-135850000D03*
X172555000Y-138350000D03*
D20*
X180055000Y-130250000D03*
X180055000Y-141450000D03*
D19*
X187055000Y-133350000D03*
X187055000Y-138350000D03*
%TD*%
D18*
%TO.C,SW6*%
X146555000Y-133350000D03*
D19*
X146555000Y-135850000D03*
X146555000Y-138350000D03*
D20*
X154055000Y-130250000D03*
X154055000Y-141450000D03*
D19*
X161055000Y-133350000D03*
X161055000Y-138350000D03*
%TD*%
D18*
%TO.C,SW4*%
X120555000Y-133350000D03*
D19*
X120555000Y-135850000D03*
X120555000Y-138350000D03*
D20*
X128055000Y-130250000D03*
X128055000Y-141450000D03*
D19*
X135055000Y-133350000D03*
X135055000Y-138350000D03*
%TD*%
D18*
%TO.C,SW2*%
X94555000Y-133350000D03*
D19*
X94555000Y-135850000D03*
X94555000Y-138350000D03*
D20*
X102055000Y-130250000D03*
X102055000Y-141450000D03*
D19*
X109055000Y-133350000D03*
X109055000Y-138350000D03*
%TD*%
D18*
%TO.C,SW7*%
X172555000Y-84650000D03*
D19*
X172555000Y-87150000D03*
X172555000Y-89650000D03*
D20*
X180055000Y-81550000D03*
X180055000Y-92750000D03*
D19*
X187055000Y-84650000D03*
X187055000Y-89650000D03*
%TD*%
D18*
%TO.C,SW5*%
X146555000Y-84650000D03*
D19*
X146555000Y-87150000D03*
X146555000Y-89650000D03*
D20*
X154055000Y-81550000D03*
X154055000Y-92750000D03*
D19*
X161055000Y-84650000D03*
X161055000Y-89650000D03*
%TD*%
D18*
%TO.C,SW3*%
X120555000Y-84650000D03*
D19*
X120555000Y-87150000D03*
X120555000Y-89650000D03*
D20*
X128055000Y-81550000D03*
X128055000Y-92750000D03*
D19*
X135055000Y-84650000D03*
X135055000Y-89650000D03*
%TD*%
D18*
%TO.C,SW1*%
X94555000Y-84650000D03*
D19*
X94555000Y-87150000D03*
X94555000Y-89650000D03*
D20*
X102055000Y-81550000D03*
X102055000Y-92750000D03*
D19*
X109055000Y-84650000D03*
X109055000Y-89650000D03*
%TD*%
D11*
%TO.C,R2*%
X232500000Y-40060000D03*
D12*
X232500000Y-29900000D03*
%TD*%
D18*
%TO.C,SW0*%
X36424999Y-67800000D03*
D19*
X36424999Y-70300000D03*
X36424999Y-72800000D03*
D20*
X43924999Y-64700000D03*
X43924999Y-75900000D03*
D19*
X50924999Y-67800000D03*
X50924999Y-72800000D03*
%TD*%
D21*
%TO.C,J3*%
X201740000Y-40749999D03*
X194120000Y-40749999D03*
X186500000Y-40749999D03*
X189040000Y-43289999D03*
X199200000Y-43289999D03*
X189040000Y-30589999D03*
X199200000Y-30589999D03*
%TD*%
%TO.C,J2*%
X180640000Y-40749999D03*
X173020000Y-40749999D03*
X165400000Y-40749999D03*
X167940000Y-43289999D03*
X178100000Y-43289999D03*
X167940000Y-30589999D03*
X178100000Y-30589999D03*
%TD*%
%TO.C,J1*%
X159540000Y-40749999D03*
X151920000Y-40749999D03*
X144300000Y-40749999D03*
X146840000Y-43289999D03*
X157000000Y-43289999D03*
X146840000Y-30589999D03*
X157000000Y-30589999D03*
%TD*%
D11*
%TO.C,R5*%
X217700000Y-29840000D03*
D12*
X217700000Y-40000000D03*
%TD*%
D11*
%TO.C,R4*%
X222600000Y-29840000D03*
D12*
X222600000Y-40000000D03*
%TD*%
D11*
%TO.C,R3*%
X227700000Y-29840000D03*
D12*
X227700000Y-40000000D03*
%TD*%
D11*
%TO.C,R1*%
X237500000Y-40060000D03*
D12*
X237500000Y-29900000D03*
%TD*%
D22*
%TO.C,DS4*%
X190900000Y-122700000D03*
X190900000Y-100700000D03*
D23*
X176090000Y-100200000D03*
D12*
X178630000Y-100200000D03*
X181170000Y-100200000D03*
X183710000Y-100200000D03*
D22*
X168900000Y-122700000D03*
X168900000Y-100700000D03*
%TD*%
%TO.C,DS3*%
X164900000Y-122700000D03*
X164900000Y-100700000D03*
D23*
X150090000Y-100200000D03*
D12*
X152630000Y-100200000D03*
X155170000Y-100200000D03*
X157710000Y-100200000D03*
D22*
X142900000Y-122700000D03*
X142900000Y-100700000D03*
%TD*%
%TO.C,DS2*%
X138900000Y-122700000D03*
X138900000Y-100700000D03*
D23*
X124090000Y-100200000D03*
D12*
X126630000Y-100200000D03*
X129170000Y-100200000D03*
X131710000Y-100200000D03*
D22*
X116900000Y-122700000D03*
X116900000Y-100700000D03*
%TD*%
%TO.C,DS1*%
X112900000Y-122700000D03*
X112900000Y-100700000D03*
D23*
X98090000Y-100200000D03*
D12*
X100630000Y-100200000D03*
X103170000Y-100200000D03*
X105710000Y-100200000D03*
D22*
X90900000Y-122700000D03*
X90900000Y-100700000D03*
%TD*%
D12*
%TO.C,U5*%
X55060000Y-29070000D03*
X57600000Y-29070000D03*
X60140000Y-29070000D03*
X62680000Y-29070000D03*
X65220000Y-29070000D03*
X67760000Y-29070000D03*
X70300000Y-29070000D03*
X72840000Y-29070000D03*
X75380000Y-29070000D03*
X77920000Y-29070000D03*
X80460000Y-29070000D03*
X83000000Y-29070000D03*
X83000000Y-46850000D03*
X80460000Y-46850000D03*
X77920000Y-46850000D03*
X75380000Y-46850000D03*
X72840000Y-46850000D03*
X70300000Y-46850000D03*
X67760000Y-46850000D03*
X65220000Y-46850000D03*
X62680000Y-46850000D03*
X60140000Y-46850000D03*
X57600000Y-46850000D03*
X55060000Y-46850000D03*
%TD*%
D24*
%TO.C,U7*%
X281760000Y-30529999D03*
X281760000Y-50849999D03*
X248740000Y-50849999D03*
X248640940Y-30806859D03*
D15*
X256220000Y-30589999D03*
X258760000Y-30589999D03*
X261300000Y-30589999D03*
X263840000Y-30589999D03*
X266380000Y-30589999D03*
X268920000Y-30589999D03*
X274000000Y-50909999D03*
X271460000Y-50909999D03*
X268920000Y-50909999D03*
X266380000Y-50909999D03*
X263840000Y-50909999D03*
X261300000Y-50909999D03*
X258760000Y-50909999D03*
X256220000Y-50909999D03*
X253680000Y-50909999D03*
%TD*%
D11*
%TO.C,U9*%
X241050000Y-51670000D03*
X235970000Y-44050000D03*
X238510000Y-51670000D03*
X238510000Y-44050000D03*
X235970000Y-51670000D03*
D23*
X241050000Y-44050000D03*
%TD*%
D11*
%TO.C,U8*%
X230900000Y-51920000D03*
X223280000Y-44300000D03*
X228360000Y-51920000D03*
X225820000Y-44300000D03*
X225820000Y-51920000D03*
X228360000Y-44300000D03*
X223280000Y-51920000D03*
D23*
X230900000Y-44300000D03*
%TD*%
%TO.C,U6*%
X223230000Y-72384000D03*
D11*
X281650000Y-57144000D03*
X225770000Y-72384000D03*
X279110000Y-57144000D03*
X228310000Y-72384000D03*
X276570000Y-57144000D03*
X230850000Y-72384000D03*
X274030000Y-57144000D03*
X233390000Y-72384000D03*
X271490000Y-57144000D03*
X235930000Y-72384000D03*
X268950000Y-57144000D03*
X238470000Y-72384000D03*
X266410000Y-57144000D03*
X241010000Y-72384000D03*
X263870000Y-57144000D03*
X243550000Y-72384000D03*
X261330000Y-57144000D03*
X246090000Y-72384000D03*
X258790000Y-57144000D03*
X248630000Y-72384000D03*
X256250000Y-57144000D03*
X251170000Y-72384000D03*
X253710000Y-57144000D03*
X253710000Y-72384000D03*
X251170000Y-57144000D03*
X256250000Y-72384000D03*
X248630000Y-57144000D03*
X258790000Y-72384000D03*
X246090000Y-57144000D03*
X261330000Y-72384000D03*
X243550000Y-57144000D03*
X263870000Y-72384000D03*
X241010000Y-57144000D03*
X266410000Y-72384000D03*
X238470000Y-57144000D03*
X268950000Y-72384000D03*
X235930000Y-57144000D03*
X271490000Y-72384000D03*
X233390000Y-57144000D03*
X274030000Y-72384000D03*
X230850000Y-57144000D03*
X276570000Y-72384000D03*
X228310000Y-57144000D03*
X279110000Y-72384000D03*
X225770000Y-57144000D03*
X281650000Y-72384000D03*
X223230000Y-57144000D03*
%TD*%
D15*
%TO.C,U1*%
X31480000Y-30160000D03*
X31480000Y-32700000D03*
X31480000Y-35240000D03*
X31480000Y-37780000D03*
X31480000Y-40320000D03*
X31480000Y-42860000D03*
X31480000Y-45400000D03*
X16240000Y-45400000D03*
X16240000Y-42860000D03*
X16240000Y-40320000D03*
X16240000Y-37780000D03*
X16240000Y-35240000D03*
X16240000Y-32700000D03*
X16240000Y-30160000D03*
%TD*%
D17*
%TO.C,SW12*%
X70200000Y-132054999D03*
X65200000Y-132054999D03*
X70200000Y-119554999D03*
X65200000Y-119554999D03*
%TD*%
%TO.C,SW11*%
X22150000Y-132054999D03*
X17150000Y-132054999D03*
X22150000Y-119554999D03*
X17150000Y-119554999D03*
%TD*%
%TO.C,SW10*%
X70200000Y-105115000D03*
X65200000Y-105115000D03*
X70200000Y-92615000D03*
X65200000Y-92615000D03*
%TD*%
%TO.C,SW9*%
X22150000Y-105115000D03*
X17150000Y-105115000D03*
X22150000Y-92615000D03*
X17150000Y-92615000D03*
%TD*%
D25*
%TO.C,J6*%
X123900000Y-30615000D03*
G36*
G01*
X120550000Y-31365000D02*
X120550000Y-29865000D01*
G75*
G02*
X120800000Y-29615000I250000J0D01*
G01*
X122000000Y-29615000D01*
G75*
G02*
X122250000Y-29865000I0J-250000D01*
G01*
X122250000Y-31365000D01*
G75*
G02*
X122000000Y-31615000I-250000J0D01*
G01*
X120800000Y-31615000D01*
G75*
G02*
X120550000Y-31365000I0J250000D01*
G01*
G37*
%TD*%
%TO.C,J5*%
X115100000Y-30615000D03*
G36*
G01*
X111750000Y-31365000D02*
X111750000Y-29865000D01*
G75*
G02*
X112000000Y-29615000I250000J0D01*
G01*
X113200000Y-29615000D01*
G75*
G02*
X113450000Y-29865000I0J-250000D01*
G01*
X113450000Y-31365000D01*
G75*
G02*
X113200000Y-31615000I-250000J0D01*
G01*
X112000000Y-31615000D01*
G75*
G02*
X111750000Y-31365000I0J250000D01*
G01*
G37*
%TD*%
%TO.C,J4*%
X106300000Y-30615000D03*
G36*
G01*
X102950000Y-31365000D02*
X102950000Y-29865000D01*
G75*
G02*
X103200000Y-29615000I250000J0D01*
G01*
X104400000Y-29615000D01*
G75*
G02*
X104650000Y-29865000I0J-250000D01*
G01*
X104650000Y-31365000D01*
G75*
G02*
X104400000Y-31615000I-250000J0D01*
G01*
X103200000Y-31615000D01*
G75*
G02*
X102950000Y-31365000I0J250000D01*
G01*
G37*
%TD*%
D12*
%TO.C,DS0*%
X51409999Y-94700000D03*
X48869999Y-94700000D03*
X46329999Y-94700000D03*
X43789999Y-94700000D03*
X41249999Y-94700000D03*
X38709999Y-94700000D03*
D23*
X36169999Y-94700000D03*
D26*
X55179999Y-129420000D03*
X55179999Y-95200000D03*
X32399999Y-95200000D03*
X32399999Y-129420000D03*
%TD*%
D11*
%TO.C,D1*%
X242200000Y-38720000D03*
D23*
X242200000Y-31100000D03*
%TD*%
D11*
%TO.C,U4*%
X207020000Y-66320000D03*
X174000000Y-58700000D03*
X204480000Y-66320000D03*
X176540000Y-58700000D03*
X201940000Y-66320000D03*
X179080000Y-58700000D03*
X199400000Y-66320000D03*
X181620000Y-58700000D03*
X196860000Y-66320000D03*
X184160000Y-58700000D03*
X194320000Y-66320000D03*
X186700000Y-58700000D03*
X191780000Y-66320000D03*
X189240000Y-58700000D03*
X189240000Y-66320000D03*
X191780000Y-58700000D03*
X186700000Y-66320000D03*
X194320000Y-58700000D03*
X184160000Y-66320000D03*
X196860000Y-58700000D03*
X181620000Y-66320000D03*
X199400000Y-58700000D03*
X179080000Y-66320000D03*
X201940000Y-58700000D03*
X176540000Y-66320000D03*
X204480000Y-58700000D03*
X174000000Y-66320000D03*
D23*
X207020000Y-58700000D03*
%TD*%
D11*
%TO.C,U3*%
X165020000Y-66320000D03*
X132000000Y-58700000D03*
X162480000Y-66320000D03*
X134540000Y-58700000D03*
X159940000Y-66320000D03*
X137080000Y-58700000D03*
X157400000Y-66320000D03*
X139620000Y-58700000D03*
X154860000Y-66320000D03*
X142160000Y-58700000D03*
X152320000Y-66320000D03*
X144700000Y-58700000D03*
X149780000Y-66320000D03*
X147240000Y-58700000D03*
X147240000Y-66320000D03*
X149780000Y-58700000D03*
X144700000Y-66320000D03*
X152320000Y-58700000D03*
X142160000Y-66320000D03*
X154860000Y-58700000D03*
X139620000Y-66320000D03*
X157400000Y-58700000D03*
X137080000Y-66320000D03*
X159940000Y-58700000D03*
X134540000Y-66320000D03*
X162480000Y-58700000D03*
X132000000Y-66320000D03*
D23*
X165020000Y-58700000D03*
%TD*%
D11*
%TO.C,U2*%
X123020000Y-66320000D03*
X90000000Y-58700000D03*
X120480000Y-66320000D03*
X92540000Y-58700000D03*
X117940000Y-66320000D03*
X95080000Y-58700000D03*
X115400000Y-66320000D03*
X97620000Y-58700000D03*
X112860000Y-66320000D03*
X100160000Y-58700000D03*
X110320000Y-66320000D03*
X102700000Y-58700000D03*
X107780000Y-66320000D03*
X105240000Y-58700000D03*
X105240000Y-66320000D03*
X107780000Y-58700000D03*
X102700000Y-66320000D03*
X110320000Y-58700000D03*
X100160000Y-66320000D03*
X112860000Y-58700000D03*
X97620000Y-66320000D03*
X115400000Y-58700000D03*
X95080000Y-66320000D03*
X117940000Y-58700000D03*
X92540000Y-66320000D03*
X120480000Y-58700000D03*
X90000000Y-66320000D03*
D23*
X123020000Y-58700000D03*
%TD*%
M02*
