%TF.GenerationSoftware,KiCad,Pcbnew,(5.1.9-0-10_14)*%
%TF.CreationDate,2021-03-17T11:34:05+01:00*%
%TF.ProjectId,xva1-ui,78766131-2d75-4692-9e6b-696361645f70,rev?*%
%TF.SameCoordinates,Original*%
%TF.FileFunction,Soldermask,Bot*%
%TF.FilePolarity,Negative*%
%FSLAX46Y46*%
G04 Gerber Fmt 4.6, Leading zero omitted, Abs format (unit mm)*
G04 Created by KiCad (PCBNEW (5.1.9-0-10_14)) date 2021-03-17 11:34:05*
%MOMM*%
%LPD*%
G01*
G04 APERTURE LIST*
%ADD10C,4.000000*%
%ADD11O,1.600000X1.600000*%
%ADD12C,1.600000*%
%ADD13C,1.524000*%
%ADD14R,1.524000X1.524000*%
%ADD15O,1.850000X3.048000*%
%ADD16R,2.000000X2.000000*%
%ADD17C,2.000000*%
%ADD18C,2.800000*%
%ADD19C,1.800000*%
%ADD20C,2.400000*%
%ADD21R,1.600000X1.600000*%
%ADD22C,3.000000*%
%ADD23O,1.700000X2.000000*%
%ADD24C,3.048000*%
G04 APERTURE END LIST*
D10*
%TO.C,REF\u002A\u002A*%
X82000000Y-85750000D03*
%TD*%
%TO.C,REF\u002A\u002A*%
X216000000Y-85750000D03*
%TD*%
%TO.C,REF\u002A\u002A*%
X288000000Y-147000000D03*
%TD*%
%TO.C,REF\u002A\u002A*%
X288000000Y-24500000D03*
%TD*%
%TO.C,REF\u002A\u002A*%
X10000000Y-24500000D03*
%TD*%
%TO.C,REF\u002A\u002A*%
X10000000Y-147000000D03*
%TD*%
D11*
%TO.C,R7*%
X197395000Y-140850000D03*
D12*
X207555000Y-140850000D03*
%TD*%
D11*
%TO.C,R6*%
X197395000Y-82150000D03*
D12*
X207555000Y-82150000D03*
%TD*%
D11*
%TO.C,R9*%
X239695000Y-82150000D03*
D12*
X249855000Y-82150000D03*
%TD*%
D11*
%TO.C,R10*%
X256295000Y-82150000D03*
D12*
X266455000Y-82150000D03*
%TD*%
D11*
%TO.C,R11*%
X272895000Y-82150000D03*
D12*
X283055000Y-82150000D03*
%TD*%
D11*
%TO.C,R15*%
X272895000Y-140850000D03*
D12*
X283055000Y-140850000D03*
%TD*%
D11*
%TO.C,R14*%
X256295000Y-140850000D03*
D12*
X266455000Y-140850000D03*
%TD*%
D11*
%TO.C,R13*%
X239695000Y-140850000D03*
D12*
X249855000Y-140850000D03*
%TD*%
D11*
%TO.C,R12*%
X223095000Y-140850000D03*
D12*
X233255000Y-140850000D03*
%TD*%
D11*
%TO.C,R8*%
X223095000Y-82150000D03*
D12*
X233255000Y-82150000D03*
%TD*%
D13*
%TO.C,SW22*%
X284475000Y-125490000D03*
D14*
X271475000Y-125470000D03*
D15*
X280500000Y-131830000D03*
X275500000Y-131830000D03*
X280500000Y-119330000D03*
X275500000Y-119330000D03*
%TD*%
D13*
%TO.C,SW18*%
X284475000Y-98775000D03*
D14*
X271475000Y-98755000D03*
D15*
X280500000Y-105115000D03*
X275500000Y-105115000D03*
X280500000Y-92615000D03*
X275500000Y-92615000D03*
%TD*%
D13*
%TO.C,SW21*%
X267875000Y-125490000D03*
D14*
X254875000Y-125470000D03*
D15*
X263900000Y-131830000D03*
X258900000Y-131830000D03*
X263900000Y-119330000D03*
X258900000Y-119330000D03*
%TD*%
D13*
%TO.C,SW20*%
X251275000Y-125490000D03*
D14*
X238275000Y-125470000D03*
D15*
X247300000Y-131830000D03*
X242300000Y-131830000D03*
X247300000Y-119330000D03*
X242300000Y-119330000D03*
%TD*%
D13*
%TO.C,SW19*%
X234675000Y-125490000D03*
D14*
X221675000Y-125470000D03*
D15*
X230700000Y-131830000D03*
X225700000Y-131830000D03*
X230700000Y-119330000D03*
X225700000Y-119330000D03*
%TD*%
D13*
%TO.C,SW17*%
X267875000Y-98775000D03*
D14*
X254875000Y-98755000D03*
D15*
X263900000Y-105115000D03*
X258900000Y-105115000D03*
X263900000Y-92615000D03*
X258900000Y-92615000D03*
%TD*%
D13*
%TO.C,SW16*%
X251275000Y-98775000D03*
D14*
X238275000Y-98755000D03*
D15*
X247300000Y-105115000D03*
X242300000Y-105115000D03*
X247300000Y-92615000D03*
X242300000Y-92615000D03*
%TD*%
D13*
%TO.C,SW15*%
X234675000Y-98775000D03*
D14*
X221675000Y-98755000D03*
D15*
X230700000Y-105115000D03*
X225700000Y-105115000D03*
X230700000Y-92615000D03*
X225700000Y-92615000D03*
%TD*%
D13*
%TO.C,SW14*%
X208975000Y-125490000D03*
D14*
X195975000Y-125470000D03*
D15*
X205000000Y-131830000D03*
X200000000Y-131830000D03*
X205000000Y-119330000D03*
X200000000Y-119330000D03*
%TD*%
D13*
%TO.C,SW13*%
X208975000Y-98775000D03*
D14*
X195975000Y-98755000D03*
D15*
X205000000Y-105115000D03*
X200000000Y-105115000D03*
X205000000Y-92615000D03*
X200000000Y-92615000D03*
%TD*%
D16*
%TO.C,SW8*%
X172555000Y-133350000D03*
D17*
X172555000Y-135850000D03*
X172555000Y-138350000D03*
D18*
X180055000Y-130250000D03*
X180055000Y-141450000D03*
D17*
X187055000Y-133350000D03*
X187055000Y-138350000D03*
%TD*%
D16*
%TO.C,SW6*%
X146555000Y-133350000D03*
D17*
X146555000Y-135850000D03*
X146555000Y-138350000D03*
D18*
X154055000Y-130250000D03*
X154055000Y-141450000D03*
D17*
X161055000Y-133350000D03*
X161055000Y-138350000D03*
%TD*%
D16*
%TO.C,SW4*%
X120555000Y-133350000D03*
D17*
X120555000Y-135850000D03*
X120555000Y-138350000D03*
D18*
X128055000Y-130250000D03*
X128055000Y-141450000D03*
D17*
X135055000Y-133350000D03*
X135055000Y-138350000D03*
%TD*%
D16*
%TO.C,SW2*%
X94555000Y-133350000D03*
D17*
X94555000Y-135850000D03*
X94555000Y-138350000D03*
D18*
X102055000Y-130250000D03*
X102055000Y-141450000D03*
D17*
X109055000Y-133350000D03*
X109055000Y-138350000D03*
%TD*%
D16*
%TO.C,SW7*%
X172555000Y-84650000D03*
D17*
X172555000Y-87150000D03*
X172555000Y-89650000D03*
D18*
X180055000Y-81550000D03*
X180055000Y-92750000D03*
D17*
X187055000Y-84650000D03*
X187055000Y-89650000D03*
%TD*%
D16*
%TO.C,SW5*%
X146555000Y-84650000D03*
D17*
X146555000Y-87150000D03*
X146555000Y-89650000D03*
D18*
X154055000Y-81550000D03*
X154055000Y-92750000D03*
D17*
X161055000Y-84650000D03*
X161055000Y-89650000D03*
%TD*%
D16*
%TO.C,SW3*%
X120555000Y-84650000D03*
D17*
X120555000Y-87150000D03*
X120555000Y-89650000D03*
D18*
X128055000Y-81550000D03*
X128055000Y-92750000D03*
D17*
X135055000Y-84650000D03*
X135055000Y-89650000D03*
%TD*%
D16*
%TO.C,SW1*%
X94555000Y-84650000D03*
D17*
X94555000Y-87150000D03*
X94555000Y-89650000D03*
D18*
X102055000Y-81550000D03*
X102055000Y-92750000D03*
D17*
X109055000Y-84650000D03*
X109055000Y-89650000D03*
%TD*%
D11*
%TO.C,R2*%
X232500000Y-40060000D03*
D12*
X232500000Y-29900000D03*
%TD*%
D16*
%TO.C,SW0*%
X36424999Y-67800000D03*
D17*
X36424999Y-70300000D03*
X36424999Y-72800000D03*
D18*
X43924999Y-64700000D03*
X43924999Y-75900000D03*
D17*
X50924999Y-67800000D03*
X50924999Y-72800000D03*
%TD*%
D19*
%TO.C,J3*%
X201740000Y-40749999D03*
X194120000Y-40749999D03*
X186500000Y-40749999D03*
X189040000Y-43289999D03*
X199200000Y-43289999D03*
X189040000Y-30589999D03*
X199200000Y-30589999D03*
%TD*%
%TO.C,J2*%
X180640000Y-40749999D03*
X173020000Y-40749999D03*
X165400000Y-40749999D03*
X167940000Y-43289999D03*
X178100000Y-43289999D03*
X167940000Y-30589999D03*
X178100000Y-30589999D03*
%TD*%
%TO.C,J1*%
X159540000Y-40749999D03*
X151920000Y-40749999D03*
X144300000Y-40749999D03*
X146840000Y-43289999D03*
X157000000Y-43289999D03*
X146840000Y-30589999D03*
X157000000Y-30589999D03*
%TD*%
D11*
%TO.C,R5*%
X217700000Y-29840000D03*
D12*
X217700000Y-40000000D03*
%TD*%
D11*
%TO.C,R4*%
X222600000Y-29840000D03*
D12*
X222600000Y-40000000D03*
%TD*%
D11*
%TO.C,R3*%
X227700000Y-29840000D03*
D12*
X227700000Y-40000000D03*
%TD*%
D11*
%TO.C,R1*%
X237500000Y-40060000D03*
D12*
X237500000Y-29900000D03*
%TD*%
D20*
%TO.C,DS4*%
X190900000Y-122700000D03*
X190900000Y-100700000D03*
D21*
X176090000Y-100200000D03*
D12*
X178630000Y-100200000D03*
X181170000Y-100200000D03*
X183710000Y-100200000D03*
D20*
X168900000Y-122700000D03*
X168900000Y-100700000D03*
%TD*%
%TO.C,DS3*%
X164900000Y-122700000D03*
X164900000Y-100700000D03*
D21*
X150090000Y-100200000D03*
D12*
X152630000Y-100200000D03*
X155170000Y-100200000D03*
X157710000Y-100200000D03*
D20*
X142900000Y-122700000D03*
X142900000Y-100700000D03*
%TD*%
%TO.C,DS2*%
X138900000Y-122700000D03*
X138900000Y-100700000D03*
D21*
X124090000Y-100200000D03*
D12*
X126630000Y-100200000D03*
X129170000Y-100200000D03*
X131710000Y-100200000D03*
D20*
X116900000Y-122700000D03*
X116900000Y-100700000D03*
%TD*%
%TO.C,DS1*%
X112900000Y-122700000D03*
X112900000Y-100700000D03*
D21*
X98090000Y-100200000D03*
D12*
X100630000Y-100200000D03*
X103170000Y-100200000D03*
X105710000Y-100200000D03*
D20*
X90900000Y-122700000D03*
X90900000Y-100700000D03*
%TD*%
D12*
%TO.C,U5*%
X55060000Y-29070000D03*
X57600000Y-29070000D03*
X60140000Y-29070000D03*
X62680000Y-29070000D03*
X65220000Y-29070000D03*
X67760000Y-29070000D03*
X70300000Y-29070000D03*
X72840000Y-29070000D03*
X75380000Y-29070000D03*
X77920000Y-29070000D03*
X80460000Y-29070000D03*
X83000000Y-29070000D03*
X83000000Y-46850000D03*
X80460000Y-46850000D03*
X77920000Y-46850000D03*
X75380000Y-46850000D03*
X72840000Y-46850000D03*
X70300000Y-46850000D03*
X67760000Y-46850000D03*
X65220000Y-46850000D03*
X62680000Y-46850000D03*
X60140000Y-46850000D03*
X57600000Y-46850000D03*
X55060000Y-46850000D03*
%TD*%
D22*
%TO.C,U7*%
X281760000Y-30529999D03*
X281760000Y-50849999D03*
X248740000Y-50849999D03*
X248640940Y-30806859D03*
D13*
X256220000Y-30589999D03*
X258760000Y-30589999D03*
X261300000Y-30589999D03*
X263840000Y-30589999D03*
X266380000Y-30589999D03*
X268920000Y-30589999D03*
X274000000Y-50909999D03*
X271460000Y-50909999D03*
X268920000Y-50909999D03*
X266380000Y-50909999D03*
X263840000Y-50909999D03*
X261300000Y-50909999D03*
X258760000Y-50909999D03*
X256220000Y-50909999D03*
X253680000Y-50909999D03*
%TD*%
D11*
%TO.C,U9*%
X241050000Y-51670000D03*
X235970000Y-44050000D03*
X238510000Y-51670000D03*
X238510000Y-44050000D03*
X235970000Y-51670000D03*
D21*
X241050000Y-44050000D03*
%TD*%
D11*
%TO.C,U8*%
X230900000Y-51920000D03*
X223280000Y-44300000D03*
X228360000Y-51920000D03*
X225820000Y-44300000D03*
X225820000Y-51920000D03*
X228360000Y-44300000D03*
X223280000Y-51920000D03*
D21*
X230900000Y-44300000D03*
%TD*%
%TO.C,U6*%
X223230000Y-72384000D03*
D11*
X281650000Y-57144000D03*
X225770000Y-72384000D03*
X279110000Y-57144000D03*
X228310000Y-72384000D03*
X276570000Y-57144000D03*
X230850000Y-72384000D03*
X274030000Y-57144000D03*
X233390000Y-72384000D03*
X271490000Y-57144000D03*
X235930000Y-72384000D03*
X268950000Y-57144000D03*
X238470000Y-72384000D03*
X266410000Y-57144000D03*
X241010000Y-72384000D03*
X263870000Y-57144000D03*
X243550000Y-72384000D03*
X261330000Y-57144000D03*
X246090000Y-72384000D03*
X258790000Y-57144000D03*
X248630000Y-72384000D03*
X256250000Y-57144000D03*
X251170000Y-72384000D03*
X253710000Y-57144000D03*
X253710000Y-72384000D03*
X251170000Y-57144000D03*
X256250000Y-72384000D03*
X248630000Y-57144000D03*
X258790000Y-72384000D03*
X246090000Y-57144000D03*
X261330000Y-72384000D03*
X243550000Y-57144000D03*
X263870000Y-72384000D03*
X241010000Y-57144000D03*
X266410000Y-72384000D03*
X238470000Y-57144000D03*
X268950000Y-72384000D03*
X235930000Y-57144000D03*
X271490000Y-72384000D03*
X233390000Y-57144000D03*
X274030000Y-72384000D03*
X230850000Y-57144000D03*
X276570000Y-72384000D03*
X228310000Y-57144000D03*
X279110000Y-72384000D03*
X225770000Y-57144000D03*
X281650000Y-72384000D03*
X223230000Y-57144000D03*
%TD*%
D13*
%TO.C,U1*%
X31480000Y-30160000D03*
X31480000Y-32700000D03*
X31480000Y-35240000D03*
X31480000Y-37780000D03*
X31480000Y-40320000D03*
X31480000Y-42860000D03*
X31480000Y-45400000D03*
X16240000Y-45400000D03*
X16240000Y-42860000D03*
X16240000Y-40320000D03*
X16240000Y-37780000D03*
X16240000Y-35240000D03*
X16240000Y-32700000D03*
X16240000Y-30160000D03*
%TD*%
D15*
%TO.C,SW12*%
X70200000Y-132054999D03*
X65200000Y-132054999D03*
X70200000Y-119554999D03*
X65200000Y-119554999D03*
%TD*%
%TO.C,SW11*%
X22150000Y-132054999D03*
X17150000Y-132054999D03*
X22150000Y-119554999D03*
X17150000Y-119554999D03*
%TD*%
%TO.C,SW10*%
X70200000Y-105115000D03*
X65200000Y-105115000D03*
X70200000Y-92615000D03*
X65200000Y-92615000D03*
%TD*%
%TO.C,SW9*%
X22150000Y-105115000D03*
X17150000Y-105115000D03*
X22150000Y-92615000D03*
X17150000Y-92615000D03*
%TD*%
D23*
%TO.C,J6*%
X123900000Y-30615000D03*
G36*
G01*
X120550000Y-31365000D02*
X120550000Y-29865000D01*
G75*
G02*
X120800000Y-29615000I250000J0D01*
G01*
X122000000Y-29615000D01*
G75*
G02*
X122250000Y-29865000I0J-250000D01*
G01*
X122250000Y-31365000D01*
G75*
G02*
X122000000Y-31615000I-250000J0D01*
G01*
X120800000Y-31615000D01*
G75*
G02*
X120550000Y-31365000I0J250000D01*
G01*
G37*
%TD*%
%TO.C,J5*%
X115100000Y-30615000D03*
G36*
G01*
X111750000Y-31365000D02*
X111750000Y-29865000D01*
G75*
G02*
X112000000Y-29615000I250000J0D01*
G01*
X113200000Y-29615000D01*
G75*
G02*
X113450000Y-29865000I0J-250000D01*
G01*
X113450000Y-31365000D01*
G75*
G02*
X113200000Y-31615000I-250000J0D01*
G01*
X112000000Y-31615000D01*
G75*
G02*
X111750000Y-31365000I0J250000D01*
G01*
G37*
%TD*%
%TO.C,J4*%
X106300000Y-30615000D03*
G36*
G01*
X102950000Y-31365000D02*
X102950000Y-29865000D01*
G75*
G02*
X103200000Y-29615000I250000J0D01*
G01*
X104400000Y-29615000D01*
G75*
G02*
X104650000Y-29865000I0J-250000D01*
G01*
X104650000Y-31365000D01*
G75*
G02*
X104400000Y-31615000I-250000J0D01*
G01*
X103200000Y-31615000D01*
G75*
G02*
X102950000Y-31365000I0J250000D01*
G01*
G37*
%TD*%
D12*
%TO.C,DS0*%
X51409999Y-94700000D03*
X48869999Y-94700000D03*
X46329999Y-94700000D03*
X43789999Y-94700000D03*
X41249999Y-94700000D03*
X38709999Y-94700000D03*
D21*
X36169999Y-94700000D03*
D24*
X55179999Y-129420000D03*
X55179999Y-95200000D03*
X32399999Y-95200000D03*
X32399999Y-129420000D03*
%TD*%
D11*
%TO.C,D1*%
X242200000Y-38720000D03*
D21*
X242200000Y-31100000D03*
%TD*%
D11*
%TO.C,U4*%
X207020000Y-66320000D03*
X174000000Y-58700000D03*
X204480000Y-66320000D03*
X176540000Y-58700000D03*
X201940000Y-66320000D03*
X179080000Y-58700000D03*
X199400000Y-66320000D03*
X181620000Y-58700000D03*
X196860000Y-66320000D03*
X184160000Y-58700000D03*
X194320000Y-66320000D03*
X186700000Y-58700000D03*
X191780000Y-66320000D03*
X189240000Y-58700000D03*
X189240000Y-66320000D03*
X191780000Y-58700000D03*
X186700000Y-66320000D03*
X194320000Y-58700000D03*
X184160000Y-66320000D03*
X196860000Y-58700000D03*
X181620000Y-66320000D03*
X199400000Y-58700000D03*
X179080000Y-66320000D03*
X201940000Y-58700000D03*
X176540000Y-66320000D03*
X204480000Y-58700000D03*
X174000000Y-66320000D03*
D21*
X207020000Y-58700000D03*
%TD*%
D11*
%TO.C,U3*%
X165020000Y-66320000D03*
X132000000Y-58700000D03*
X162480000Y-66320000D03*
X134540000Y-58700000D03*
X159940000Y-66320000D03*
X137080000Y-58700000D03*
X157400000Y-66320000D03*
X139620000Y-58700000D03*
X154860000Y-66320000D03*
X142160000Y-58700000D03*
X152320000Y-66320000D03*
X144700000Y-58700000D03*
X149780000Y-66320000D03*
X147240000Y-58700000D03*
X147240000Y-66320000D03*
X149780000Y-58700000D03*
X144700000Y-66320000D03*
X152320000Y-58700000D03*
X142160000Y-66320000D03*
X154860000Y-58700000D03*
X139620000Y-66320000D03*
X157400000Y-58700000D03*
X137080000Y-66320000D03*
X159940000Y-58700000D03*
X134540000Y-66320000D03*
X162480000Y-58700000D03*
X132000000Y-66320000D03*
D21*
X165020000Y-58700000D03*
%TD*%
D11*
%TO.C,U2*%
X123020000Y-66320000D03*
X90000000Y-58700000D03*
X120480000Y-66320000D03*
X92540000Y-58700000D03*
X117940000Y-66320000D03*
X95080000Y-58700000D03*
X115400000Y-66320000D03*
X97620000Y-58700000D03*
X112860000Y-66320000D03*
X100160000Y-58700000D03*
X110320000Y-66320000D03*
X102700000Y-58700000D03*
X107780000Y-66320000D03*
X105240000Y-58700000D03*
X105240000Y-66320000D03*
X107780000Y-58700000D03*
X102700000Y-66320000D03*
X110320000Y-58700000D03*
X100160000Y-66320000D03*
X112860000Y-58700000D03*
X97620000Y-66320000D03*
X115400000Y-58700000D03*
X95080000Y-66320000D03*
X117940000Y-58700000D03*
X92540000Y-66320000D03*
X120480000Y-58700000D03*
X90000000Y-66320000D03*
D21*
X123020000Y-58700000D03*
%TD*%
M02*
