%TF.GenerationSoftware,KiCad,Pcbnew,(5.1.9-0-10_14)*%
%TF.CreationDate,2021-03-16T22:34:44+01:00*%
%TF.ProjectId,xva1-ui,78766131-2d75-4692-9e6b-696361645f70,rev?*%
%TF.SameCoordinates,Original*%
%TF.FileFunction,Legend,Top*%
%TF.FilePolarity,Positive*%
%FSLAX46Y46*%
G04 Gerber Fmt 4.6, Leading zero omitted, Abs format (unit mm)*
G04 Created by KiCad (PCBNEW (5.1.9-0-10_14)) date 2021-03-16 22:34:44*
%MOMM*%
%LPD*%
G01*
G04 APERTURE LIST*
%ADD10C,0.150000*%
%ADD11C,0.120000*%
G04 APERTURE END LIST*
D10*
X223028571Y-47947619D02*
X223076190Y-47900000D01*
X223171428Y-47852380D01*
X223409523Y-47852380D01*
X223504761Y-47900000D01*
X223552380Y-47947619D01*
X223600000Y-48042857D01*
X223600000Y-48138095D01*
X223552380Y-48280952D01*
X222980952Y-48852380D01*
X223600000Y-48852380D01*
X224457142Y-48185714D02*
X224457142Y-48852380D01*
X224219047Y-47804761D02*
X223980952Y-48519047D01*
X224600000Y-48519047D01*
X225457142Y-48852380D02*
X224980952Y-48852380D01*
X224980952Y-47852380D01*
X226361904Y-48757142D02*
X226314285Y-48804761D01*
X226171428Y-48852380D01*
X226076190Y-48852380D01*
X225933333Y-48804761D01*
X225838095Y-48709523D01*
X225790476Y-48614285D01*
X225742857Y-48423809D01*
X225742857Y-48280952D01*
X225790476Y-48090476D01*
X225838095Y-47995238D01*
X225933333Y-47900000D01*
X226076190Y-47852380D01*
X226171428Y-47852380D01*
X226314285Y-47900000D01*
X226361904Y-47947619D01*
X227314285Y-48852380D02*
X226742857Y-48852380D01*
X227028571Y-48852380D02*
X227028571Y-47852380D01*
X226933333Y-47995238D01*
X226838095Y-48090476D01*
X226742857Y-48138095D01*
X227933333Y-47852380D02*
X228028571Y-47852380D01*
X228123809Y-47900000D01*
X228171428Y-47947619D01*
X228219047Y-48042857D01*
X228266666Y-48233333D01*
X228266666Y-48471428D01*
X228219047Y-48661904D01*
X228171428Y-48757142D01*
X228123809Y-48804761D01*
X228028571Y-48852380D01*
X227933333Y-48852380D01*
X227838095Y-48804761D01*
X227790476Y-48757142D01*
X227742857Y-48661904D01*
X227695238Y-48471428D01*
X227695238Y-48233333D01*
X227742857Y-48042857D01*
X227790476Y-47947619D01*
X227838095Y-47900000D01*
X227933333Y-47852380D01*
X228647619Y-47947619D02*
X228695238Y-47900000D01*
X228790476Y-47852380D01*
X229028571Y-47852380D01*
X229123809Y-47900000D01*
X229171428Y-47947619D01*
X229219047Y-48042857D01*
X229219047Y-48138095D01*
X229171428Y-48280952D01*
X228600000Y-48852380D01*
X229219047Y-48852380D01*
X230123809Y-47852380D02*
X229647619Y-47852380D01*
X229600000Y-48328571D01*
X229647619Y-48280952D01*
X229742857Y-48233333D01*
X229980952Y-48233333D01*
X230076190Y-48280952D01*
X230123809Y-48328571D01*
X230171428Y-48423809D01*
X230171428Y-48661904D01*
X230123809Y-48757142D01*
X230076190Y-48804761D01*
X229980952Y-48852380D01*
X229742857Y-48852380D01*
X229647619Y-48804761D01*
X229600000Y-48757142D01*
X39280952Y-119852380D02*
X39280952Y-120566666D01*
X39233333Y-120709523D01*
X39138095Y-120804761D01*
X38995238Y-120852380D01*
X38900000Y-120852380D01*
X40233333Y-120852380D02*
X39757142Y-120852380D01*
X39757142Y-119852380D01*
X41138095Y-120757142D02*
X41090476Y-120804761D01*
X40947619Y-120852380D01*
X40852380Y-120852380D01*
X40709523Y-120804761D01*
X40614285Y-120709523D01*
X40566666Y-120614285D01*
X40519047Y-120423809D01*
X40519047Y-120280952D01*
X40566666Y-120090476D01*
X40614285Y-119995238D01*
X40709523Y-119900000D01*
X40852380Y-119852380D01*
X40947619Y-119852380D01*
X41090476Y-119900000D01*
X41138095Y-119947619D01*
X41852380Y-119852380D02*
X41852380Y-120566666D01*
X41804761Y-120709523D01*
X41709523Y-120804761D01*
X41566666Y-120852380D01*
X41471428Y-120852380D01*
X42804761Y-120852380D02*
X42328571Y-120852380D01*
X42328571Y-119852380D01*
X43709523Y-120757142D02*
X43661904Y-120804761D01*
X43519047Y-120852380D01*
X43423809Y-120852380D01*
X43280952Y-120804761D01*
X43185714Y-120709523D01*
X43138095Y-120614285D01*
X43090476Y-120423809D01*
X43090476Y-120280952D01*
X43138095Y-120090476D01*
X43185714Y-119995238D01*
X43280952Y-119900000D01*
X43423809Y-119852380D01*
X43519047Y-119852380D01*
X43661904Y-119900000D01*
X43709523Y-119947619D01*
X44423809Y-119852380D02*
X44423809Y-120566666D01*
X44376190Y-120709523D01*
X44280952Y-120804761D01*
X44138095Y-120852380D01*
X44042857Y-120852380D01*
X45376190Y-120852380D02*
X44900000Y-120852380D01*
X44900000Y-119852380D01*
X46280952Y-120757142D02*
X46233333Y-120804761D01*
X46090476Y-120852380D01*
X45995238Y-120852380D01*
X45852380Y-120804761D01*
X45757142Y-120709523D01*
X45709523Y-120614285D01*
X45661904Y-120423809D01*
X45661904Y-120280952D01*
X45709523Y-120090476D01*
X45757142Y-119995238D01*
X45852380Y-119900000D01*
X45995238Y-119852380D01*
X46090476Y-119852380D01*
X46233333Y-119900000D01*
X46280952Y-119947619D01*
X46995238Y-119852380D02*
X46995238Y-120566666D01*
X46947619Y-120709523D01*
X46852380Y-120804761D01*
X46709523Y-120852380D01*
X46614285Y-120852380D01*
X47947619Y-120852380D02*
X47471428Y-120852380D01*
X47471428Y-119852380D01*
X48852380Y-120757142D02*
X48804761Y-120804761D01*
X48661904Y-120852380D01*
X48566666Y-120852380D01*
X48423809Y-120804761D01*
X48328571Y-120709523D01*
X48280952Y-120614285D01*
X48233333Y-120423809D01*
X48233333Y-120280952D01*
X48280952Y-120090476D01*
X48328571Y-119995238D01*
X48423809Y-119900000D01*
X48566666Y-119852380D01*
X48661904Y-119852380D01*
X48804761Y-119900000D01*
X48852380Y-119947619D01*
X119885714Y-35957142D02*
X119838095Y-36004761D01*
X119695238Y-36052380D01*
X119600000Y-36052380D01*
X119457142Y-36004761D01*
X119361904Y-35909523D01*
X119314285Y-35814285D01*
X119266666Y-35623809D01*
X119266666Y-35480952D01*
X119314285Y-35290476D01*
X119361904Y-35195238D01*
X119457142Y-35100000D01*
X119600000Y-35052380D01*
X119695238Y-35052380D01*
X119838095Y-35100000D01*
X119885714Y-35147619D01*
X120171428Y-35052380D02*
X120504761Y-36052380D01*
X120838095Y-35052380D01*
X121171428Y-35671428D02*
X121933333Y-35671428D01*
X122361904Y-35147619D02*
X122409523Y-35100000D01*
X122504761Y-35052380D01*
X122742857Y-35052380D01*
X122838095Y-35100000D01*
X122885714Y-35147619D01*
X122933333Y-35242857D01*
X122933333Y-35338095D01*
X122885714Y-35480952D01*
X122314285Y-36052380D01*
X122933333Y-36052380D01*
X111185714Y-35857142D02*
X111138095Y-35904761D01*
X110995238Y-35952380D01*
X110900000Y-35952380D01*
X110757142Y-35904761D01*
X110661904Y-35809523D01*
X110614285Y-35714285D01*
X110566666Y-35523809D01*
X110566666Y-35380952D01*
X110614285Y-35190476D01*
X110661904Y-35095238D01*
X110757142Y-35000000D01*
X110900000Y-34952380D01*
X110995238Y-34952380D01*
X111138095Y-35000000D01*
X111185714Y-35047619D01*
X111471428Y-34952380D02*
X111804761Y-35952380D01*
X112138095Y-34952380D01*
X112471428Y-35571428D02*
X113233333Y-35571428D01*
X114233333Y-35952380D02*
X113661904Y-35952380D01*
X113947619Y-35952380D02*
X113947619Y-34952380D01*
X113852380Y-35095238D01*
X113757142Y-35190476D01*
X113661904Y-35238095D01*
X101247619Y-35979761D02*
X101390476Y-36027380D01*
X101628571Y-36027380D01*
X101723809Y-35979761D01*
X101771428Y-35932142D01*
X101819047Y-35836904D01*
X101819047Y-35741666D01*
X101771428Y-35646428D01*
X101723809Y-35598809D01*
X101628571Y-35551190D01*
X101438095Y-35503571D01*
X101342857Y-35455952D01*
X101295238Y-35408333D01*
X101247619Y-35313095D01*
X101247619Y-35217857D01*
X101295238Y-35122619D01*
X101342857Y-35075000D01*
X101438095Y-35027380D01*
X101676190Y-35027380D01*
X101819047Y-35075000D01*
X102247619Y-36027380D02*
X102247619Y-35027380D01*
X102628571Y-35027380D01*
X102723809Y-35075000D01*
X102771428Y-35122619D01*
X102819047Y-35217857D01*
X102819047Y-35360714D01*
X102771428Y-35455952D01*
X102723809Y-35503571D01*
X102628571Y-35551190D01*
X102247619Y-35551190D01*
X103247619Y-36027380D02*
X103247619Y-35027380D01*
X103485714Y-35027380D01*
X103628571Y-35075000D01*
X103723809Y-35170238D01*
X103771428Y-35265476D01*
X103819047Y-35455952D01*
X103819047Y-35598809D01*
X103771428Y-35789285D01*
X103723809Y-35884523D01*
X103628571Y-35979761D01*
X103485714Y-36027380D01*
X103247619Y-36027380D01*
X104247619Y-36027380D02*
X104247619Y-35027380D01*
X105057142Y-35503571D02*
X104723809Y-35503571D01*
X104723809Y-36027380D02*
X104723809Y-35027380D01*
X105200000Y-35027380D01*
X102580952Y-36677380D02*
X102771428Y-36677380D01*
X102866666Y-36725000D01*
X102961904Y-36820238D01*
X103009523Y-37010714D01*
X103009523Y-37344047D01*
X102961904Y-37534523D01*
X102866666Y-37629761D01*
X102771428Y-37677380D01*
X102580952Y-37677380D01*
X102485714Y-37629761D01*
X102390476Y-37534523D01*
X102342857Y-37344047D01*
X102342857Y-37010714D01*
X102390476Y-36820238D01*
X102485714Y-36725000D01*
X102580952Y-36677380D01*
X103438095Y-36677380D02*
X103438095Y-37486904D01*
X103485714Y-37582142D01*
X103533333Y-37629761D01*
X103628571Y-37677380D01*
X103819047Y-37677380D01*
X103914285Y-37629761D01*
X103961904Y-37582142D01*
X104009523Y-37486904D01*
X104009523Y-36677380D01*
X104342857Y-36677380D02*
X104914285Y-36677380D01*
X104628571Y-37677380D02*
X104628571Y-36677380D01*
X123419047Y-27171428D02*
X124180952Y-27171428D01*
X123800000Y-27552380D02*
X123800000Y-26790476D01*
X114619047Y-27071428D02*
X115380952Y-27071428D01*
X115000000Y-27452380D02*
X115000000Y-26690476D01*
X105819047Y-27071428D02*
X106580952Y-27071428D01*
X106200000Y-27452380D02*
X106200000Y-26690476D01*
X120619047Y-27171428D02*
X121380952Y-27171428D01*
X112019047Y-26971428D02*
X112780952Y-26971428D01*
X103119047Y-26971428D02*
X103880952Y-26971428D01*
D11*
%TO.C,R7*%
X205745000Y-142220000D02*
X205745000Y-139480000D01*
X205745000Y-139480000D02*
X199205000Y-139480000D01*
X199205000Y-139480000D02*
X199205000Y-142220000D01*
X199205000Y-142220000D02*
X205745000Y-142220000D01*
X206515000Y-140850000D02*
X205745000Y-140850000D01*
X198435000Y-140850000D02*
X199205000Y-140850000D01*
%TO.C,R6*%
X205745000Y-83520000D02*
X205745000Y-80780000D01*
X205745000Y-80780000D02*
X199205000Y-80780000D01*
X199205000Y-80780000D02*
X199205000Y-83520000D01*
X199205000Y-83520000D02*
X205745000Y-83520000D01*
X206515000Y-82150000D02*
X205745000Y-82150000D01*
X198435000Y-82150000D02*
X199205000Y-82150000D01*
%TO.C,R9*%
X248045000Y-83520000D02*
X248045000Y-80780000D01*
X248045000Y-80780000D02*
X241505000Y-80780000D01*
X241505000Y-80780000D02*
X241505000Y-83520000D01*
X241505000Y-83520000D02*
X248045000Y-83520000D01*
X248815000Y-82150000D02*
X248045000Y-82150000D01*
X240735000Y-82150000D02*
X241505000Y-82150000D01*
%TO.C,R10*%
X264645000Y-83520000D02*
X264645000Y-80780000D01*
X264645000Y-80780000D02*
X258105000Y-80780000D01*
X258105000Y-80780000D02*
X258105000Y-83520000D01*
X258105000Y-83520000D02*
X264645000Y-83520000D01*
X265415000Y-82150000D02*
X264645000Y-82150000D01*
X257335000Y-82150000D02*
X258105000Y-82150000D01*
%TO.C,R11*%
X281245000Y-83520000D02*
X281245000Y-80780000D01*
X281245000Y-80780000D02*
X274705000Y-80780000D01*
X274705000Y-80780000D02*
X274705000Y-83520000D01*
X274705000Y-83520000D02*
X281245000Y-83520000D01*
X282015000Y-82150000D02*
X281245000Y-82150000D01*
X273935000Y-82150000D02*
X274705000Y-82150000D01*
%TO.C,R15*%
X281245000Y-142220000D02*
X281245000Y-139480000D01*
X281245000Y-139480000D02*
X274705000Y-139480000D01*
X274705000Y-139480000D02*
X274705000Y-142220000D01*
X274705000Y-142220000D02*
X281245000Y-142220000D01*
X282015000Y-140850000D02*
X281245000Y-140850000D01*
X273935000Y-140850000D02*
X274705000Y-140850000D01*
%TO.C,R14*%
X264645000Y-142220000D02*
X264645000Y-139480000D01*
X264645000Y-139480000D02*
X258105000Y-139480000D01*
X258105000Y-139480000D02*
X258105000Y-142220000D01*
X258105000Y-142220000D02*
X264645000Y-142220000D01*
X265415000Y-140850000D02*
X264645000Y-140850000D01*
X257335000Y-140850000D02*
X258105000Y-140850000D01*
%TO.C,R13*%
X248045000Y-142220000D02*
X248045000Y-139480000D01*
X248045000Y-139480000D02*
X241505000Y-139480000D01*
X241505000Y-139480000D02*
X241505000Y-142220000D01*
X241505000Y-142220000D02*
X248045000Y-142220000D01*
X248815000Y-140850000D02*
X248045000Y-140850000D01*
X240735000Y-140850000D02*
X241505000Y-140850000D01*
%TO.C,R12*%
X231445000Y-142220000D02*
X231445000Y-139480000D01*
X231445000Y-139480000D02*
X224905000Y-139480000D01*
X224905000Y-139480000D02*
X224905000Y-142220000D01*
X224905000Y-142220000D02*
X231445000Y-142220000D01*
X232215000Y-140850000D02*
X231445000Y-140850000D01*
X224135000Y-140850000D02*
X224905000Y-140850000D01*
%TO.C,R8*%
X231445000Y-83520000D02*
X231445000Y-80780000D01*
X231445000Y-80780000D02*
X224905000Y-80780000D01*
X224905000Y-80780000D02*
X224905000Y-83520000D01*
X224905000Y-83520000D02*
X231445000Y-83520000D01*
X232215000Y-82150000D02*
X231445000Y-82150000D01*
X224135000Y-82150000D02*
X224905000Y-82150000D01*
%TO.C,SW22*%
X271850000Y-131730000D02*
X271850000Y-119430000D01*
X276430000Y-119430000D02*
X279570000Y-119430000D01*
X284150000Y-119430000D02*
X284150000Y-131730000D01*
X274570000Y-131730000D02*
X271850000Y-131730000D01*
X282619050Y-125480000D02*
G75*
G03*
X282619050Y-125480000I-4579050J0D01*
G01*
X284150000Y-131730000D02*
X281430000Y-131730000D01*
X279570000Y-131730000D02*
X276430000Y-131730000D01*
X281430000Y-119430000D02*
X284150000Y-119430000D01*
X271850000Y-119430000D02*
X274570000Y-119430000D01*
%TO.C,SW18*%
X271850000Y-105015000D02*
X271850000Y-92715000D01*
X276430000Y-92715000D02*
X279570000Y-92715000D01*
X284150000Y-92715000D02*
X284150000Y-105015000D01*
X274570000Y-105015000D02*
X271850000Y-105015000D01*
X282619050Y-98765000D02*
G75*
G03*
X282619050Y-98765000I-4579050J0D01*
G01*
X284150000Y-105015000D02*
X281430000Y-105015000D01*
X279570000Y-105015000D02*
X276430000Y-105015000D01*
X281430000Y-92715000D02*
X284150000Y-92715000D01*
X271850000Y-92715000D02*
X274570000Y-92715000D01*
%TO.C,SW21*%
X255250000Y-131730000D02*
X255250000Y-119430000D01*
X259830000Y-119430000D02*
X262970000Y-119430000D01*
X267550000Y-119430000D02*
X267550000Y-131730000D01*
X257970000Y-131730000D02*
X255250000Y-131730000D01*
X266019050Y-125480000D02*
G75*
G03*
X266019050Y-125480000I-4579050J0D01*
G01*
X267550000Y-131730000D02*
X264830000Y-131730000D01*
X262970000Y-131730000D02*
X259830000Y-131730000D01*
X264830000Y-119430000D02*
X267550000Y-119430000D01*
X255250000Y-119430000D02*
X257970000Y-119430000D01*
%TO.C,SW20*%
X238650000Y-131730000D02*
X238650000Y-119430000D01*
X243230000Y-119430000D02*
X246370000Y-119430000D01*
X250950000Y-119430000D02*
X250950000Y-131730000D01*
X241370000Y-131730000D02*
X238650000Y-131730000D01*
X249419050Y-125480000D02*
G75*
G03*
X249419050Y-125480000I-4579050J0D01*
G01*
X250950000Y-131730000D02*
X248230000Y-131730000D01*
X246370000Y-131730000D02*
X243230000Y-131730000D01*
X248230000Y-119430000D02*
X250950000Y-119430000D01*
X238650000Y-119430000D02*
X241370000Y-119430000D01*
%TO.C,SW19*%
X222050000Y-131730000D02*
X222050000Y-119430000D01*
X226630000Y-119430000D02*
X229770000Y-119430000D01*
X234350000Y-119430000D02*
X234350000Y-131730000D01*
X224770000Y-131730000D02*
X222050000Y-131730000D01*
X232819050Y-125480000D02*
G75*
G03*
X232819050Y-125480000I-4579050J0D01*
G01*
X234350000Y-131730000D02*
X231630000Y-131730000D01*
X229770000Y-131730000D02*
X226630000Y-131730000D01*
X231630000Y-119430000D02*
X234350000Y-119430000D01*
X222050000Y-119430000D02*
X224770000Y-119430000D01*
%TO.C,SW17*%
X255250000Y-105015000D02*
X255250000Y-92715000D01*
X259830000Y-92715000D02*
X262970000Y-92715000D01*
X267550000Y-92715000D02*
X267550000Y-105015000D01*
X257970000Y-105015000D02*
X255250000Y-105015000D01*
X266019050Y-98765000D02*
G75*
G03*
X266019050Y-98765000I-4579050J0D01*
G01*
X267550000Y-105015000D02*
X264830000Y-105015000D01*
X262970000Y-105015000D02*
X259830000Y-105015000D01*
X264830000Y-92715000D02*
X267550000Y-92715000D01*
X255250000Y-92715000D02*
X257970000Y-92715000D01*
%TO.C,SW16*%
X238650000Y-105015000D02*
X238650000Y-92715000D01*
X243230000Y-92715000D02*
X246370000Y-92715000D01*
X250950000Y-92715000D02*
X250950000Y-105015000D01*
X241370000Y-105015000D02*
X238650000Y-105015000D01*
X249419050Y-98765000D02*
G75*
G03*
X249419050Y-98765000I-4579050J0D01*
G01*
X250950000Y-105015000D02*
X248230000Y-105015000D01*
X246370000Y-105015000D02*
X243230000Y-105015000D01*
X248230000Y-92715000D02*
X250950000Y-92715000D01*
X238650000Y-92715000D02*
X241370000Y-92715000D01*
%TO.C,SW15*%
X222050000Y-105015000D02*
X222050000Y-92715000D01*
X226630000Y-92715000D02*
X229770000Y-92715000D01*
X234350000Y-92715000D02*
X234350000Y-105015000D01*
X224770000Y-105015000D02*
X222050000Y-105015000D01*
X232819050Y-98765000D02*
G75*
G03*
X232819050Y-98765000I-4579050J0D01*
G01*
X234350000Y-105015000D02*
X231630000Y-105015000D01*
X229770000Y-105015000D02*
X226630000Y-105015000D01*
X231630000Y-92715000D02*
X234350000Y-92715000D01*
X222050000Y-92715000D02*
X224770000Y-92715000D01*
%TO.C,SW14*%
X196350000Y-131730000D02*
X196350000Y-119430000D01*
X200930000Y-119430000D02*
X204070000Y-119430000D01*
X208650000Y-119430000D02*
X208650000Y-131730000D01*
X199070000Y-131730000D02*
X196350000Y-131730000D01*
X207119050Y-125480000D02*
G75*
G03*
X207119050Y-125480000I-4579050J0D01*
G01*
X208650000Y-131730000D02*
X205930000Y-131730000D01*
X204070000Y-131730000D02*
X200930000Y-131730000D01*
X205930000Y-119430000D02*
X208650000Y-119430000D01*
X196350000Y-119430000D02*
X199070000Y-119430000D01*
%TO.C,SW13*%
X196350000Y-105015000D02*
X196350000Y-92715000D01*
X200930000Y-92715000D02*
X204070000Y-92715000D01*
X208650000Y-92715000D02*
X208650000Y-105015000D01*
X199070000Y-105015000D02*
X196350000Y-105015000D01*
X207119050Y-98765000D02*
G75*
G03*
X207119050Y-98765000I-4579050J0D01*
G01*
X208650000Y-105015000D02*
X205930000Y-105015000D01*
X204070000Y-105015000D02*
X200930000Y-105015000D01*
X205930000Y-92715000D02*
X208650000Y-92715000D01*
X196350000Y-92715000D02*
X199070000Y-92715000D01*
%TO.C,SW8*%
X183055000Y-135850000D02*
G75*
G03*
X183055000Y-135850000I-3000000J0D01*
G01*
X181855000Y-129550000D02*
X186755000Y-129550000D01*
X186755000Y-142150000D02*
X181855000Y-142150000D01*
X178255000Y-142150000D02*
X173355000Y-142150000D01*
X173355000Y-142150000D02*
X173355000Y-139350000D01*
X178155000Y-129550000D02*
X173355000Y-129550000D01*
X173355000Y-129550000D02*
X173355000Y-132050000D01*
X172555000Y-132050000D02*
X172255000Y-131750000D01*
X172255000Y-131750000D02*
X172855000Y-131750000D01*
X172855000Y-131750000D02*
X172555000Y-132050000D01*
X186755000Y-129550000D02*
X186755000Y-132150000D01*
X186755000Y-134550000D02*
X186755000Y-137150000D01*
X186755000Y-139550000D02*
X186755000Y-142150000D01*
X180055000Y-135350000D02*
X180055000Y-136350000D01*
X179555000Y-135850000D02*
X180555000Y-135850000D01*
%TO.C,SW6*%
X157055000Y-135850000D02*
G75*
G03*
X157055000Y-135850000I-3000000J0D01*
G01*
X155855000Y-129550000D02*
X160755000Y-129550000D01*
X160755000Y-142150000D02*
X155855000Y-142150000D01*
X152255000Y-142150000D02*
X147355000Y-142150000D01*
X147355000Y-142150000D02*
X147355000Y-139350000D01*
X152155000Y-129550000D02*
X147355000Y-129550000D01*
X147355000Y-129550000D02*
X147355000Y-132050000D01*
X146555000Y-132050000D02*
X146255000Y-131750000D01*
X146255000Y-131750000D02*
X146855000Y-131750000D01*
X146855000Y-131750000D02*
X146555000Y-132050000D01*
X160755000Y-129550000D02*
X160755000Y-132150000D01*
X160755000Y-134550000D02*
X160755000Y-137150000D01*
X160755000Y-139550000D02*
X160755000Y-142150000D01*
X154055000Y-135350000D02*
X154055000Y-136350000D01*
X153555000Y-135850000D02*
X154555000Y-135850000D01*
%TO.C,SW4*%
X131055000Y-135850000D02*
G75*
G03*
X131055000Y-135850000I-3000000J0D01*
G01*
X129855000Y-129550000D02*
X134755000Y-129550000D01*
X134755000Y-142150000D02*
X129855000Y-142150000D01*
X126255000Y-142150000D02*
X121355000Y-142150000D01*
X121355000Y-142150000D02*
X121355000Y-139350000D01*
X126155000Y-129550000D02*
X121355000Y-129550000D01*
X121355000Y-129550000D02*
X121355000Y-132050000D01*
X120555000Y-132050000D02*
X120255000Y-131750000D01*
X120255000Y-131750000D02*
X120855000Y-131750000D01*
X120855000Y-131750000D02*
X120555000Y-132050000D01*
X134755000Y-129550000D02*
X134755000Y-132150000D01*
X134755000Y-134550000D02*
X134755000Y-137150000D01*
X134755000Y-139550000D02*
X134755000Y-142150000D01*
X128055000Y-135350000D02*
X128055000Y-136350000D01*
X127555000Y-135850000D02*
X128555000Y-135850000D01*
%TO.C,SW2*%
X105055000Y-135850000D02*
G75*
G03*
X105055000Y-135850000I-3000000J0D01*
G01*
X103855000Y-129550000D02*
X108755000Y-129550000D01*
X108755000Y-142150000D02*
X103855000Y-142150000D01*
X100255000Y-142150000D02*
X95355000Y-142150000D01*
X95355000Y-142150000D02*
X95355000Y-139350000D01*
X100155000Y-129550000D02*
X95355000Y-129550000D01*
X95355000Y-129550000D02*
X95355000Y-132050000D01*
X94555000Y-132050000D02*
X94255000Y-131750000D01*
X94255000Y-131750000D02*
X94855000Y-131750000D01*
X94855000Y-131750000D02*
X94555000Y-132050000D01*
X108755000Y-129550000D02*
X108755000Y-132150000D01*
X108755000Y-134550000D02*
X108755000Y-137150000D01*
X108755000Y-139550000D02*
X108755000Y-142150000D01*
X102055000Y-135350000D02*
X102055000Y-136350000D01*
X101555000Y-135850000D02*
X102555000Y-135850000D01*
%TO.C,SW7*%
X183055000Y-87150000D02*
G75*
G03*
X183055000Y-87150000I-3000000J0D01*
G01*
X181855000Y-80850000D02*
X186755000Y-80850000D01*
X186755000Y-93450000D02*
X181855000Y-93450000D01*
X178255000Y-93450000D02*
X173355000Y-93450000D01*
X173355000Y-93450000D02*
X173355000Y-90650000D01*
X178155000Y-80850000D02*
X173355000Y-80850000D01*
X173355000Y-80850000D02*
X173355000Y-83350000D01*
X172555000Y-83350000D02*
X172255000Y-83050000D01*
X172255000Y-83050000D02*
X172855000Y-83050000D01*
X172855000Y-83050000D02*
X172555000Y-83350000D01*
X186755000Y-80850000D02*
X186755000Y-83450000D01*
X186755000Y-85850000D02*
X186755000Y-88450000D01*
X186755000Y-90850000D02*
X186755000Y-93450000D01*
X180055000Y-86650000D02*
X180055000Y-87650000D01*
X179555000Y-87150000D02*
X180555000Y-87150000D01*
%TO.C,SW5*%
X157055000Y-87150000D02*
G75*
G03*
X157055000Y-87150000I-3000000J0D01*
G01*
X155855000Y-80850000D02*
X160755000Y-80850000D01*
X160755000Y-93450000D02*
X155855000Y-93450000D01*
X152255000Y-93450000D02*
X147355000Y-93450000D01*
X147355000Y-93450000D02*
X147355000Y-90650000D01*
X152155000Y-80850000D02*
X147355000Y-80850000D01*
X147355000Y-80850000D02*
X147355000Y-83350000D01*
X146555000Y-83350000D02*
X146255000Y-83050000D01*
X146255000Y-83050000D02*
X146855000Y-83050000D01*
X146855000Y-83050000D02*
X146555000Y-83350000D01*
X160755000Y-80850000D02*
X160755000Y-83450000D01*
X160755000Y-85850000D02*
X160755000Y-88450000D01*
X160755000Y-90850000D02*
X160755000Y-93450000D01*
X154055000Y-86650000D02*
X154055000Y-87650000D01*
X153555000Y-87150000D02*
X154555000Y-87150000D01*
%TO.C,SW3*%
X131055000Y-87150000D02*
G75*
G03*
X131055000Y-87150000I-3000000J0D01*
G01*
X129855000Y-80850000D02*
X134755000Y-80850000D01*
X134755000Y-93450000D02*
X129855000Y-93450000D01*
X126255000Y-93450000D02*
X121355000Y-93450000D01*
X121355000Y-93450000D02*
X121355000Y-90650000D01*
X126155000Y-80850000D02*
X121355000Y-80850000D01*
X121355000Y-80850000D02*
X121355000Y-83350000D01*
X120555000Y-83350000D02*
X120255000Y-83050000D01*
X120255000Y-83050000D02*
X120855000Y-83050000D01*
X120855000Y-83050000D02*
X120555000Y-83350000D01*
X134755000Y-80850000D02*
X134755000Y-83450000D01*
X134755000Y-85850000D02*
X134755000Y-88450000D01*
X134755000Y-90850000D02*
X134755000Y-93450000D01*
X128055000Y-86650000D02*
X128055000Y-87650000D01*
X127555000Y-87150000D02*
X128555000Y-87150000D01*
%TO.C,SW1*%
X105055000Y-87150000D02*
G75*
G03*
X105055000Y-87150000I-3000000J0D01*
G01*
X103855000Y-80850000D02*
X108755000Y-80850000D01*
X108755000Y-93450000D02*
X103855000Y-93450000D01*
X100255000Y-93450000D02*
X95355000Y-93450000D01*
X95355000Y-93450000D02*
X95355000Y-90650000D01*
X100155000Y-80850000D02*
X95355000Y-80850000D01*
X95355000Y-80850000D02*
X95355000Y-83350000D01*
X94555000Y-83350000D02*
X94255000Y-83050000D01*
X94255000Y-83050000D02*
X94855000Y-83050000D01*
X94855000Y-83050000D02*
X94555000Y-83350000D01*
X108755000Y-80850000D02*
X108755000Y-83450000D01*
X108755000Y-85850000D02*
X108755000Y-88450000D01*
X108755000Y-90850000D02*
X108755000Y-93450000D01*
X102055000Y-86650000D02*
X102055000Y-87650000D01*
X101555000Y-87150000D02*
X102555000Y-87150000D01*
%TO.C,R2*%
X232500000Y-39020000D02*
X232500000Y-38250000D01*
X232500000Y-30940000D02*
X232500000Y-31710000D01*
X233870000Y-38250000D02*
X233870000Y-31710000D01*
X231130000Y-38250000D02*
X233870000Y-38250000D01*
X231130000Y-31710000D02*
X231130000Y-38250000D01*
X233870000Y-31710000D02*
X231130000Y-31710000D01*
%TO.C,SW0*%
X46924999Y-70300000D02*
G75*
G03*
X46924999Y-70300000I-3000000J0D01*
G01*
X45724999Y-64000000D02*
X50624999Y-64000000D01*
X50624999Y-76600000D02*
X45724999Y-76600000D01*
X42124999Y-76600000D02*
X37224999Y-76600000D01*
X37224999Y-76600000D02*
X37224999Y-73800000D01*
X42024999Y-64000000D02*
X37224999Y-64000000D01*
X37224999Y-64000000D02*
X37224999Y-66500000D01*
X36424999Y-66500000D02*
X36124999Y-66200000D01*
X36124999Y-66200000D02*
X36724999Y-66200000D01*
X36724999Y-66200000D02*
X36424999Y-66500000D01*
X50624999Y-64000000D02*
X50624999Y-66600000D01*
X50624999Y-69000000D02*
X50624999Y-71600000D01*
X50624999Y-74000000D02*
X50624999Y-76600000D01*
X43924999Y-69800000D02*
X43924999Y-70800000D01*
X43424999Y-70300000D02*
X44424999Y-70300000D01*
%TO.C,J3*%
X185120000Y-46889999D02*
X185120000Y-29989999D01*
X203120000Y-46889999D02*
X185120000Y-46889999D01*
X203120000Y-29989999D02*
X203120000Y-46889999D01*
X204620000Y-29989999D02*
X204620000Y-27989999D01*
X183620000Y-29989999D02*
X204620000Y-29989999D01*
X183620000Y-27989999D02*
X183620000Y-29989999D01*
X204620000Y-27989999D02*
X183620000Y-27989999D01*
%TO.C,J2*%
X164020000Y-46889999D02*
X164020000Y-29989999D01*
X182020000Y-46889999D02*
X164020000Y-46889999D01*
X182020000Y-29989999D02*
X182020000Y-46889999D01*
X183520000Y-29989999D02*
X183520000Y-27989999D01*
X162520000Y-29989999D02*
X183520000Y-29989999D01*
X162520000Y-27989999D02*
X162520000Y-29989999D01*
X183520000Y-27989999D02*
X162520000Y-27989999D01*
%TO.C,J1*%
X142920000Y-46889999D02*
X142920000Y-29989999D01*
X160920000Y-46889999D02*
X142920000Y-46889999D01*
X160920000Y-29989999D02*
X160920000Y-46889999D01*
X162420000Y-29989999D02*
X162420000Y-27989999D01*
X141420000Y-29989999D02*
X162420000Y-29989999D01*
X141420000Y-27989999D02*
X141420000Y-29989999D01*
X162420000Y-27989999D02*
X141420000Y-27989999D01*
%TO.C,R5*%
X217700000Y-30880000D02*
X217700000Y-31650000D01*
X217700000Y-38960000D02*
X217700000Y-38190000D01*
X216330000Y-31650000D02*
X216330000Y-38190000D01*
X219070000Y-31650000D02*
X216330000Y-31650000D01*
X219070000Y-38190000D02*
X219070000Y-31650000D01*
X216330000Y-38190000D02*
X219070000Y-38190000D01*
%TO.C,R4*%
X222600000Y-30880000D02*
X222600000Y-31650000D01*
X222600000Y-38960000D02*
X222600000Y-38190000D01*
X221230000Y-31650000D02*
X221230000Y-38190000D01*
X223970000Y-31650000D02*
X221230000Y-31650000D01*
X223970000Y-38190000D02*
X223970000Y-31650000D01*
X221230000Y-38190000D02*
X223970000Y-38190000D01*
%TO.C,R3*%
X227700000Y-30880000D02*
X227700000Y-31650000D01*
X227700000Y-38960000D02*
X227700000Y-38190000D01*
X226330000Y-31650000D02*
X226330000Y-38190000D01*
X229070000Y-31650000D02*
X226330000Y-31650000D01*
X229070000Y-38190000D02*
X229070000Y-31650000D01*
X226330000Y-38190000D02*
X229070000Y-38190000D01*
%TO.C,R1*%
X237500000Y-39020000D02*
X237500000Y-38250000D01*
X237500000Y-30940000D02*
X237500000Y-31710000D01*
X238870000Y-38250000D02*
X238870000Y-31710000D01*
X236130000Y-38250000D02*
X238870000Y-38250000D01*
X236130000Y-31710000D02*
X236130000Y-38250000D01*
X238870000Y-31710000D02*
X236130000Y-31710000D01*
%TO.C,DS4*%
X167400000Y-124200000D02*
X192400000Y-124200000D01*
X192400000Y-124200000D02*
X192400000Y-99200000D01*
X192400000Y-99200000D02*
X167400000Y-99200000D01*
X167400000Y-99200000D02*
X167400000Y-124200000D01*
%TO.C,DS3*%
X141400000Y-124200000D02*
X166400000Y-124200000D01*
X166400000Y-124200000D02*
X166400000Y-99200000D01*
X166400000Y-99200000D02*
X141400000Y-99200000D01*
X141400000Y-99200000D02*
X141400000Y-124200000D01*
%TO.C,DS2*%
X115400000Y-124200000D02*
X140400000Y-124200000D01*
X140400000Y-124200000D02*
X140400000Y-99200000D01*
X140400000Y-99200000D02*
X115400000Y-99200000D01*
X115400000Y-99200000D02*
X115400000Y-124200000D01*
%TO.C,DS1*%
X89400000Y-124200000D02*
X114400000Y-124200000D01*
X114400000Y-124200000D02*
X114400000Y-99200000D01*
X114400000Y-99200000D02*
X89400000Y-99200000D01*
X89400000Y-99200000D02*
X89400000Y-124200000D01*
%TO.C,U5*%
X53790000Y-48120000D02*
X84270000Y-48120000D01*
X53790000Y-27800000D02*
X53790000Y-48120000D01*
X84270000Y-27800000D02*
X53790000Y-27800000D01*
X84270000Y-48120000D02*
X84270000Y-27800000D01*
%TO.C,U7*%
X284280000Y-28009999D02*
X246180000Y-28009999D01*
X284280000Y-53409999D02*
X284300000Y-43229999D01*
X246180000Y-53409999D02*
X284280000Y-53409999D01*
X246180000Y-28009999D02*
X246180000Y-53409999D01*
X286840000Y-38149999D02*
X286840000Y-43229999D01*
X286840000Y-43229999D02*
X269060000Y-43229999D01*
X269060000Y-43229999D02*
X269060000Y-38149999D01*
X269060000Y-38149999D02*
X286840000Y-38149999D01*
X284300000Y-38149999D02*
X284280000Y-28009999D01*
%TO.C,U9*%
X242380000Y-50510000D02*
X242380000Y-48860000D01*
X234640000Y-50510000D02*
X242380000Y-50510000D01*
X234640000Y-45210000D02*
X234640000Y-50510000D01*
X242380000Y-45210000D02*
X234640000Y-45210000D01*
X242380000Y-46860000D02*
X242380000Y-45210000D01*
X242380000Y-48860000D02*
G75*
G02*
X242380000Y-46860000I0J1000000D01*
G01*
%TO.C,U8*%
X232230000Y-50760000D02*
X232230000Y-49110000D01*
X221950000Y-50760000D02*
X232230000Y-50760000D01*
X221950000Y-45460000D02*
X221950000Y-50760000D01*
X232230000Y-45460000D02*
X221950000Y-45460000D01*
X232230000Y-47110000D02*
X232230000Y-45460000D01*
X232230000Y-49110000D02*
G75*
G02*
X232230000Y-47110000I0J1000000D01*
G01*
D10*
%TO.C,U6*%
X220944000Y-72384000D02*
X216118000Y-72384000D01*
X216118000Y-72384000D02*
X216118000Y-57144000D01*
X216118000Y-57144000D02*
X220944000Y-57144000D01*
X220944000Y-57144000D02*
X220944000Y-72384000D01*
X283174000Y-67050000D02*
X276570000Y-67050000D01*
X276570000Y-67050000D02*
X276570000Y-61970000D01*
X276570000Y-61970000D02*
X283174000Y-61970000D01*
X283174000Y-61970000D02*
X283174000Y-67050000D01*
X221198000Y-72384000D02*
X282920000Y-72384000D01*
X282920000Y-72384000D02*
X282920000Y-57144000D01*
X282920000Y-57144000D02*
X221198000Y-57144000D01*
X221198000Y-57144000D02*
X221198000Y-72384000D01*
D11*
%TO.C,U1*%
X19490000Y-27900000D02*
X14740000Y-27900000D01*
X32990000Y-27900000D02*
X28490000Y-27900000D01*
X19490000Y-26150000D02*
X19490000Y-31900000D01*
X28490000Y-26150000D02*
X19490000Y-26150000D01*
X28490000Y-31900000D02*
X28490000Y-26150000D01*
X19490000Y-31900000D02*
X28490000Y-31900000D01*
X14740000Y-47900000D02*
X32990000Y-47900000D01*
X32990000Y-47900000D02*
X32990000Y-27900000D01*
X14740000Y-27900000D02*
X14740000Y-47900000D01*
%TO.C,SW12*%
X61550000Y-119654999D02*
X64270000Y-119654999D01*
X71130000Y-119654999D02*
X73850000Y-119654999D01*
X69270000Y-131954999D02*
X66130000Y-131954999D01*
X73850000Y-131954999D02*
X71130000Y-131954999D01*
X72319050Y-125704999D02*
G75*
G03*
X72319050Y-125704999I-4579050J0D01*
G01*
X64270000Y-131954999D02*
X61550000Y-131954999D01*
X73850000Y-119654999D02*
X73850000Y-131954999D01*
X66130000Y-119654999D02*
X69270000Y-119654999D01*
X61550000Y-131954999D02*
X61550000Y-119654999D01*
%TO.C,SW11*%
X13500000Y-119654999D02*
X16220000Y-119654999D01*
X23080000Y-119654999D02*
X25800000Y-119654999D01*
X21220000Y-131954999D02*
X18080000Y-131954999D01*
X25800000Y-131954999D02*
X23080000Y-131954999D01*
X24269050Y-125704999D02*
G75*
G03*
X24269050Y-125704999I-4579050J0D01*
G01*
X16220000Y-131954999D02*
X13500000Y-131954999D01*
X25800000Y-119654999D02*
X25800000Y-131954999D01*
X18080000Y-119654999D02*
X21220000Y-119654999D01*
X13500000Y-131954999D02*
X13500000Y-119654999D01*
%TO.C,SW10*%
X61550000Y-92715000D02*
X64270000Y-92715000D01*
X71130000Y-92715000D02*
X73850000Y-92715000D01*
X69270000Y-105015000D02*
X66130000Y-105015000D01*
X73850000Y-105015000D02*
X71130000Y-105015000D01*
X72319050Y-98765000D02*
G75*
G03*
X72319050Y-98765000I-4579050J0D01*
G01*
X64270000Y-105015000D02*
X61550000Y-105015000D01*
X73850000Y-92715000D02*
X73850000Y-105015000D01*
X66130000Y-92715000D02*
X69270000Y-92715000D01*
X61550000Y-105015000D02*
X61550000Y-92715000D01*
%TO.C,SW9*%
X13500000Y-92715000D02*
X16220000Y-92715000D01*
X23080000Y-92715000D02*
X25800000Y-92715000D01*
X21220000Y-105015000D02*
X18080000Y-105015000D01*
X25800000Y-105015000D02*
X23080000Y-105015000D01*
X24269050Y-98765000D02*
G75*
G03*
X24269050Y-98765000I-4579050J0D01*
G01*
X16220000Y-105015000D02*
X13500000Y-105015000D01*
X25800000Y-92715000D02*
X25800000Y-105015000D01*
X18080000Y-92715000D02*
X21220000Y-92715000D01*
X13500000Y-105015000D02*
X13500000Y-92715000D01*
%TO.C,J6*%
X118550000Y-27865000D02*
X118550000Y-29115000D01*
X119800000Y-27865000D02*
X118550000Y-27865000D01*
X125700000Y-33365000D02*
X122650000Y-33365000D01*
X125700000Y-30415000D02*
X125700000Y-33365000D01*
X126450000Y-30415000D02*
X125700000Y-30415000D01*
X119600000Y-33365000D02*
X122650000Y-33365000D01*
X119600000Y-30415000D02*
X119600000Y-33365000D01*
X118850000Y-30415000D02*
X119600000Y-30415000D01*
X126450000Y-28165000D02*
X124650000Y-28165000D01*
X126450000Y-28915000D02*
X126450000Y-28165000D01*
X124650000Y-28915000D02*
X126450000Y-28915000D01*
X124650000Y-28165000D02*
X124650000Y-28915000D01*
X120650000Y-28165000D02*
X118850000Y-28165000D01*
X120650000Y-28915000D02*
X120650000Y-28165000D01*
X118850000Y-28915000D02*
X120650000Y-28915000D01*
X118850000Y-28165000D02*
X118850000Y-28915000D01*
X123150000Y-28165000D02*
X122150000Y-28165000D01*
X123150000Y-28915000D02*
X123150000Y-28165000D01*
X122150000Y-28915000D02*
X123150000Y-28915000D01*
X122150000Y-28165000D02*
X122150000Y-28915000D01*
X126460000Y-28155000D02*
X118840000Y-28155000D01*
X126460000Y-34125000D02*
X126460000Y-28155000D01*
X118840000Y-34125000D02*
X126460000Y-34125000D01*
X118840000Y-28155000D02*
X118840000Y-34125000D01*
%TO.C,J5*%
X109750000Y-27865000D02*
X109750000Y-29115000D01*
X111000000Y-27865000D02*
X109750000Y-27865000D01*
X116900000Y-33365000D02*
X113850000Y-33365000D01*
X116900000Y-30415000D02*
X116900000Y-33365000D01*
X117650000Y-30415000D02*
X116900000Y-30415000D01*
X110800000Y-33365000D02*
X113850000Y-33365000D01*
X110800000Y-30415000D02*
X110800000Y-33365000D01*
X110050000Y-30415000D02*
X110800000Y-30415000D01*
X117650000Y-28165000D02*
X115850000Y-28165000D01*
X117650000Y-28915000D02*
X117650000Y-28165000D01*
X115850000Y-28915000D02*
X117650000Y-28915000D01*
X115850000Y-28165000D02*
X115850000Y-28915000D01*
X111850000Y-28165000D02*
X110050000Y-28165000D01*
X111850000Y-28915000D02*
X111850000Y-28165000D01*
X110050000Y-28915000D02*
X111850000Y-28915000D01*
X110050000Y-28165000D02*
X110050000Y-28915000D01*
X114350000Y-28165000D02*
X113350000Y-28165000D01*
X114350000Y-28915000D02*
X114350000Y-28165000D01*
X113350000Y-28915000D02*
X114350000Y-28915000D01*
X113350000Y-28165000D02*
X113350000Y-28915000D01*
X117660000Y-28155000D02*
X110040000Y-28155000D01*
X117660000Y-34125000D02*
X117660000Y-28155000D01*
X110040000Y-34125000D02*
X117660000Y-34125000D01*
X110040000Y-28155000D02*
X110040000Y-34125000D01*
%TO.C,J4*%
X100950000Y-27865000D02*
X100950000Y-29115000D01*
X102200000Y-27865000D02*
X100950000Y-27865000D01*
X108100000Y-33365000D02*
X105050000Y-33365000D01*
X108100000Y-30415000D02*
X108100000Y-33365000D01*
X108850000Y-30415000D02*
X108100000Y-30415000D01*
X102000000Y-33365000D02*
X105050000Y-33365000D01*
X102000000Y-30415000D02*
X102000000Y-33365000D01*
X101250000Y-30415000D02*
X102000000Y-30415000D01*
X108850000Y-28165000D02*
X107050000Y-28165000D01*
X108850000Y-28915000D02*
X108850000Y-28165000D01*
X107050000Y-28915000D02*
X108850000Y-28915000D01*
X107050000Y-28165000D02*
X107050000Y-28915000D01*
X103050000Y-28165000D02*
X101250000Y-28165000D01*
X103050000Y-28915000D02*
X103050000Y-28165000D01*
X101250000Y-28915000D02*
X103050000Y-28915000D01*
X101250000Y-28165000D02*
X101250000Y-28915000D01*
X105550000Y-28165000D02*
X104550000Y-28165000D01*
X105550000Y-28915000D02*
X105550000Y-28165000D01*
X104550000Y-28915000D02*
X105550000Y-28915000D01*
X104550000Y-28165000D02*
X104550000Y-28915000D01*
X108860000Y-28155000D02*
X101240000Y-28155000D01*
X108860000Y-34125000D02*
X108860000Y-28155000D01*
X101240000Y-34125000D02*
X108860000Y-34125000D01*
X101240000Y-28155000D02*
X101240000Y-34125000D01*
%TO.C,DS0*%
X32059999Y-122500000D02*
X32059999Y-99100000D01*
X55459999Y-122500000D02*
X32059999Y-122500000D01*
X55459999Y-99100000D02*
X55459999Y-122500000D01*
X32059999Y-99100000D02*
X55459999Y-99100000D01*
X57679999Y-131920000D02*
X29899999Y-131920000D01*
X57679999Y-92700000D02*
X57679999Y-131920000D01*
X29899999Y-92700000D02*
X57679999Y-92700000D01*
X29899999Y-131920000D02*
X29899999Y-92700000D01*
%TO.C,D1*%
X243320000Y-33390000D02*
X241080000Y-33390000D01*
X243320000Y-33630000D02*
X241080000Y-33630000D01*
X243320000Y-33510000D02*
X241080000Y-33510000D01*
X242200000Y-37680000D02*
X242200000Y-37030000D01*
X242200000Y-32140000D02*
X242200000Y-32790000D01*
X243320000Y-37030000D02*
X243320000Y-32790000D01*
X241080000Y-37030000D02*
X243320000Y-37030000D01*
X241080000Y-32790000D02*
X241080000Y-37030000D01*
X243320000Y-32790000D02*
X241080000Y-32790000D01*
%TO.C,U4*%
X208350000Y-65160000D02*
X208350000Y-63510000D01*
X172670000Y-65160000D02*
X208350000Y-65160000D01*
X172670000Y-59860000D02*
X172670000Y-65160000D01*
X208350000Y-59860000D02*
X172670000Y-59860000D01*
X208350000Y-61510000D02*
X208350000Y-59860000D01*
X208350000Y-63510000D02*
G75*
G02*
X208350000Y-61510000I0J1000000D01*
G01*
%TO.C,U3*%
X166350000Y-65160000D02*
X166350000Y-63510000D01*
X130670000Y-65160000D02*
X166350000Y-65160000D01*
X130670000Y-59860000D02*
X130670000Y-65160000D01*
X166350000Y-59860000D02*
X130670000Y-59860000D01*
X166350000Y-61510000D02*
X166350000Y-59860000D01*
X166350000Y-63510000D02*
G75*
G02*
X166350000Y-61510000I0J1000000D01*
G01*
%TO.C,U2*%
X124350000Y-65160000D02*
X124350000Y-63510000D01*
X88670000Y-65160000D02*
X124350000Y-65160000D01*
X88670000Y-59860000D02*
X88670000Y-65160000D01*
X124350000Y-59860000D02*
X88670000Y-59860000D01*
X124350000Y-61510000D02*
X124350000Y-59860000D01*
X124350000Y-63510000D02*
G75*
G02*
X124350000Y-61510000I0J1000000D01*
G01*
%TO.C,R7*%
D10*
X202308333Y-143672380D02*
X201975000Y-143196190D01*
X201736904Y-143672380D02*
X201736904Y-142672380D01*
X202117857Y-142672380D01*
X202213095Y-142720000D01*
X202260714Y-142767619D01*
X202308333Y-142862857D01*
X202308333Y-143005714D01*
X202260714Y-143100952D01*
X202213095Y-143148571D01*
X202117857Y-143196190D01*
X201736904Y-143196190D01*
X202641666Y-142672380D02*
X203308333Y-142672380D01*
X202879761Y-143672380D01*
X201638095Y-140685714D02*
X201638095Y-141352380D01*
X201400000Y-140304761D02*
X201161904Y-141019047D01*
X201780952Y-141019047D01*
X202066666Y-140352380D02*
X202733333Y-140352380D01*
X202304761Y-141352380D01*
X203304761Y-140352380D02*
X203400000Y-140352380D01*
X203495238Y-140400000D01*
X203542857Y-140447619D01*
X203590476Y-140542857D01*
X203638095Y-140733333D01*
X203638095Y-140971428D01*
X203590476Y-141161904D01*
X203542857Y-141257142D01*
X203495238Y-141304761D01*
X203400000Y-141352380D01*
X203304761Y-141352380D01*
X203209523Y-141304761D01*
X203161904Y-141257142D01*
X203114285Y-141161904D01*
X203066666Y-140971428D01*
X203066666Y-140733333D01*
X203114285Y-140542857D01*
X203161904Y-140447619D01*
X203209523Y-140400000D01*
X203304761Y-140352380D01*
%TO.C,R6*%
X202308333Y-84972380D02*
X201975000Y-84496190D01*
X201736904Y-84972380D02*
X201736904Y-83972380D01*
X202117857Y-83972380D01*
X202213095Y-84020000D01*
X202260714Y-84067619D01*
X202308333Y-84162857D01*
X202308333Y-84305714D01*
X202260714Y-84400952D01*
X202213095Y-84448571D01*
X202117857Y-84496190D01*
X201736904Y-84496190D01*
X203165476Y-83972380D02*
X202975000Y-83972380D01*
X202879761Y-84020000D01*
X202832142Y-84067619D01*
X202736904Y-84210476D01*
X202689285Y-84400952D01*
X202689285Y-84781904D01*
X202736904Y-84877142D01*
X202784523Y-84924761D01*
X202879761Y-84972380D01*
X203070238Y-84972380D01*
X203165476Y-84924761D01*
X203213095Y-84877142D01*
X203260714Y-84781904D01*
X203260714Y-84543809D01*
X203213095Y-84448571D01*
X203165476Y-84400952D01*
X203070238Y-84353333D01*
X202879761Y-84353333D01*
X202784523Y-84400952D01*
X202736904Y-84448571D01*
X202689285Y-84543809D01*
X201738095Y-81985714D02*
X201738095Y-82652380D01*
X201500000Y-81604761D02*
X201261904Y-82319047D01*
X201880952Y-82319047D01*
X202166666Y-81652380D02*
X202833333Y-81652380D01*
X202404761Y-82652380D01*
X203404761Y-81652380D02*
X203500000Y-81652380D01*
X203595238Y-81700000D01*
X203642857Y-81747619D01*
X203690476Y-81842857D01*
X203738095Y-82033333D01*
X203738095Y-82271428D01*
X203690476Y-82461904D01*
X203642857Y-82557142D01*
X203595238Y-82604761D01*
X203500000Y-82652380D01*
X203404761Y-82652380D01*
X203309523Y-82604761D01*
X203261904Y-82557142D01*
X203214285Y-82461904D01*
X203166666Y-82271428D01*
X203166666Y-82033333D01*
X203214285Y-81842857D01*
X203261904Y-81747619D01*
X203309523Y-81700000D01*
X203404761Y-81652380D01*
%TO.C,R9*%
X244608333Y-84972380D02*
X244275000Y-84496190D01*
X244036904Y-84972380D02*
X244036904Y-83972380D01*
X244417857Y-83972380D01*
X244513095Y-84020000D01*
X244560714Y-84067619D01*
X244608333Y-84162857D01*
X244608333Y-84305714D01*
X244560714Y-84400952D01*
X244513095Y-84448571D01*
X244417857Y-84496190D01*
X244036904Y-84496190D01*
X245084523Y-84972380D02*
X245275000Y-84972380D01*
X245370238Y-84924761D01*
X245417857Y-84877142D01*
X245513095Y-84734285D01*
X245560714Y-84543809D01*
X245560714Y-84162857D01*
X245513095Y-84067619D01*
X245465476Y-84020000D01*
X245370238Y-83972380D01*
X245179761Y-83972380D01*
X245084523Y-84020000D01*
X245036904Y-84067619D01*
X244989285Y-84162857D01*
X244989285Y-84400952D01*
X245036904Y-84496190D01*
X245084523Y-84543809D01*
X245179761Y-84591428D01*
X245370238Y-84591428D01*
X245465476Y-84543809D01*
X245513095Y-84496190D01*
X245560714Y-84400952D01*
X244013095Y-81865714D02*
X244013095Y-82532380D01*
X243775000Y-81484761D02*
X243536904Y-82199047D01*
X244155952Y-82199047D01*
X244441666Y-81532380D02*
X245108333Y-81532380D01*
X244679761Y-82532380D01*
X245679761Y-81532380D02*
X245775000Y-81532380D01*
X245870238Y-81580000D01*
X245917857Y-81627619D01*
X245965476Y-81722857D01*
X246013095Y-81913333D01*
X246013095Y-82151428D01*
X245965476Y-82341904D01*
X245917857Y-82437142D01*
X245870238Y-82484761D01*
X245775000Y-82532380D01*
X245679761Y-82532380D01*
X245584523Y-82484761D01*
X245536904Y-82437142D01*
X245489285Y-82341904D01*
X245441666Y-82151428D01*
X245441666Y-81913333D01*
X245489285Y-81722857D01*
X245536904Y-81627619D01*
X245584523Y-81580000D01*
X245679761Y-81532380D01*
%TO.C,R10*%
X260732142Y-84972380D02*
X260398809Y-84496190D01*
X260160714Y-84972380D02*
X260160714Y-83972380D01*
X260541666Y-83972380D01*
X260636904Y-84020000D01*
X260684523Y-84067619D01*
X260732142Y-84162857D01*
X260732142Y-84305714D01*
X260684523Y-84400952D01*
X260636904Y-84448571D01*
X260541666Y-84496190D01*
X260160714Y-84496190D01*
X261684523Y-84972380D02*
X261113095Y-84972380D01*
X261398809Y-84972380D02*
X261398809Y-83972380D01*
X261303571Y-84115238D01*
X261208333Y-84210476D01*
X261113095Y-84258095D01*
X262303571Y-83972380D02*
X262398809Y-83972380D01*
X262494047Y-84020000D01*
X262541666Y-84067619D01*
X262589285Y-84162857D01*
X262636904Y-84353333D01*
X262636904Y-84591428D01*
X262589285Y-84781904D01*
X262541666Y-84877142D01*
X262494047Y-84924761D01*
X262398809Y-84972380D01*
X262303571Y-84972380D01*
X262208333Y-84924761D01*
X262160714Y-84877142D01*
X262113095Y-84781904D01*
X262065476Y-84591428D01*
X262065476Y-84353333D01*
X262113095Y-84162857D01*
X262160714Y-84067619D01*
X262208333Y-84020000D01*
X262303571Y-83972380D01*
X260703095Y-81935714D02*
X260703095Y-82602380D01*
X260465000Y-81554761D02*
X260226904Y-82269047D01*
X260845952Y-82269047D01*
X261131666Y-81602380D02*
X261798333Y-81602380D01*
X261369761Y-82602380D01*
X262369761Y-81602380D02*
X262465000Y-81602380D01*
X262560238Y-81650000D01*
X262607857Y-81697619D01*
X262655476Y-81792857D01*
X262703095Y-81983333D01*
X262703095Y-82221428D01*
X262655476Y-82411904D01*
X262607857Y-82507142D01*
X262560238Y-82554761D01*
X262465000Y-82602380D01*
X262369761Y-82602380D01*
X262274523Y-82554761D01*
X262226904Y-82507142D01*
X262179285Y-82411904D01*
X262131666Y-82221428D01*
X262131666Y-81983333D01*
X262179285Y-81792857D01*
X262226904Y-81697619D01*
X262274523Y-81650000D01*
X262369761Y-81602380D01*
%TO.C,R11*%
X277332142Y-84972380D02*
X276998809Y-84496190D01*
X276760714Y-84972380D02*
X276760714Y-83972380D01*
X277141666Y-83972380D01*
X277236904Y-84020000D01*
X277284523Y-84067619D01*
X277332142Y-84162857D01*
X277332142Y-84305714D01*
X277284523Y-84400952D01*
X277236904Y-84448571D01*
X277141666Y-84496190D01*
X276760714Y-84496190D01*
X278284523Y-84972380D02*
X277713095Y-84972380D01*
X277998809Y-84972380D02*
X277998809Y-83972380D01*
X277903571Y-84115238D01*
X277808333Y-84210476D01*
X277713095Y-84258095D01*
X279236904Y-84972380D02*
X278665476Y-84972380D01*
X278951190Y-84972380D02*
X278951190Y-83972380D01*
X278855952Y-84115238D01*
X278760714Y-84210476D01*
X278665476Y-84258095D01*
X277193095Y-81935714D02*
X277193095Y-82602380D01*
X276955000Y-81554761D02*
X276716904Y-82269047D01*
X277335952Y-82269047D01*
X277621666Y-81602380D02*
X278288333Y-81602380D01*
X277859761Y-82602380D01*
X278859761Y-81602380D02*
X278955000Y-81602380D01*
X279050238Y-81650000D01*
X279097857Y-81697619D01*
X279145476Y-81792857D01*
X279193095Y-81983333D01*
X279193095Y-82221428D01*
X279145476Y-82411904D01*
X279097857Y-82507142D01*
X279050238Y-82554761D01*
X278955000Y-82602380D01*
X278859761Y-82602380D01*
X278764523Y-82554761D01*
X278716904Y-82507142D01*
X278669285Y-82411904D01*
X278621666Y-82221428D01*
X278621666Y-81983333D01*
X278669285Y-81792857D01*
X278716904Y-81697619D01*
X278764523Y-81650000D01*
X278859761Y-81602380D01*
%TO.C,R15*%
X277332142Y-143672380D02*
X276998809Y-143196190D01*
X276760714Y-143672380D02*
X276760714Y-142672380D01*
X277141666Y-142672380D01*
X277236904Y-142720000D01*
X277284523Y-142767619D01*
X277332142Y-142862857D01*
X277332142Y-143005714D01*
X277284523Y-143100952D01*
X277236904Y-143148571D01*
X277141666Y-143196190D01*
X276760714Y-143196190D01*
X278284523Y-143672380D02*
X277713095Y-143672380D01*
X277998809Y-143672380D02*
X277998809Y-142672380D01*
X277903571Y-142815238D01*
X277808333Y-142910476D01*
X277713095Y-142958095D01*
X279189285Y-142672380D02*
X278713095Y-142672380D01*
X278665476Y-143148571D01*
X278713095Y-143100952D01*
X278808333Y-143053333D01*
X279046428Y-143053333D01*
X279141666Y-143100952D01*
X279189285Y-143148571D01*
X279236904Y-143243809D01*
X279236904Y-143481904D01*
X279189285Y-143577142D01*
X279141666Y-143624761D01*
X279046428Y-143672380D01*
X278808333Y-143672380D01*
X278713095Y-143624761D01*
X278665476Y-143577142D01*
X277203095Y-140485714D02*
X277203095Y-141152380D01*
X276965000Y-140104761D02*
X276726904Y-140819047D01*
X277345952Y-140819047D01*
X277631666Y-140152380D02*
X278298333Y-140152380D01*
X277869761Y-141152380D01*
X278869761Y-140152380D02*
X278965000Y-140152380D01*
X279060238Y-140200000D01*
X279107857Y-140247619D01*
X279155476Y-140342857D01*
X279203095Y-140533333D01*
X279203095Y-140771428D01*
X279155476Y-140961904D01*
X279107857Y-141057142D01*
X279060238Y-141104761D01*
X278965000Y-141152380D01*
X278869761Y-141152380D01*
X278774523Y-141104761D01*
X278726904Y-141057142D01*
X278679285Y-140961904D01*
X278631666Y-140771428D01*
X278631666Y-140533333D01*
X278679285Y-140342857D01*
X278726904Y-140247619D01*
X278774523Y-140200000D01*
X278869761Y-140152380D01*
%TO.C,R14*%
X260732142Y-143672380D02*
X260398809Y-143196190D01*
X260160714Y-143672380D02*
X260160714Y-142672380D01*
X260541666Y-142672380D01*
X260636904Y-142720000D01*
X260684523Y-142767619D01*
X260732142Y-142862857D01*
X260732142Y-143005714D01*
X260684523Y-143100952D01*
X260636904Y-143148571D01*
X260541666Y-143196190D01*
X260160714Y-143196190D01*
X261684523Y-143672380D02*
X261113095Y-143672380D01*
X261398809Y-143672380D02*
X261398809Y-142672380D01*
X261303571Y-142815238D01*
X261208333Y-142910476D01*
X261113095Y-142958095D01*
X262541666Y-143005714D02*
X262541666Y-143672380D01*
X262303571Y-142624761D02*
X262065476Y-143339047D01*
X262684523Y-143339047D01*
X260613095Y-140535714D02*
X260613095Y-141202380D01*
X260375000Y-140154761D02*
X260136904Y-140869047D01*
X260755952Y-140869047D01*
X261041666Y-140202380D02*
X261708333Y-140202380D01*
X261279761Y-141202380D01*
X262279761Y-140202380D02*
X262375000Y-140202380D01*
X262470238Y-140250000D01*
X262517857Y-140297619D01*
X262565476Y-140392857D01*
X262613095Y-140583333D01*
X262613095Y-140821428D01*
X262565476Y-141011904D01*
X262517857Y-141107142D01*
X262470238Y-141154761D01*
X262375000Y-141202380D01*
X262279761Y-141202380D01*
X262184523Y-141154761D01*
X262136904Y-141107142D01*
X262089285Y-141011904D01*
X262041666Y-140821428D01*
X262041666Y-140583333D01*
X262089285Y-140392857D01*
X262136904Y-140297619D01*
X262184523Y-140250000D01*
X262279761Y-140202380D01*
%TO.C,R13*%
X244132142Y-143672380D02*
X243798809Y-143196190D01*
X243560714Y-143672380D02*
X243560714Y-142672380D01*
X243941666Y-142672380D01*
X244036904Y-142720000D01*
X244084523Y-142767619D01*
X244132142Y-142862857D01*
X244132142Y-143005714D01*
X244084523Y-143100952D01*
X244036904Y-143148571D01*
X243941666Y-143196190D01*
X243560714Y-143196190D01*
X245084523Y-143672380D02*
X244513095Y-143672380D01*
X244798809Y-143672380D02*
X244798809Y-142672380D01*
X244703571Y-142815238D01*
X244608333Y-142910476D01*
X244513095Y-142958095D01*
X245417857Y-142672380D02*
X246036904Y-142672380D01*
X245703571Y-143053333D01*
X245846428Y-143053333D01*
X245941666Y-143100952D01*
X245989285Y-143148571D01*
X246036904Y-143243809D01*
X246036904Y-143481904D01*
X245989285Y-143577142D01*
X245941666Y-143624761D01*
X245846428Y-143672380D01*
X245560714Y-143672380D01*
X245465476Y-143624761D01*
X245417857Y-143577142D01*
X244013095Y-140485714D02*
X244013095Y-141152380D01*
X243775000Y-140104761D02*
X243536904Y-140819047D01*
X244155952Y-140819047D01*
X244441666Y-140152380D02*
X245108333Y-140152380D01*
X244679761Y-141152380D01*
X245679761Y-140152380D02*
X245775000Y-140152380D01*
X245870238Y-140200000D01*
X245917857Y-140247619D01*
X245965476Y-140342857D01*
X246013095Y-140533333D01*
X246013095Y-140771428D01*
X245965476Y-140961904D01*
X245917857Y-141057142D01*
X245870238Y-141104761D01*
X245775000Y-141152380D01*
X245679761Y-141152380D01*
X245584523Y-141104761D01*
X245536904Y-141057142D01*
X245489285Y-140961904D01*
X245441666Y-140771428D01*
X245441666Y-140533333D01*
X245489285Y-140342857D01*
X245536904Y-140247619D01*
X245584523Y-140200000D01*
X245679761Y-140152380D01*
%TO.C,R12*%
X227532142Y-143672380D02*
X227198809Y-143196190D01*
X226960714Y-143672380D02*
X226960714Y-142672380D01*
X227341666Y-142672380D01*
X227436904Y-142720000D01*
X227484523Y-142767619D01*
X227532142Y-142862857D01*
X227532142Y-143005714D01*
X227484523Y-143100952D01*
X227436904Y-143148571D01*
X227341666Y-143196190D01*
X226960714Y-143196190D01*
X228484523Y-143672380D02*
X227913095Y-143672380D01*
X228198809Y-143672380D02*
X228198809Y-142672380D01*
X228103571Y-142815238D01*
X228008333Y-142910476D01*
X227913095Y-142958095D01*
X228865476Y-142767619D02*
X228913095Y-142720000D01*
X229008333Y-142672380D01*
X229246428Y-142672380D01*
X229341666Y-142720000D01*
X229389285Y-142767619D01*
X229436904Y-142862857D01*
X229436904Y-142958095D01*
X229389285Y-143100952D01*
X228817857Y-143672380D01*
X229436904Y-143672380D01*
X227503095Y-140485714D02*
X227503095Y-141152380D01*
X227265000Y-140104761D02*
X227026904Y-140819047D01*
X227645952Y-140819047D01*
X227931666Y-140152380D02*
X228598333Y-140152380D01*
X228169761Y-141152380D01*
X229169761Y-140152380D02*
X229265000Y-140152380D01*
X229360238Y-140200000D01*
X229407857Y-140247619D01*
X229455476Y-140342857D01*
X229503095Y-140533333D01*
X229503095Y-140771428D01*
X229455476Y-140961904D01*
X229407857Y-141057142D01*
X229360238Y-141104761D01*
X229265000Y-141152380D01*
X229169761Y-141152380D01*
X229074523Y-141104761D01*
X229026904Y-141057142D01*
X228979285Y-140961904D01*
X228931666Y-140771428D01*
X228931666Y-140533333D01*
X228979285Y-140342857D01*
X229026904Y-140247619D01*
X229074523Y-140200000D01*
X229169761Y-140152380D01*
%TO.C,R8*%
X228008333Y-84972380D02*
X227675000Y-84496190D01*
X227436904Y-84972380D02*
X227436904Y-83972380D01*
X227817857Y-83972380D01*
X227913095Y-84020000D01*
X227960714Y-84067619D01*
X228008333Y-84162857D01*
X228008333Y-84305714D01*
X227960714Y-84400952D01*
X227913095Y-84448571D01*
X227817857Y-84496190D01*
X227436904Y-84496190D01*
X228579761Y-84400952D02*
X228484523Y-84353333D01*
X228436904Y-84305714D01*
X228389285Y-84210476D01*
X228389285Y-84162857D01*
X228436904Y-84067619D01*
X228484523Y-84020000D01*
X228579761Y-83972380D01*
X228770238Y-83972380D01*
X228865476Y-84020000D01*
X228913095Y-84067619D01*
X228960714Y-84162857D01*
X228960714Y-84210476D01*
X228913095Y-84305714D01*
X228865476Y-84353333D01*
X228770238Y-84400952D01*
X228579761Y-84400952D01*
X228484523Y-84448571D01*
X228436904Y-84496190D01*
X228389285Y-84591428D01*
X228389285Y-84781904D01*
X228436904Y-84877142D01*
X228484523Y-84924761D01*
X228579761Y-84972380D01*
X228770238Y-84972380D01*
X228865476Y-84924761D01*
X228913095Y-84877142D01*
X228960714Y-84781904D01*
X228960714Y-84591428D01*
X228913095Y-84496190D01*
X228865476Y-84448571D01*
X228770238Y-84400952D01*
X227413095Y-81935714D02*
X227413095Y-82602380D01*
X227175000Y-81554761D02*
X226936904Y-82269047D01*
X227555952Y-82269047D01*
X227841666Y-81602380D02*
X228508333Y-81602380D01*
X228079761Y-82602380D01*
X229079761Y-81602380D02*
X229175000Y-81602380D01*
X229270238Y-81650000D01*
X229317857Y-81697619D01*
X229365476Y-81792857D01*
X229413095Y-81983333D01*
X229413095Y-82221428D01*
X229365476Y-82411904D01*
X229317857Y-82507142D01*
X229270238Y-82554761D01*
X229175000Y-82602380D01*
X229079761Y-82602380D01*
X228984523Y-82554761D01*
X228936904Y-82507142D01*
X228889285Y-82411904D01*
X228841666Y-82221428D01*
X228841666Y-81983333D01*
X228889285Y-81792857D01*
X228936904Y-81697619D01*
X228984523Y-81650000D01*
X229079761Y-81602380D01*
%TO.C,SW22*%
X285829761Y-131589523D02*
X285877380Y-131446666D01*
X285877380Y-131208571D01*
X285829761Y-131113333D01*
X285782142Y-131065714D01*
X285686904Y-131018095D01*
X285591666Y-131018095D01*
X285496428Y-131065714D01*
X285448809Y-131113333D01*
X285401190Y-131208571D01*
X285353571Y-131399047D01*
X285305952Y-131494285D01*
X285258333Y-131541904D01*
X285163095Y-131589523D01*
X285067857Y-131589523D01*
X284972619Y-131541904D01*
X284925000Y-131494285D01*
X284877380Y-131399047D01*
X284877380Y-131160952D01*
X284925000Y-131018095D01*
X284877380Y-130684761D02*
X285877380Y-130446666D01*
X285163095Y-130256190D01*
X285877380Y-130065714D01*
X284877380Y-129827619D01*
X284972619Y-129494285D02*
X284925000Y-129446666D01*
X284877380Y-129351428D01*
X284877380Y-129113333D01*
X284925000Y-129018095D01*
X284972619Y-128970476D01*
X285067857Y-128922857D01*
X285163095Y-128922857D01*
X285305952Y-128970476D01*
X285877380Y-129541904D01*
X285877380Y-128922857D01*
X284972619Y-128541904D02*
X284925000Y-128494285D01*
X284877380Y-128399047D01*
X284877380Y-128160952D01*
X284925000Y-128065714D01*
X284972619Y-128018095D01*
X285067857Y-127970476D01*
X285163095Y-127970476D01*
X285305952Y-128018095D01*
X285877380Y-128589523D01*
X285877380Y-127970476D01*
X270988095Y-124452380D02*
X270988095Y-123452380D01*
X271559523Y-124452380D02*
X271130952Y-123880952D01*
X271559523Y-123452380D02*
X270988095Y-124023809D01*
%TO.C,SW18*%
X285829761Y-104874523D02*
X285877380Y-104731666D01*
X285877380Y-104493571D01*
X285829761Y-104398333D01*
X285782142Y-104350714D01*
X285686904Y-104303095D01*
X285591666Y-104303095D01*
X285496428Y-104350714D01*
X285448809Y-104398333D01*
X285401190Y-104493571D01*
X285353571Y-104684047D01*
X285305952Y-104779285D01*
X285258333Y-104826904D01*
X285163095Y-104874523D01*
X285067857Y-104874523D01*
X284972619Y-104826904D01*
X284925000Y-104779285D01*
X284877380Y-104684047D01*
X284877380Y-104445952D01*
X284925000Y-104303095D01*
X284877380Y-103969761D02*
X285877380Y-103731666D01*
X285163095Y-103541190D01*
X285877380Y-103350714D01*
X284877380Y-103112619D01*
X285877380Y-102207857D02*
X285877380Y-102779285D01*
X285877380Y-102493571D02*
X284877380Y-102493571D01*
X285020238Y-102588809D01*
X285115476Y-102684047D01*
X285163095Y-102779285D01*
X285305952Y-101636428D02*
X285258333Y-101731666D01*
X285210714Y-101779285D01*
X285115476Y-101826904D01*
X285067857Y-101826904D01*
X284972619Y-101779285D01*
X284925000Y-101731666D01*
X284877380Y-101636428D01*
X284877380Y-101445952D01*
X284925000Y-101350714D01*
X284972619Y-101303095D01*
X285067857Y-101255476D01*
X285115476Y-101255476D01*
X285210714Y-101303095D01*
X285258333Y-101350714D01*
X285305952Y-101445952D01*
X285305952Y-101636428D01*
X285353571Y-101731666D01*
X285401190Y-101779285D01*
X285496428Y-101826904D01*
X285686904Y-101826904D01*
X285782142Y-101779285D01*
X285829761Y-101731666D01*
X285877380Y-101636428D01*
X285877380Y-101445952D01*
X285829761Y-101350714D01*
X285782142Y-101303095D01*
X285686904Y-101255476D01*
X285496428Y-101255476D01*
X285401190Y-101303095D01*
X285353571Y-101350714D01*
X285305952Y-101445952D01*
X270988095Y-97737380D02*
X270988095Y-96737380D01*
X271559523Y-97737380D02*
X271130952Y-97165952D01*
X271559523Y-96737380D02*
X270988095Y-97308809D01*
%TO.C,SW21*%
X269229761Y-131589523D02*
X269277380Y-131446666D01*
X269277380Y-131208571D01*
X269229761Y-131113333D01*
X269182142Y-131065714D01*
X269086904Y-131018095D01*
X268991666Y-131018095D01*
X268896428Y-131065714D01*
X268848809Y-131113333D01*
X268801190Y-131208571D01*
X268753571Y-131399047D01*
X268705952Y-131494285D01*
X268658333Y-131541904D01*
X268563095Y-131589523D01*
X268467857Y-131589523D01*
X268372619Y-131541904D01*
X268325000Y-131494285D01*
X268277380Y-131399047D01*
X268277380Y-131160952D01*
X268325000Y-131018095D01*
X268277380Y-130684761D02*
X269277380Y-130446666D01*
X268563095Y-130256190D01*
X269277380Y-130065714D01*
X268277380Y-129827619D01*
X268372619Y-129494285D02*
X268325000Y-129446666D01*
X268277380Y-129351428D01*
X268277380Y-129113333D01*
X268325000Y-129018095D01*
X268372619Y-128970476D01*
X268467857Y-128922857D01*
X268563095Y-128922857D01*
X268705952Y-128970476D01*
X269277380Y-129541904D01*
X269277380Y-128922857D01*
X269277380Y-127970476D02*
X269277380Y-128541904D01*
X269277380Y-128256190D02*
X268277380Y-128256190D01*
X268420238Y-128351428D01*
X268515476Y-128446666D01*
X268563095Y-128541904D01*
X254388095Y-124452380D02*
X254388095Y-123452380D01*
X254959523Y-124452380D02*
X254530952Y-123880952D01*
X254959523Y-123452380D02*
X254388095Y-124023809D01*
%TO.C,SW20*%
X252629761Y-131589523D02*
X252677380Y-131446666D01*
X252677380Y-131208571D01*
X252629761Y-131113333D01*
X252582142Y-131065714D01*
X252486904Y-131018095D01*
X252391666Y-131018095D01*
X252296428Y-131065714D01*
X252248809Y-131113333D01*
X252201190Y-131208571D01*
X252153571Y-131399047D01*
X252105952Y-131494285D01*
X252058333Y-131541904D01*
X251963095Y-131589523D01*
X251867857Y-131589523D01*
X251772619Y-131541904D01*
X251725000Y-131494285D01*
X251677380Y-131399047D01*
X251677380Y-131160952D01*
X251725000Y-131018095D01*
X251677380Y-130684761D02*
X252677380Y-130446666D01*
X251963095Y-130256190D01*
X252677380Y-130065714D01*
X251677380Y-129827619D01*
X251772619Y-129494285D02*
X251725000Y-129446666D01*
X251677380Y-129351428D01*
X251677380Y-129113333D01*
X251725000Y-129018095D01*
X251772619Y-128970476D01*
X251867857Y-128922857D01*
X251963095Y-128922857D01*
X252105952Y-128970476D01*
X252677380Y-129541904D01*
X252677380Y-128922857D01*
X251677380Y-128303809D02*
X251677380Y-128208571D01*
X251725000Y-128113333D01*
X251772619Y-128065714D01*
X251867857Y-128018095D01*
X252058333Y-127970476D01*
X252296428Y-127970476D01*
X252486904Y-128018095D01*
X252582142Y-128065714D01*
X252629761Y-128113333D01*
X252677380Y-128208571D01*
X252677380Y-128303809D01*
X252629761Y-128399047D01*
X252582142Y-128446666D01*
X252486904Y-128494285D01*
X252296428Y-128541904D01*
X252058333Y-128541904D01*
X251867857Y-128494285D01*
X251772619Y-128446666D01*
X251725000Y-128399047D01*
X251677380Y-128303809D01*
X237788095Y-124452380D02*
X237788095Y-123452380D01*
X238359523Y-124452380D02*
X237930952Y-123880952D01*
X238359523Y-123452380D02*
X237788095Y-124023809D01*
%TO.C,SW19*%
X236029761Y-131589523D02*
X236077380Y-131446666D01*
X236077380Y-131208571D01*
X236029761Y-131113333D01*
X235982142Y-131065714D01*
X235886904Y-131018095D01*
X235791666Y-131018095D01*
X235696428Y-131065714D01*
X235648809Y-131113333D01*
X235601190Y-131208571D01*
X235553571Y-131399047D01*
X235505952Y-131494285D01*
X235458333Y-131541904D01*
X235363095Y-131589523D01*
X235267857Y-131589523D01*
X235172619Y-131541904D01*
X235125000Y-131494285D01*
X235077380Y-131399047D01*
X235077380Y-131160952D01*
X235125000Y-131018095D01*
X235077380Y-130684761D02*
X236077380Y-130446666D01*
X235363095Y-130256190D01*
X236077380Y-130065714D01*
X235077380Y-129827619D01*
X236077380Y-128922857D02*
X236077380Y-129494285D01*
X236077380Y-129208571D02*
X235077380Y-129208571D01*
X235220238Y-129303809D01*
X235315476Y-129399047D01*
X235363095Y-129494285D01*
X236077380Y-128446666D02*
X236077380Y-128256190D01*
X236029761Y-128160952D01*
X235982142Y-128113333D01*
X235839285Y-128018095D01*
X235648809Y-127970476D01*
X235267857Y-127970476D01*
X235172619Y-128018095D01*
X235125000Y-128065714D01*
X235077380Y-128160952D01*
X235077380Y-128351428D01*
X235125000Y-128446666D01*
X235172619Y-128494285D01*
X235267857Y-128541904D01*
X235505952Y-128541904D01*
X235601190Y-128494285D01*
X235648809Y-128446666D01*
X235696428Y-128351428D01*
X235696428Y-128160952D01*
X235648809Y-128065714D01*
X235601190Y-128018095D01*
X235505952Y-127970476D01*
X221188095Y-124452380D02*
X221188095Y-123452380D01*
X221759523Y-124452380D02*
X221330952Y-123880952D01*
X221759523Y-123452380D02*
X221188095Y-124023809D01*
%TO.C,SW17*%
X269229761Y-104874523D02*
X269277380Y-104731666D01*
X269277380Y-104493571D01*
X269229761Y-104398333D01*
X269182142Y-104350714D01*
X269086904Y-104303095D01*
X268991666Y-104303095D01*
X268896428Y-104350714D01*
X268848809Y-104398333D01*
X268801190Y-104493571D01*
X268753571Y-104684047D01*
X268705952Y-104779285D01*
X268658333Y-104826904D01*
X268563095Y-104874523D01*
X268467857Y-104874523D01*
X268372619Y-104826904D01*
X268325000Y-104779285D01*
X268277380Y-104684047D01*
X268277380Y-104445952D01*
X268325000Y-104303095D01*
X268277380Y-103969761D02*
X269277380Y-103731666D01*
X268563095Y-103541190D01*
X269277380Y-103350714D01*
X268277380Y-103112619D01*
X269277380Y-102207857D02*
X269277380Y-102779285D01*
X269277380Y-102493571D02*
X268277380Y-102493571D01*
X268420238Y-102588809D01*
X268515476Y-102684047D01*
X268563095Y-102779285D01*
X268277380Y-101874523D02*
X268277380Y-101207857D01*
X269277380Y-101636428D01*
X254388095Y-97737380D02*
X254388095Y-96737380D01*
X254959523Y-97737380D02*
X254530952Y-97165952D01*
X254959523Y-96737380D02*
X254388095Y-97308809D01*
%TO.C,SW16*%
X252629761Y-104874523D02*
X252677380Y-104731666D01*
X252677380Y-104493571D01*
X252629761Y-104398333D01*
X252582142Y-104350714D01*
X252486904Y-104303095D01*
X252391666Y-104303095D01*
X252296428Y-104350714D01*
X252248809Y-104398333D01*
X252201190Y-104493571D01*
X252153571Y-104684047D01*
X252105952Y-104779285D01*
X252058333Y-104826904D01*
X251963095Y-104874523D01*
X251867857Y-104874523D01*
X251772619Y-104826904D01*
X251725000Y-104779285D01*
X251677380Y-104684047D01*
X251677380Y-104445952D01*
X251725000Y-104303095D01*
X251677380Y-103969761D02*
X252677380Y-103731666D01*
X251963095Y-103541190D01*
X252677380Y-103350714D01*
X251677380Y-103112619D01*
X252677380Y-102207857D02*
X252677380Y-102779285D01*
X252677380Y-102493571D02*
X251677380Y-102493571D01*
X251820238Y-102588809D01*
X251915476Y-102684047D01*
X251963095Y-102779285D01*
X251677380Y-101350714D02*
X251677380Y-101541190D01*
X251725000Y-101636428D01*
X251772619Y-101684047D01*
X251915476Y-101779285D01*
X252105952Y-101826904D01*
X252486904Y-101826904D01*
X252582142Y-101779285D01*
X252629761Y-101731666D01*
X252677380Y-101636428D01*
X252677380Y-101445952D01*
X252629761Y-101350714D01*
X252582142Y-101303095D01*
X252486904Y-101255476D01*
X252248809Y-101255476D01*
X252153571Y-101303095D01*
X252105952Y-101350714D01*
X252058333Y-101445952D01*
X252058333Y-101636428D01*
X252105952Y-101731666D01*
X252153571Y-101779285D01*
X252248809Y-101826904D01*
X237788095Y-97737380D02*
X237788095Y-96737380D01*
X238359523Y-97737380D02*
X237930952Y-97165952D01*
X238359523Y-96737380D02*
X237788095Y-97308809D01*
%TO.C,SW15*%
X236029761Y-104874523D02*
X236077380Y-104731666D01*
X236077380Y-104493571D01*
X236029761Y-104398333D01*
X235982142Y-104350714D01*
X235886904Y-104303095D01*
X235791666Y-104303095D01*
X235696428Y-104350714D01*
X235648809Y-104398333D01*
X235601190Y-104493571D01*
X235553571Y-104684047D01*
X235505952Y-104779285D01*
X235458333Y-104826904D01*
X235363095Y-104874523D01*
X235267857Y-104874523D01*
X235172619Y-104826904D01*
X235125000Y-104779285D01*
X235077380Y-104684047D01*
X235077380Y-104445952D01*
X235125000Y-104303095D01*
X235077380Y-103969761D02*
X236077380Y-103731666D01*
X235363095Y-103541190D01*
X236077380Y-103350714D01*
X235077380Y-103112619D01*
X236077380Y-102207857D02*
X236077380Y-102779285D01*
X236077380Y-102493571D02*
X235077380Y-102493571D01*
X235220238Y-102588809D01*
X235315476Y-102684047D01*
X235363095Y-102779285D01*
X235077380Y-101303095D02*
X235077380Y-101779285D01*
X235553571Y-101826904D01*
X235505952Y-101779285D01*
X235458333Y-101684047D01*
X235458333Y-101445952D01*
X235505952Y-101350714D01*
X235553571Y-101303095D01*
X235648809Y-101255476D01*
X235886904Y-101255476D01*
X235982142Y-101303095D01*
X236029761Y-101350714D01*
X236077380Y-101445952D01*
X236077380Y-101684047D01*
X236029761Y-101779285D01*
X235982142Y-101826904D01*
X221188095Y-97737380D02*
X221188095Y-96737380D01*
X221759523Y-97737380D02*
X221330952Y-97165952D01*
X221759523Y-96737380D02*
X221188095Y-97308809D01*
%TO.C,SW14*%
X210329761Y-131589523D02*
X210377380Y-131446666D01*
X210377380Y-131208571D01*
X210329761Y-131113333D01*
X210282142Y-131065714D01*
X210186904Y-131018095D01*
X210091666Y-131018095D01*
X209996428Y-131065714D01*
X209948809Y-131113333D01*
X209901190Y-131208571D01*
X209853571Y-131399047D01*
X209805952Y-131494285D01*
X209758333Y-131541904D01*
X209663095Y-131589523D01*
X209567857Y-131589523D01*
X209472619Y-131541904D01*
X209425000Y-131494285D01*
X209377380Y-131399047D01*
X209377380Y-131160952D01*
X209425000Y-131018095D01*
X209377380Y-130684761D02*
X210377380Y-130446666D01*
X209663095Y-130256190D01*
X210377380Y-130065714D01*
X209377380Y-129827619D01*
X210377380Y-128922857D02*
X210377380Y-129494285D01*
X210377380Y-129208571D02*
X209377380Y-129208571D01*
X209520238Y-129303809D01*
X209615476Y-129399047D01*
X209663095Y-129494285D01*
X209710714Y-128065714D02*
X210377380Y-128065714D01*
X209329761Y-128303809D02*
X210044047Y-128541904D01*
X210044047Y-127922857D01*
X195488095Y-124452380D02*
X195488095Y-123452380D01*
X196059523Y-124452380D02*
X195630952Y-123880952D01*
X196059523Y-123452380D02*
X195488095Y-124023809D01*
%TO.C,SW13*%
X210329761Y-104874523D02*
X210377380Y-104731666D01*
X210377380Y-104493571D01*
X210329761Y-104398333D01*
X210282142Y-104350714D01*
X210186904Y-104303095D01*
X210091666Y-104303095D01*
X209996428Y-104350714D01*
X209948809Y-104398333D01*
X209901190Y-104493571D01*
X209853571Y-104684047D01*
X209805952Y-104779285D01*
X209758333Y-104826904D01*
X209663095Y-104874523D01*
X209567857Y-104874523D01*
X209472619Y-104826904D01*
X209425000Y-104779285D01*
X209377380Y-104684047D01*
X209377380Y-104445952D01*
X209425000Y-104303095D01*
X209377380Y-103969761D02*
X210377380Y-103731666D01*
X209663095Y-103541190D01*
X210377380Y-103350714D01*
X209377380Y-103112619D01*
X210377380Y-102207857D02*
X210377380Y-102779285D01*
X210377380Y-102493571D02*
X209377380Y-102493571D01*
X209520238Y-102588809D01*
X209615476Y-102684047D01*
X209663095Y-102779285D01*
X209377380Y-101874523D02*
X209377380Y-101255476D01*
X209758333Y-101588809D01*
X209758333Y-101445952D01*
X209805952Y-101350714D01*
X209853571Y-101303095D01*
X209948809Y-101255476D01*
X210186904Y-101255476D01*
X210282142Y-101303095D01*
X210329761Y-101350714D01*
X210377380Y-101445952D01*
X210377380Y-101731666D01*
X210329761Y-101826904D01*
X210282142Y-101874523D01*
X195488095Y-97737380D02*
X195488095Y-96737380D01*
X196059523Y-97737380D02*
X195630952Y-97165952D01*
X196059523Y-96737380D02*
X195488095Y-97308809D01*
%TO.C,SW8*%
X188059761Y-142683333D02*
X188107380Y-142540476D01*
X188107380Y-142302380D01*
X188059761Y-142207142D01*
X188012142Y-142159523D01*
X187916904Y-142111904D01*
X187821666Y-142111904D01*
X187726428Y-142159523D01*
X187678809Y-142207142D01*
X187631190Y-142302380D01*
X187583571Y-142492857D01*
X187535952Y-142588095D01*
X187488333Y-142635714D01*
X187393095Y-142683333D01*
X187297857Y-142683333D01*
X187202619Y-142635714D01*
X187155000Y-142588095D01*
X187107380Y-142492857D01*
X187107380Y-142254761D01*
X187155000Y-142111904D01*
X187107380Y-141778571D02*
X188107380Y-141540476D01*
X187393095Y-141350000D01*
X188107380Y-141159523D01*
X187107380Y-140921428D01*
X187535952Y-140397619D02*
X187488333Y-140492857D01*
X187440714Y-140540476D01*
X187345476Y-140588095D01*
X187297857Y-140588095D01*
X187202619Y-140540476D01*
X187155000Y-140492857D01*
X187107380Y-140397619D01*
X187107380Y-140207142D01*
X187155000Y-140111904D01*
X187202619Y-140064285D01*
X187297857Y-140016666D01*
X187345476Y-140016666D01*
X187440714Y-140064285D01*
X187488333Y-140111904D01*
X187535952Y-140207142D01*
X187535952Y-140397619D01*
X187583571Y-140492857D01*
X187631190Y-140540476D01*
X187726428Y-140588095D01*
X187916904Y-140588095D01*
X188012142Y-140540476D01*
X188059761Y-140492857D01*
X188107380Y-140397619D01*
X188107380Y-140207142D01*
X188059761Y-140111904D01*
X188012142Y-140064285D01*
X187916904Y-140016666D01*
X187726428Y-140016666D01*
X187631190Y-140064285D01*
X187583571Y-140111904D01*
X187535952Y-140207142D01*
%TO.C,SW6*%
X162059761Y-142683333D02*
X162107380Y-142540476D01*
X162107380Y-142302380D01*
X162059761Y-142207142D01*
X162012142Y-142159523D01*
X161916904Y-142111904D01*
X161821666Y-142111904D01*
X161726428Y-142159523D01*
X161678809Y-142207142D01*
X161631190Y-142302380D01*
X161583571Y-142492857D01*
X161535952Y-142588095D01*
X161488333Y-142635714D01*
X161393095Y-142683333D01*
X161297857Y-142683333D01*
X161202619Y-142635714D01*
X161155000Y-142588095D01*
X161107380Y-142492857D01*
X161107380Y-142254761D01*
X161155000Y-142111904D01*
X161107380Y-141778571D02*
X162107380Y-141540476D01*
X161393095Y-141350000D01*
X162107380Y-141159523D01*
X161107380Y-140921428D01*
X161107380Y-140111904D02*
X161107380Y-140302380D01*
X161155000Y-140397619D01*
X161202619Y-140445238D01*
X161345476Y-140540476D01*
X161535952Y-140588095D01*
X161916904Y-140588095D01*
X162012142Y-140540476D01*
X162059761Y-140492857D01*
X162107380Y-140397619D01*
X162107380Y-140207142D01*
X162059761Y-140111904D01*
X162012142Y-140064285D01*
X161916904Y-140016666D01*
X161678809Y-140016666D01*
X161583571Y-140064285D01*
X161535952Y-140111904D01*
X161488333Y-140207142D01*
X161488333Y-140397619D01*
X161535952Y-140492857D01*
X161583571Y-140540476D01*
X161678809Y-140588095D01*
%TO.C,SW4*%
X136104761Y-142633333D02*
X136152380Y-142490476D01*
X136152380Y-142252380D01*
X136104761Y-142157142D01*
X136057142Y-142109523D01*
X135961904Y-142061904D01*
X135866666Y-142061904D01*
X135771428Y-142109523D01*
X135723809Y-142157142D01*
X135676190Y-142252380D01*
X135628571Y-142442857D01*
X135580952Y-142538095D01*
X135533333Y-142585714D01*
X135438095Y-142633333D01*
X135342857Y-142633333D01*
X135247619Y-142585714D01*
X135200000Y-142538095D01*
X135152380Y-142442857D01*
X135152380Y-142204761D01*
X135200000Y-142061904D01*
X135152380Y-141728571D02*
X136152380Y-141490476D01*
X135438095Y-141300000D01*
X136152380Y-141109523D01*
X135152380Y-140871428D01*
X135485714Y-140061904D02*
X136152380Y-140061904D01*
X135104761Y-140300000D02*
X135819047Y-140538095D01*
X135819047Y-139919047D01*
%TO.C,SW2*%
X110059761Y-142683333D02*
X110107380Y-142540476D01*
X110107380Y-142302380D01*
X110059761Y-142207142D01*
X110012142Y-142159523D01*
X109916904Y-142111904D01*
X109821666Y-142111904D01*
X109726428Y-142159523D01*
X109678809Y-142207142D01*
X109631190Y-142302380D01*
X109583571Y-142492857D01*
X109535952Y-142588095D01*
X109488333Y-142635714D01*
X109393095Y-142683333D01*
X109297857Y-142683333D01*
X109202619Y-142635714D01*
X109155000Y-142588095D01*
X109107380Y-142492857D01*
X109107380Y-142254761D01*
X109155000Y-142111904D01*
X109107380Y-141778571D02*
X110107380Y-141540476D01*
X109393095Y-141350000D01*
X110107380Y-141159523D01*
X109107380Y-140921428D01*
X109202619Y-140588095D02*
X109155000Y-140540476D01*
X109107380Y-140445238D01*
X109107380Y-140207142D01*
X109155000Y-140111904D01*
X109202619Y-140064285D01*
X109297857Y-140016666D01*
X109393095Y-140016666D01*
X109535952Y-140064285D01*
X110107380Y-140635714D01*
X110107380Y-140016666D01*
%TO.C,SW7*%
X188059761Y-93983333D02*
X188107380Y-93840476D01*
X188107380Y-93602380D01*
X188059761Y-93507142D01*
X188012142Y-93459523D01*
X187916904Y-93411904D01*
X187821666Y-93411904D01*
X187726428Y-93459523D01*
X187678809Y-93507142D01*
X187631190Y-93602380D01*
X187583571Y-93792857D01*
X187535952Y-93888095D01*
X187488333Y-93935714D01*
X187393095Y-93983333D01*
X187297857Y-93983333D01*
X187202619Y-93935714D01*
X187155000Y-93888095D01*
X187107380Y-93792857D01*
X187107380Y-93554761D01*
X187155000Y-93411904D01*
X187107380Y-93078571D02*
X188107380Y-92840476D01*
X187393095Y-92650000D01*
X188107380Y-92459523D01*
X187107380Y-92221428D01*
X187107380Y-91935714D02*
X187107380Y-91269047D01*
X188107380Y-91697619D01*
%TO.C,SW5*%
X162059761Y-93983333D02*
X162107380Y-93840476D01*
X162107380Y-93602380D01*
X162059761Y-93507142D01*
X162012142Y-93459523D01*
X161916904Y-93411904D01*
X161821666Y-93411904D01*
X161726428Y-93459523D01*
X161678809Y-93507142D01*
X161631190Y-93602380D01*
X161583571Y-93792857D01*
X161535952Y-93888095D01*
X161488333Y-93935714D01*
X161393095Y-93983333D01*
X161297857Y-93983333D01*
X161202619Y-93935714D01*
X161155000Y-93888095D01*
X161107380Y-93792857D01*
X161107380Y-93554761D01*
X161155000Y-93411904D01*
X161107380Y-93078571D02*
X162107380Y-92840476D01*
X161393095Y-92650000D01*
X162107380Y-92459523D01*
X161107380Y-92221428D01*
X161107380Y-91364285D02*
X161107380Y-91840476D01*
X161583571Y-91888095D01*
X161535952Y-91840476D01*
X161488333Y-91745238D01*
X161488333Y-91507142D01*
X161535952Y-91411904D01*
X161583571Y-91364285D01*
X161678809Y-91316666D01*
X161916904Y-91316666D01*
X162012142Y-91364285D01*
X162059761Y-91411904D01*
X162107380Y-91507142D01*
X162107380Y-91745238D01*
X162059761Y-91840476D01*
X162012142Y-91888095D01*
%TO.C,SW3*%
X136059761Y-93983333D02*
X136107380Y-93840476D01*
X136107380Y-93602380D01*
X136059761Y-93507142D01*
X136012142Y-93459523D01*
X135916904Y-93411904D01*
X135821666Y-93411904D01*
X135726428Y-93459523D01*
X135678809Y-93507142D01*
X135631190Y-93602380D01*
X135583571Y-93792857D01*
X135535952Y-93888095D01*
X135488333Y-93935714D01*
X135393095Y-93983333D01*
X135297857Y-93983333D01*
X135202619Y-93935714D01*
X135155000Y-93888095D01*
X135107380Y-93792857D01*
X135107380Y-93554761D01*
X135155000Y-93411904D01*
X135107380Y-93078571D02*
X136107380Y-92840476D01*
X135393095Y-92650000D01*
X136107380Y-92459523D01*
X135107380Y-92221428D01*
X135107380Y-91935714D02*
X135107380Y-91316666D01*
X135488333Y-91650000D01*
X135488333Y-91507142D01*
X135535952Y-91411904D01*
X135583571Y-91364285D01*
X135678809Y-91316666D01*
X135916904Y-91316666D01*
X136012142Y-91364285D01*
X136059761Y-91411904D01*
X136107380Y-91507142D01*
X136107380Y-91792857D01*
X136059761Y-91888095D01*
X136012142Y-91935714D01*
%TO.C,SW1*%
X110104761Y-93933333D02*
X110152380Y-93790476D01*
X110152380Y-93552380D01*
X110104761Y-93457142D01*
X110057142Y-93409523D01*
X109961904Y-93361904D01*
X109866666Y-93361904D01*
X109771428Y-93409523D01*
X109723809Y-93457142D01*
X109676190Y-93552380D01*
X109628571Y-93742857D01*
X109580952Y-93838095D01*
X109533333Y-93885714D01*
X109438095Y-93933333D01*
X109342857Y-93933333D01*
X109247619Y-93885714D01*
X109200000Y-93838095D01*
X109152380Y-93742857D01*
X109152380Y-93504761D01*
X109200000Y-93361904D01*
X109152380Y-93028571D02*
X110152380Y-92790476D01*
X109438095Y-92600000D01*
X110152380Y-92409523D01*
X109152380Y-92171428D01*
X110152380Y-91266666D02*
X110152380Y-91838095D01*
X110152380Y-91552380D02*
X109152380Y-91552380D01*
X109295238Y-91647619D01*
X109390476Y-91742857D01*
X109438095Y-91838095D01*
%TO.C,R2*%
X235322380Y-35146666D02*
X234846190Y-35480000D01*
X235322380Y-35718095D02*
X234322380Y-35718095D01*
X234322380Y-35337142D01*
X234370000Y-35241904D01*
X234417619Y-35194285D01*
X234512857Y-35146666D01*
X234655714Y-35146666D01*
X234750952Y-35194285D01*
X234798571Y-35241904D01*
X234846190Y-35337142D01*
X234846190Y-35718095D01*
X234417619Y-34765714D02*
X234370000Y-34718095D01*
X234322380Y-34622857D01*
X234322380Y-34384761D01*
X234370000Y-34289523D01*
X234417619Y-34241904D01*
X234512857Y-34194285D01*
X234608095Y-34194285D01*
X234750952Y-34241904D01*
X235322380Y-34813333D01*
X235322380Y-34194285D01*
X227485714Y-35741904D02*
X228152380Y-35741904D01*
X227104761Y-35980000D02*
X227819047Y-36218095D01*
X227819047Y-35599047D01*
X227152380Y-35313333D02*
X227152380Y-34646666D01*
X228152380Y-35075238D01*
X227152380Y-34075238D02*
X227152380Y-33980000D01*
X227200000Y-33884761D01*
X227247619Y-33837142D01*
X227342857Y-33789523D01*
X227533333Y-33741904D01*
X227771428Y-33741904D01*
X227961904Y-33789523D01*
X228057142Y-33837142D01*
X228104761Y-33884761D01*
X228152380Y-33980000D01*
X228152380Y-34075238D01*
X228104761Y-34170476D01*
X228057142Y-34218095D01*
X227961904Y-34265714D01*
X227771428Y-34313333D01*
X227533333Y-34313333D01*
X227342857Y-34265714D01*
X227247619Y-34218095D01*
X227200000Y-34170476D01*
X227152380Y-34075238D01*
%TO.C,SW0*%
X52004761Y-77233333D02*
X52052380Y-77090476D01*
X52052380Y-76852380D01*
X52004761Y-76757142D01*
X51957142Y-76709523D01*
X51861904Y-76661904D01*
X51766666Y-76661904D01*
X51671428Y-76709523D01*
X51623809Y-76757142D01*
X51576190Y-76852380D01*
X51528571Y-77042857D01*
X51480952Y-77138095D01*
X51433333Y-77185714D01*
X51338095Y-77233333D01*
X51242857Y-77233333D01*
X51147619Y-77185714D01*
X51100000Y-77138095D01*
X51052380Y-77042857D01*
X51052380Y-76804761D01*
X51100000Y-76661904D01*
X51052380Y-76328571D02*
X52052380Y-76090476D01*
X51338095Y-75900000D01*
X52052380Y-75709523D01*
X51052380Y-75471428D01*
X51052380Y-74900000D02*
X51052380Y-74804761D01*
X51100000Y-74709523D01*
X51147619Y-74661904D01*
X51242857Y-74614285D01*
X51433333Y-74566666D01*
X51671428Y-74566666D01*
X51861904Y-74614285D01*
X51957142Y-74661904D01*
X52004761Y-74709523D01*
X52052380Y-74804761D01*
X52052380Y-74900000D01*
X52004761Y-74995238D01*
X51957142Y-75042857D01*
X51861904Y-75090476D01*
X51671428Y-75138095D01*
X51433333Y-75138095D01*
X51242857Y-75090476D01*
X51147619Y-75042857D01*
X51100000Y-74995238D01*
X51052380Y-74900000D01*
%TO.C,J3*%
X201406666Y-47822379D02*
X201406666Y-48536665D01*
X201359047Y-48679522D01*
X201263809Y-48774760D01*
X201120952Y-48822379D01*
X201025714Y-48822379D01*
X201787619Y-47822379D02*
X202406666Y-47822379D01*
X202073333Y-48203332D01*
X202216190Y-48203332D01*
X202311428Y-48250951D01*
X202359047Y-48298570D01*
X202406666Y-48393808D01*
X202406666Y-48631903D01*
X202359047Y-48727141D01*
X202311428Y-48774760D01*
X202216190Y-48822379D01*
X201930476Y-48822379D01*
X201835238Y-48774760D01*
X201787619Y-48727141D01*
%TO.C,J2*%
X180306666Y-47822379D02*
X180306666Y-48536665D01*
X180259047Y-48679522D01*
X180163809Y-48774760D01*
X180020952Y-48822379D01*
X179925714Y-48822379D01*
X180735238Y-47917618D02*
X180782857Y-47869999D01*
X180878095Y-47822379D01*
X181116190Y-47822379D01*
X181211428Y-47869999D01*
X181259047Y-47917618D01*
X181306666Y-48012856D01*
X181306666Y-48108094D01*
X181259047Y-48250951D01*
X180687619Y-48822379D01*
X181306666Y-48822379D01*
%TO.C,J1*%
X159206666Y-47822379D02*
X159206666Y-48536665D01*
X159159047Y-48679522D01*
X159063809Y-48774760D01*
X158920952Y-48822379D01*
X158825714Y-48822379D01*
X160206666Y-48822379D02*
X159635238Y-48822379D01*
X159920952Y-48822379D02*
X159920952Y-47822379D01*
X159825714Y-47965237D01*
X159730476Y-48060475D01*
X159635238Y-48108094D01*
%TO.C,R5*%
X220552380Y-35066666D02*
X220076190Y-35400000D01*
X220552380Y-35638095D02*
X219552380Y-35638095D01*
X219552380Y-35257142D01*
X219600000Y-35161904D01*
X219647619Y-35114285D01*
X219742857Y-35066666D01*
X219885714Y-35066666D01*
X219980952Y-35114285D01*
X220028571Y-35161904D01*
X220076190Y-35257142D01*
X220076190Y-35638095D01*
X219552380Y-34161904D02*
X219552380Y-34638095D01*
X220028571Y-34685714D01*
X219980952Y-34638095D01*
X219933333Y-34542857D01*
X219933333Y-34304761D01*
X219980952Y-34209523D01*
X220028571Y-34161904D01*
X220123809Y-34114285D01*
X220361904Y-34114285D01*
X220457142Y-34161904D01*
X220504761Y-34209523D01*
X220552380Y-34304761D01*
X220552380Y-34542857D01*
X220504761Y-34638095D01*
X220457142Y-34685714D01*
X218252380Y-35090476D02*
X218252380Y-35661904D01*
X218252380Y-35376190D02*
X217252380Y-35376190D01*
X217395238Y-35471428D01*
X217490476Y-35566666D01*
X217538095Y-35661904D01*
X217252380Y-34471428D02*
X217252380Y-34376190D01*
X217300000Y-34280952D01*
X217347619Y-34233333D01*
X217442857Y-34185714D01*
X217633333Y-34138095D01*
X217871428Y-34138095D01*
X218061904Y-34185714D01*
X218157142Y-34233333D01*
X218204761Y-34280952D01*
X218252380Y-34376190D01*
X218252380Y-34471428D01*
X218204761Y-34566666D01*
X218157142Y-34614285D01*
X218061904Y-34661904D01*
X217871428Y-34709523D01*
X217633333Y-34709523D01*
X217442857Y-34661904D01*
X217347619Y-34614285D01*
X217300000Y-34566666D01*
X217252380Y-34471428D01*
%TO.C,R4*%
X225352380Y-35166666D02*
X224876190Y-35500000D01*
X225352380Y-35738095D02*
X224352380Y-35738095D01*
X224352380Y-35357142D01*
X224400000Y-35261904D01*
X224447619Y-35214285D01*
X224542857Y-35166666D01*
X224685714Y-35166666D01*
X224780952Y-35214285D01*
X224828571Y-35261904D01*
X224876190Y-35357142D01*
X224876190Y-35738095D01*
X224685714Y-34309523D02*
X225352380Y-34309523D01*
X224304761Y-34547619D02*
X225019047Y-34785714D01*
X225019047Y-34166666D01*
X222152380Y-35729523D02*
X222152380Y-35110476D01*
X222533333Y-35443809D01*
X222533333Y-35300952D01*
X222580952Y-35205714D01*
X222628571Y-35158095D01*
X222723809Y-35110476D01*
X222961904Y-35110476D01*
X223057142Y-35158095D01*
X223104761Y-35205714D01*
X223152380Y-35300952D01*
X223152380Y-35586666D01*
X223104761Y-35681904D01*
X223057142Y-35729523D01*
X222152380Y-34777142D02*
X222152380Y-34158095D01*
X222533333Y-34491428D01*
X222533333Y-34348571D01*
X222580952Y-34253333D01*
X222628571Y-34205714D01*
X222723809Y-34158095D01*
X222961904Y-34158095D01*
X223057142Y-34205714D01*
X223104761Y-34253333D01*
X223152380Y-34348571D01*
X223152380Y-34634285D01*
X223104761Y-34729523D01*
X223057142Y-34777142D01*
%TO.C,R3*%
X230552380Y-35166666D02*
X230076190Y-35500000D01*
X230552380Y-35738095D02*
X229552380Y-35738095D01*
X229552380Y-35357142D01*
X229600000Y-35261904D01*
X229647619Y-35214285D01*
X229742857Y-35166666D01*
X229885714Y-35166666D01*
X229980952Y-35214285D01*
X230028571Y-35261904D01*
X230076190Y-35357142D01*
X230076190Y-35738095D01*
X229552380Y-34833333D02*
X229552380Y-34214285D01*
X229933333Y-34547619D01*
X229933333Y-34404761D01*
X229980952Y-34309523D01*
X230028571Y-34261904D01*
X230123809Y-34214285D01*
X230361904Y-34214285D01*
X230457142Y-34261904D01*
X230504761Y-34309523D01*
X230552380Y-34404761D01*
X230552380Y-34690476D01*
X230504761Y-34785714D01*
X230457142Y-34833333D01*
X232052380Y-35729523D02*
X232052380Y-35110476D01*
X232433333Y-35443809D01*
X232433333Y-35300952D01*
X232480952Y-35205714D01*
X232528571Y-35158095D01*
X232623809Y-35110476D01*
X232861904Y-35110476D01*
X232957142Y-35158095D01*
X233004761Y-35205714D01*
X233052380Y-35300952D01*
X233052380Y-35586666D01*
X233004761Y-35681904D01*
X232957142Y-35729523D01*
X232052380Y-34777142D02*
X232052380Y-34158095D01*
X232433333Y-34491428D01*
X232433333Y-34348571D01*
X232480952Y-34253333D01*
X232528571Y-34205714D01*
X232623809Y-34158095D01*
X232861904Y-34158095D01*
X232957142Y-34205714D01*
X233004761Y-34253333D01*
X233052380Y-34348571D01*
X233052380Y-34634285D01*
X233004761Y-34729523D01*
X232957142Y-34777142D01*
%TO.C,R1*%
X240322380Y-35146666D02*
X239846190Y-35480000D01*
X240322380Y-35718095D02*
X239322380Y-35718095D01*
X239322380Y-35337142D01*
X239370000Y-35241904D01*
X239417619Y-35194285D01*
X239512857Y-35146666D01*
X239655714Y-35146666D01*
X239750952Y-35194285D01*
X239798571Y-35241904D01*
X239846190Y-35337142D01*
X239846190Y-35718095D01*
X240322380Y-34194285D02*
X240322380Y-34765714D01*
X240322380Y-34480000D02*
X239322380Y-34480000D01*
X239465238Y-34575238D01*
X239560476Y-34670476D01*
X239608095Y-34765714D01*
X237047619Y-36238095D02*
X237000000Y-36190476D01*
X236952380Y-36095238D01*
X236952380Y-35857142D01*
X237000000Y-35761904D01*
X237047619Y-35714285D01*
X237142857Y-35666666D01*
X237238095Y-35666666D01*
X237380952Y-35714285D01*
X237952380Y-36285714D01*
X237952380Y-35666666D01*
X237047619Y-35285714D02*
X237000000Y-35238095D01*
X236952380Y-35142857D01*
X236952380Y-34904761D01*
X237000000Y-34809523D01*
X237047619Y-34761904D01*
X237142857Y-34714285D01*
X237238095Y-34714285D01*
X237380952Y-34761904D01*
X237952380Y-35333333D01*
X237952380Y-34714285D01*
X236952380Y-34095238D02*
X236952380Y-34000000D01*
X237000000Y-33904761D01*
X237047619Y-33857142D01*
X237142857Y-33809523D01*
X237333333Y-33761904D01*
X237571428Y-33761904D01*
X237761904Y-33809523D01*
X237857142Y-33857142D01*
X237904761Y-33904761D01*
X237952380Y-34000000D01*
X237952380Y-34095238D01*
X237904761Y-34190476D01*
X237857142Y-34238095D01*
X237761904Y-34285714D01*
X237571428Y-34333333D01*
X237333333Y-34333333D01*
X237142857Y-34285714D01*
X237047619Y-34238095D01*
X237000000Y-34190476D01*
X236952380Y-34095238D01*
%TO.C,DS4*%
X172055714Y-122832380D02*
X172055714Y-121832380D01*
X172293809Y-121832380D01*
X172436666Y-121880000D01*
X172531904Y-121975238D01*
X172579523Y-122070476D01*
X172627142Y-122260952D01*
X172627142Y-122403809D01*
X172579523Y-122594285D01*
X172531904Y-122689523D01*
X172436666Y-122784761D01*
X172293809Y-122832380D01*
X172055714Y-122832380D01*
X173008095Y-122784761D02*
X173150952Y-122832380D01*
X173389047Y-122832380D01*
X173484285Y-122784761D01*
X173531904Y-122737142D01*
X173579523Y-122641904D01*
X173579523Y-122546666D01*
X173531904Y-122451428D01*
X173484285Y-122403809D01*
X173389047Y-122356190D01*
X173198571Y-122308571D01*
X173103333Y-122260952D01*
X173055714Y-122213333D01*
X173008095Y-122118095D01*
X173008095Y-122022857D01*
X173055714Y-121927619D01*
X173103333Y-121880000D01*
X173198571Y-121832380D01*
X173436666Y-121832380D01*
X173579523Y-121880000D01*
X174436666Y-122165714D02*
X174436666Y-122832380D01*
X174198571Y-121784761D02*
X173960476Y-122499047D01*
X174579523Y-122499047D01*
X176563333Y-113764761D02*
X176706190Y-113812380D01*
X176944285Y-113812380D01*
X177039523Y-113764761D01*
X177087142Y-113717142D01*
X177134761Y-113621904D01*
X177134761Y-113526666D01*
X177087142Y-113431428D01*
X177039523Y-113383809D01*
X176944285Y-113336190D01*
X176753809Y-113288571D01*
X176658571Y-113240952D01*
X176610952Y-113193333D01*
X176563333Y-113098095D01*
X176563333Y-113002857D01*
X176610952Y-112907619D01*
X176658571Y-112860000D01*
X176753809Y-112812380D01*
X176991904Y-112812380D01*
X177134761Y-112860000D01*
X177515714Y-113764761D02*
X177658571Y-113812380D01*
X177896666Y-113812380D01*
X177991904Y-113764761D01*
X178039523Y-113717142D01*
X178087142Y-113621904D01*
X178087142Y-113526666D01*
X178039523Y-113431428D01*
X177991904Y-113383809D01*
X177896666Y-113336190D01*
X177706190Y-113288571D01*
X177610952Y-113240952D01*
X177563333Y-113193333D01*
X177515714Y-113098095D01*
X177515714Y-113002857D01*
X177563333Y-112907619D01*
X177610952Y-112860000D01*
X177706190Y-112812380D01*
X177944285Y-112812380D01*
X178087142Y-112860000D01*
X178515714Y-113812380D02*
X178515714Y-112812380D01*
X178753809Y-112812380D01*
X178896666Y-112860000D01*
X178991904Y-112955238D01*
X179039523Y-113050476D01*
X179087142Y-113240952D01*
X179087142Y-113383809D01*
X179039523Y-113574285D01*
X178991904Y-113669523D01*
X178896666Y-113764761D01*
X178753809Y-113812380D01*
X178515714Y-113812380D01*
X180039523Y-113812380D02*
X179468095Y-113812380D01*
X179753809Y-113812380D02*
X179753809Y-112812380D01*
X179658571Y-112955238D01*
X179563333Y-113050476D01*
X179468095Y-113098095D01*
X180372857Y-112812380D02*
X180991904Y-112812380D01*
X180658571Y-113193333D01*
X180801428Y-113193333D01*
X180896666Y-113240952D01*
X180944285Y-113288571D01*
X180991904Y-113383809D01*
X180991904Y-113621904D01*
X180944285Y-113717142D01*
X180896666Y-113764761D01*
X180801428Y-113812380D01*
X180515714Y-113812380D01*
X180420476Y-113764761D01*
X180372857Y-113717142D01*
X181610952Y-112812380D02*
X181706190Y-112812380D01*
X181801428Y-112860000D01*
X181849047Y-112907619D01*
X181896666Y-113002857D01*
X181944285Y-113193333D01*
X181944285Y-113431428D01*
X181896666Y-113621904D01*
X181849047Y-113717142D01*
X181801428Y-113764761D01*
X181706190Y-113812380D01*
X181610952Y-113812380D01*
X181515714Y-113764761D01*
X181468095Y-113717142D01*
X181420476Y-113621904D01*
X181372857Y-113431428D01*
X181372857Y-113193333D01*
X181420476Y-113002857D01*
X181468095Y-112907619D01*
X181515714Y-112860000D01*
X181610952Y-112812380D01*
X182801428Y-112812380D02*
X182610952Y-112812380D01*
X182515714Y-112860000D01*
X182468095Y-112907619D01*
X182372857Y-113050476D01*
X182325238Y-113240952D01*
X182325238Y-113621904D01*
X182372857Y-113717142D01*
X182420476Y-113764761D01*
X182515714Y-113812380D01*
X182706190Y-113812380D01*
X182801428Y-113764761D01*
X182849047Y-113717142D01*
X182896666Y-113621904D01*
X182896666Y-113383809D01*
X182849047Y-113288571D01*
X182801428Y-113240952D01*
X182706190Y-113193333D01*
X182515714Y-113193333D01*
X182420476Y-113240952D01*
X182372857Y-113288571D01*
X182325238Y-113383809D01*
X178427619Y-110522380D02*
X178618095Y-110522380D01*
X178713333Y-110570000D01*
X178808571Y-110665238D01*
X178856190Y-110855714D01*
X178856190Y-111189047D01*
X178808571Y-111379523D01*
X178713333Y-111474761D01*
X178618095Y-111522380D01*
X178427619Y-111522380D01*
X178332380Y-111474761D01*
X178237142Y-111379523D01*
X178189523Y-111189047D01*
X178189523Y-110855714D01*
X178237142Y-110665238D01*
X178332380Y-110570000D01*
X178427619Y-110522380D01*
X179760952Y-111522380D02*
X179284761Y-111522380D01*
X179284761Y-110522380D01*
X180094285Y-110998571D02*
X180427619Y-110998571D01*
X180570476Y-111522380D02*
X180094285Y-111522380D01*
X180094285Y-110522380D01*
X180570476Y-110522380D01*
X180999047Y-111522380D02*
X180999047Y-110522380D01*
X181237142Y-110522380D01*
X181380000Y-110570000D01*
X181475238Y-110665238D01*
X181522857Y-110760476D01*
X181570476Y-110950952D01*
X181570476Y-111093809D01*
X181522857Y-111284285D01*
X181475238Y-111379523D01*
X181380000Y-111474761D01*
X181237142Y-111522380D01*
X180999047Y-111522380D01*
%TO.C,DS3*%
X146055714Y-122832380D02*
X146055714Y-121832380D01*
X146293809Y-121832380D01*
X146436666Y-121880000D01*
X146531904Y-121975238D01*
X146579523Y-122070476D01*
X146627142Y-122260952D01*
X146627142Y-122403809D01*
X146579523Y-122594285D01*
X146531904Y-122689523D01*
X146436666Y-122784761D01*
X146293809Y-122832380D01*
X146055714Y-122832380D01*
X147008095Y-122784761D02*
X147150952Y-122832380D01*
X147389047Y-122832380D01*
X147484285Y-122784761D01*
X147531904Y-122737142D01*
X147579523Y-122641904D01*
X147579523Y-122546666D01*
X147531904Y-122451428D01*
X147484285Y-122403809D01*
X147389047Y-122356190D01*
X147198571Y-122308571D01*
X147103333Y-122260952D01*
X147055714Y-122213333D01*
X147008095Y-122118095D01*
X147008095Y-122022857D01*
X147055714Y-121927619D01*
X147103333Y-121880000D01*
X147198571Y-121832380D01*
X147436666Y-121832380D01*
X147579523Y-121880000D01*
X147912857Y-121832380D02*
X148531904Y-121832380D01*
X148198571Y-122213333D01*
X148341428Y-122213333D01*
X148436666Y-122260952D01*
X148484285Y-122308571D01*
X148531904Y-122403809D01*
X148531904Y-122641904D01*
X148484285Y-122737142D01*
X148436666Y-122784761D01*
X148341428Y-122832380D01*
X148055714Y-122832380D01*
X147960476Y-122784761D01*
X147912857Y-122737142D01*
X150563333Y-113764761D02*
X150706190Y-113812380D01*
X150944285Y-113812380D01*
X151039523Y-113764761D01*
X151087142Y-113717142D01*
X151134761Y-113621904D01*
X151134761Y-113526666D01*
X151087142Y-113431428D01*
X151039523Y-113383809D01*
X150944285Y-113336190D01*
X150753809Y-113288571D01*
X150658571Y-113240952D01*
X150610952Y-113193333D01*
X150563333Y-113098095D01*
X150563333Y-113002857D01*
X150610952Y-112907619D01*
X150658571Y-112860000D01*
X150753809Y-112812380D01*
X150991904Y-112812380D01*
X151134761Y-112860000D01*
X151515714Y-113764761D02*
X151658571Y-113812380D01*
X151896666Y-113812380D01*
X151991904Y-113764761D01*
X152039523Y-113717142D01*
X152087142Y-113621904D01*
X152087142Y-113526666D01*
X152039523Y-113431428D01*
X151991904Y-113383809D01*
X151896666Y-113336190D01*
X151706190Y-113288571D01*
X151610952Y-113240952D01*
X151563333Y-113193333D01*
X151515714Y-113098095D01*
X151515714Y-113002857D01*
X151563333Y-112907619D01*
X151610952Y-112860000D01*
X151706190Y-112812380D01*
X151944285Y-112812380D01*
X152087142Y-112860000D01*
X152515714Y-113812380D02*
X152515714Y-112812380D01*
X152753809Y-112812380D01*
X152896666Y-112860000D01*
X152991904Y-112955238D01*
X153039523Y-113050476D01*
X153087142Y-113240952D01*
X153087142Y-113383809D01*
X153039523Y-113574285D01*
X152991904Y-113669523D01*
X152896666Y-113764761D01*
X152753809Y-113812380D01*
X152515714Y-113812380D01*
X154039523Y-113812380D02*
X153468095Y-113812380D01*
X153753809Y-113812380D02*
X153753809Y-112812380D01*
X153658571Y-112955238D01*
X153563333Y-113050476D01*
X153468095Y-113098095D01*
X154372857Y-112812380D02*
X154991904Y-112812380D01*
X154658571Y-113193333D01*
X154801428Y-113193333D01*
X154896666Y-113240952D01*
X154944285Y-113288571D01*
X154991904Y-113383809D01*
X154991904Y-113621904D01*
X154944285Y-113717142D01*
X154896666Y-113764761D01*
X154801428Y-113812380D01*
X154515714Y-113812380D01*
X154420476Y-113764761D01*
X154372857Y-113717142D01*
X155610952Y-112812380D02*
X155706190Y-112812380D01*
X155801428Y-112860000D01*
X155849047Y-112907619D01*
X155896666Y-113002857D01*
X155944285Y-113193333D01*
X155944285Y-113431428D01*
X155896666Y-113621904D01*
X155849047Y-113717142D01*
X155801428Y-113764761D01*
X155706190Y-113812380D01*
X155610952Y-113812380D01*
X155515714Y-113764761D01*
X155468095Y-113717142D01*
X155420476Y-113621904D01*
X155372857Y-113431428D01*
X155372857Y-113193333D01*
X155420476Y-113002857D01*
X155468095Y-112907619D01*
X155515714Y-112860000D01*
X155610952Y-112812380D01*
X156801428Y-112812380D02*
X156610952Y-112812380D01*
X156515714Y-112860000D01*
X156468095Y-112907619D01*
X156372857Y-113050476D01*
X156325238Y-113240952D01*
X156325238Y-113621904D01*
X156372857Y-113717142D01*
X156420476Y-113764761D01*
X156515714Y-113812380D01*
X156706190Y-113812380D01*
X156801428Y-113764761D01*
X156849047Y-113717142D01*
X156896666Y-113621904D01*
X156896666Y-113383809D01*
X156849047Y-113288571D01*
X156801428Y-113240952D01*
X156706190Y-113193333D01*
X156515714Y-113193333D01*
X156420476Y-113240952D01*
X156372857Y-113288571D01*
X156325238Y-113383809D01*
X152427619Y-110522380D02*
X152618095Y-110522380D01*
X152713333Y-110570000D01*
X152808571Y-110665238D01*
X152856190Y-110855714D01*
X152856190Y-111189047D01*
X152808571Y-111379523D01*
X152713333Y-111474761D01*
X152618095Y-111522380D01*
X152427619Y-111522380D01*
X152332380Y-111474761D01*
X152237142Y-111379523D01*
X152189523Y-111189047D01*
X152189523Y-110855714D01*
X152237142Y-110665238D01*
X152332380Y-110570000D01*
X152427619Y-110522380D01*
X153760952Y-111522380D02*
X153284761Y-111522380D01*
X153284761Y-110522380D01*
X154094285Y-110998571D02*
X154427619Y-110998571D01*
X154570476Y-111522380D02*
X154094285Y-111522380D01*
X154094285Y-110522380D01*
X154570476Y-110522380D01*
X154999047Y-111522380D02*
X154999047Y-110522380D01*
X155237142Y-110522380D01*
X155380000Y-110570000D01*
X155475238Y-110665238D01*
X155522857Y-110760476D01*
X155570476Y-110950952D01*
X155570476Y-111093809D01*
X155522857Y-111284285D01*
X155475238Y-111379523D01*
X155380000Y-111474761D01*
X155237142Y-111522380D01*
X154999047Y-111522380D01*
%TO.C,DS2*%
X120055714Y-122832380D02*
X120055714Y-121832380D01*
X120293809Y-121832380D01*
X120436666Y-121880000D01*
X120531904Y-121975238D01*
X120579523Y-122070476D01*
X120627142Y-122260952D01*
X120627142Y-122403809D01*
X120579523Y-122594285D01*
X120531904Y-122689523D01*
X120436666Y-122784761D01*
X120293809Y-122832380D01*
X120055714Y-122832380D01*
X121008095Y-122784761D02*
X121150952Y-122832380D01*
X121389047Y-122832380D01*
X121484285Y-122784761D01*
X121531904Y-122737142D01*
X121579523Y-122641904D01*
X121579523Y-122546666D01*
X121531904Y-122451428D01*
X121484285Y-122403809D01*
X121389047Y-122356190D01*
X121198571Y-122308571D01*
X121103333Y-122260952D01*
X121055714Y-122213333D01*
X121008095Y-122118095D01*
X121008095Y-122022857D01*
X121055714Y-121927619D01*
X121103333Y-121880000D01*
X121198571Y-121832380D01*
X121436666Y-121832380D01*
X121579523Y-121880000D01*
X121960476Y-121927619D02*
X122008095Y-121880000D01*
X122103333Y-121832380D01*
X122341428Y-121832380D01*
X122436666Y-121880000D01*
X122484285Y-121927619D01*
X122531904Y-122022857D01*
X122531904Y-122118095D01*
X122484285Y-122260952D01*
X121912857Y-122832380D01*
X122531904Y-122832380D01*
X124563333Y-113764761D02*
X124706190Y-113812380D01*
X124944285Y-113812380D01*
X125039523Y-113764761D01*
X125087142Y-113717142D01*
X125134761Y-113621904D01*
X125134761Y-113526666D01*
X125087142Y-113431428D01*
X125039523Y-113383809D01*
X124944285Y-113336190D01*
X124753809Y-113288571D01*
X124658571Y-113240952D01*
X124610952Y-113193333D01*
X124563333Y-113098095D01*
X124563333Y-113002857D01*
X124610952Y-112907619D01*
X124658571Y-112860000D01*
X124753809Y-112812380D01*
X124991904Y-112812380D01*
X125134761Y-112860000D01*
X125515714Y-113764761D02*
X125658571Y-113812380D01*
X125896666Y-113812380D01*
X125991904Y-113764761D01*
X126039523Y-113717142D01*
X126087142Y-113621904D01*
X126087142Y-113526666D01*
X126039523Y-113431428D01*
X125991904Y-113383809D01*
X125896666Y-113336190D01*
X125706190Y-113288571D01*
X125610952Y-113240952D01*
X125563333Y-113193333D01*
X125515714Y-113098095D01*
X125515714Y-113002857D01*
X125563333Y-112907619D01*
X125610952Y-112860000D01*
X125706190Y-112812380D01*
X125944285Y-112812380D01*
X126087142Y-112860000D01*
X126515714Y-113812380D02*
X126515714Y-112812380D01*
X126753809Y-112812380D01*
X126896666Y-112860000D01*
X126991904Y-112955238D01*
X127039523Y-113050476D01*
X127087142Y-113240952D01*
X127087142Y-113383809D01*
X127039523Y-113574285D01*
X126991904Y-113669523D01*
X126896666Y-113764761D01*
X126753809Y-113812380D01*
X126515714Y-113812380D01*
X128039523Y-113812380D02*
X127468095Y-113812380D01*
X127753809Y-113812380D02*
X127753809Y-112812380D01*
X127658571Y-112955238D01*
X127563333Y-113050476D01*
X127468095Y-113098095D01*
X128372857Y-112812380D02*
X128991904Y-112812380D01*
X128658571Y-113193333D01*
X128801428Y-113193333D01*
X128896666Y-113240952D01*
X128944285Y-113288571D01*
X128991904Y-113383809D01*
X128991904Y-113621904D01*
X128944285Y-113717142D01*
X128896666Y-113764761D01*
X128801428Y-113812380D01*
X128515714Y-113812380D01*
X128420476Y-113764761D01*
X128372857Y-113717142D01*
X129610952Y-112812380D02*
X129706190Y-112812380D01*
X129801428Y-112860000D01*
X129849047Y-112907619D01*
X129896666Y-113002857D01*
X129944285Y-113193333D01*
X129944285Y-113431428D01*
X129896666Y-113621904D01*
X129849047Y-113717142D01*
X129801428Y-113764761D01*
X129706190Y-113812380D01*
X129610952Y-113812380D01*
X129515714Y-113764761D01*
X129468095Y-113717142D01*
X129420476Y-113621904D01*
X129372857Y-113431428D01*
X129372857Y-113193333D01*
X129420476Y-113002857D01*
X129468095Y-112907619D01*
X129515714Y-112860000D01*
X129610952Y-112812380D01*
X130801428Y-112812380D02*
X130610952Y-112812380D01*
X130515714Y-112860000D01*
X130468095Y-112907619D01*
X130372857Y-113050476D01*
X130325238Y-113240952D01*
X130325238Y-113621904D01*
X130372857Y-113717142D01*
X130420476Y-113764761D01*
X130515714Y-113812380D01*
X130706190Y-113812380D01*
X130801428Y-113764761D01*
X130849047Y-113717142D01*
X130896666Y-113621904D01*
X130896666Y-113383809D01*
X130849047Y-113288571D01*
X130801428Y-113240952D01*
X130706190Y-113193333D01*
X130515714Y-113193333D01*
X130420476Y-113240952D01*
X130372857Y-113288571D01*
X130325238Y-113383809D01*
X126427619Y-110522380D02*
X126618095Y-110522380D01*
X126713333Y-110570000D01*
X126808571Y-110665238D01*
X126856190Y-110855714D01*
X126856190Y-111189047D01*
X126808571Y-111379523D01*
X126713333Y-111474761D01*
X126618095Y-111522380D01*
X126427619Y-111522380D01*
X126332380Y-111474761D01*
X126237142Y-111379523D01*
X126189523Y-111189047D01*
X126189523Y-110855714D01*
X126237142Y-110665238D01*
X126332380Y-110570000D01*
X126427619Y-110522380D01*
X127760952Y-111522380D02*
X127284761Y-111522380D01*
X127284761Y-110522380D01*
X128094285Y-110998571D02*
X128427619Y-110998571D01*
X128570476Y-111522380D02*
X128094285Y-111522380D01*
X128094285Y-110522380D01*
X128570476Y-110522380D01*
X128999047Y-111522380D02*
X128999047Y-110522380D01*
X129237142Y-110522380D01*
X129380000Y-110570000D01*
X129475238Y-110665238D01*
X129522857Y-110760476D01*
X129570476Y-110950952D01*
X129570476Y-111093809D01*
X129522857Y-111284285D01*
X129475238Y-111379523D01*
X129380000Y-111474761D01*
X129237142Y-111522380D01*
X128999047Y-111522380D01*
%TO.C,DS1*%
X94055714Y-122832380D02*
X94055714Y-121832380D01*
X94293809Y-121832380D01*
X94436666Y-121880000D01*
X94531904Y-121975238D01*
X94579523Y-122070476D01*
X94627142Y-122260952D01*
X94627142Y-122403809D01*
X94579523Y-122594285D01*
X94531904Y-122689523D01*
X94436666Y-122784761D01*
X94293809Y-122832380D01*
X94055714Y-122832380D01*
X95008095Y-122784761D02*
X95150952Y-122832380D01*
X95389047Y-122832380D01*
X95484285Y-122784761D01*
X95531904Y-122737142D01*
X95579523Y-122641904D01*
X95579523Y-122546666D01*
X95531904Y-122451428D01*
X95484285Y-122403809D01*
X95389047Y-122356190D01*
X95198571Y-122308571D01*
X95103333Y-122260952D01*
X95055714Y-122213333D01*
X95008095Y-122118095D01*
X95008095Y-122022857D01*
X95055714Y-121927619D01*
X95103333Y-121880000D01*
X95198571Y-121832380D01*
X95436666Y-121832380D01*
X95579523Y-121880000D01*
X96531904Y-122832380D02*
X95960476Y-122832380D01*
X96246190Y-122832380D02*
X96246190Y-121832380D01*
X96150952Y-121975238D01*
X96055714Y-122070476D01*
X95960476Y-122118095D01*
X98563333Y-113764761D02*
X98706190Y-113812380D01*
X98944285Y-113812380D01*
X99039523Y-113764761D01*
X99087142Y-113717142D01*
X99134761Y-113621904D01*
X99134761Y-113526666D01*
X99087142Y-113431428D01*
X99039523Y-113383809D01*
X98944285Y-113336190D01*
X98753809Y-113288571D01*
X98658571Y-113240952D01*
X98610952Y-113193333D01*
X98563333Y-113098095D01*
X98563333Y-113002857D01*
X98610952Y-112907619D01*
X98658571Y-112860000D01*
X98753809Y-112812380D01*
X98991904Y-112812380D01*
X99134761Y-112860000D01*
X99515714Y-113764761D02*
X99658571Y-113812380D01*
X99896666Y-113812380D01*
X99991904Y-113764761D01*
X100039523Y-113717142D01*
X100087142Y-113621904D01*
X100087142Y-113526666D01*
X100039523Y-113431428D01*
X99991904Y-113383809D01*
X99896666Y-113336190D01*
X99706190Y-113288571D01*
X99610952Y-113240952D01*
X99563333Y-113193333D01*
X99515714Y-113098095D01*
X99515714Y-113002857D01*
X99563333Y-112907619D01*
X99610952Y-112860000D01*
X99706190Y-112812380D01*
X99944285Y-112812380D01*
X100087142Y-112860000D01*
X100515714Y-113812380D02*
X100515714Y-112812380D01*
X100753809Y-112812380D01*
X100896666Y-112860000D01*
X100991904Y-112955238D01*
X101039523Y-113050476D01*
X101087142Y-113240952D01*
X101087142Y-113383809D01*
X101039523Y-113574285D01*
X100991904Y-113669523D01*
X100896666Y-113764761D01*
X100753809Y-113812380D01*
X100515714Y-113812380D01*
X102039523Y-113812380D02*
X101468095Y-113812380D01*
X101753809Y-113812380D02*
X101753809Y-112812380D01*
X101658571Y-112955238D01*
X101563333Y-113050476D01*
X101468095Y-113098095D01*
X102372857Y-112812380D02*
X102991904Y-112812380D01*
X102658571Y-113193333D01*
X102801428Y-113193333D01*
X102896666Y-113240952D01*
X102944285Y-113288571D01*
X102991904Y-113383809D01*
X102991904Y-113621904D01*
X102944285Y-113717142D01*
X102896666Y-113764761D01*
X102801428Y-113812380D01*
X102515714Y-113812380D01*
X102420476Y-113764761D01*
X102372857Y-113717142D01*
X103610952Y-112812380D02*
X103706190Y-112812380D01*
X103801428Y-112860000D01*
X103849047Y-112907619D01*
X103896666Y-113002857D01*
X103944285Y-113193333D01*
X103944285Y-113431428D01*
X103896666Y-113621904D01*
X103849047Y-113717142D01*
X103801428Y-113764761D01*
X103706190Y-113812380D01*
X103610952Y-113812380D01*
X103515714Y-113764761D01*
X103468095Y-113717142D01*
X103420476Y-113621904D01*
X103372857Y-113431428D01*
X103372857Y-113193333D01*
X103420476Y-113002857D01*
X103468095Y-112907619D01*
X103515714Y-112860000D01*
X103610952Y-112812380D01*
X104801428Y-112812380D02*
X104610952Y-112812380D01*
X104515714Y-112860000D01*
X104468095Y-112907619D01*
X104372857Y-113050476D01*
X104325238Y-113240952D01*
X104325238Y-113621904D01*
X104372857Y-113717142D01*
X104420476Y-113764761D01*
X104515714Y-113812380D01*
X104706190Y-113812380D01*
X104801428Y-113764761D01*
X104849047Y-113717142D01*
X104896666Y-113621904D01*
X104896666Y-113383809D01*
X104849047Y-113288571D01*
X104801428Y-113240952D01*
X104706190Y-113193333D01*
X104515714Y-113193333D01*
X104420476Y-113240952D01*
X104372857Y-113288571D01*
X104325238Y-113383809D01*
X100427619Y-110522380D02*
X100618095Y-110522380D01*
X100713333Y-110570000D01*
X100808571Y-110665238D01*
X100856190Y-110855714D01*
X100856190Y-111189047D01*
X100808571Y-111379523D01*
X100713333Y-111474761D01*
X100618095Y-111522380D01*
X100427619Y-111522380D01*
X100332380Y-111474761D01*
X100237142Y-111379523D01*
X100189523Y-111189047D01*
X100189523Y-110855714D01*
X100237142Y-110665238D01*
X100332380Y-110570000D01*
X100427619Y-110522380D01*
X101760952Y-111522380D02*
X101284761Y-111522380D01*
X101284761Y-110522380D01*
X102094285Y-110998571D02*
X102427619Y-110998571D01*
X102570476Y-111522380D02*
X102094285Y-111522380D01*
X102094285Y-110522380D01*
X102570476Y-110522380D01*
X102999047Y-111522380D02*
X102999047Y-110522380D01*
X103237142Y-110522380D01*
X103380000Y-110570000D01*
X103475238Y-110665238D01*
X103522857Y-110760476D01*
X103570476Y-110950952D01*
X103570476Y-111093809D01*
X103522857Y-111284285D01*
X103475238Y-111379523D01*
X103380000Y-111474761D01*
X103237142Y-111522380D01*
X102999047Y-111522380D01*
%TO.C,U5*%
X82488095Y-48852380D02*
X82488095Y-49661904D01*
X82535714Y-49757142D01*
X82583333Y-49804761D01*
X82678571Y-49852380D01*
X82869047Y-49852380D01*
X82964285Y-49804761D01*
X83011904Y-49757142D01*
X83059523Y-49661904D01*
X83059523Y-48852380D01*
X84011904Y-48852380D02*
X83535714Y-48852380D01*
X83488095Y-49328571D01*
X83535714Y-49280952D01*
X83630952Y-49233333D01*
X83869047Y-49233333D01*
X83964285Y-49280952D01*
X84011904Y-49328571D01*
X84059523Y-49423809D01*
X84059523Y-49661904D01*
X84011904Y-49757142D01*
X83964285Y-49804761D01*
X83869047Y-49852380D01*
X83630952Y-49852380D01*
X83535714Y-49804761D01*
X83488095Y-49757142D01*
X70704761Y-33125904D02*
X70752380Y-32983047D01*
X70752380Y-32744952D01*
X70704761Y-32649714D01*
X70657142Y-32602095D01*
X70561904Y-32554476D01*
X70466666Y-32554476D01*
X70371428Y-32602095D01*
X70323809Y-32649714D01*
X70276190Y-32744952D01*
X70228571Y-32935428D01*
X70180952Y-33030666D01*
X70133333Y-33078285D01*
X70038095Y-33125904D01*
X69942857Y-33125904D01*
X69847619Y-33078285D01*
X69800000Y-33030666D01*
X69752380Y-32935428D01*
X69752380Y-32697333D01*
X69800000Y-32554476D01*
X70657142Y-31554476D02*
X70704761Y-31602095D01*
X70752380Y-31744952D01*
X70752380Y-31840190D01*
X70704761Y-31983047D01*
X70609523Y-32078285D01*
X70514285Y-32125904D01*
X70323809Y-32173523D01*
X70180952Y-32173523D01*
X69990476Y-32125904D01*
X69895238Y-32078285D01*
X69800000Y-31983047D01*
X69752380Y-31840190D01*
X69752380Y-31744952D01*
X69800000Y-31602095D01*
X69847619Y-31554476D01*
X70085714Y-30697333D02*
X70752380Y-30697333D01*
X69704761Y-30935428D02*
X70419047Y-31173523D01*
X70419047Y-30554476D01*
X73244761Y-33125904D02*
X73292380Y-32983047D01*
X73292380Y-32744952D01*
X73244761Y-32649714D01*
X73197142Y-32602095D01*
X73101904Y-32554476D01*
X73006666Y-32554476D01*
X72911428Y-32602095D01*
X72863809Y-32649714D01*
X72816190Y-32744952D01*
X72768571Y-32935428D01*
X72720952Y-33030666D01*
X72673333Y-33078285D01*
X72578095Y-33125904D01*
X72482857Y-33125904D01*
X72387619Y-33078285D01*
X72340000Y-33030666D01*
X72292380Y-32935428D01*
X72292380Y-32697333D01*
X72340000Y-32554476D01*
X73292380Y-32125904D02*
X72292380Y-32125904D01*
X72292380Y-31887809D01*
X72340000Y-31744952D01*
X72435238Y-31649714D01*
X72530476Y-31602095D01*
X72720952Y-31554476D01*
X72863809Y-31554476D01*
X73054285Y-31602095D01*
X73149523Y-31649714D01*
X73244761Y-31744952D01*
X73292380Y-31887809D01*
X73292380Y-32125904D01*
X72625714Y-30697333D02*
X73292380Y-30697333D01*
X72244761Y-30935428D02*
X72959047Y-31173523D01*
X72959047Y-30554476D01*
X75784761Y-33125904D02*
X75832380Y-32983047D01*
X75832380Y-32744952D01*
X75784761Y-32649714D01*
X75737142Y-32602095D01*
X75641904Y-32554476D01*
X75546666Y-32554476D01*
X75451428Y-32602095D01*
X75403809Y-32649714D01*
X75356190Y-32744952D01*
X75308571Y-32935428D01*
X75260952Y-33030666D01*
X75213333Y-33078285D01*
X75118095Y-33125904D01*
X75022857Y-33125904D01*
X74927619Y-33078285D01*
X74880000Y-33030666D01*
X74832380Y-32935428D01*
X74832380Y-32697333D01*
X74880000Y-32554476D01*
X75737142Y-31554476D02*
X75784761Y-31602095D01*
X75832380Y-31744952D01*
X75832380Y-31840190D01*
X75784761Y-31983047D01*
X75689523Y-32078285D01*
X75594285Y-32125904D01*
X75403809Y-32173523D01*
X75260952Y-32173523D01*
X75070476Y-32125904D01*
X74975238Y-32078285D01*
X74880000Y-31983047D01*
X74832380Y-31840190D01*
X74832380Y-31744952D01*
X74880000Y-31602095D01*
X74927619Y-31554476D01*
X74832380Y-31221142D02*
X74832380Y-30602095D01*
X75213333Y-30935428D01*
X75213333Y-30792571D01*
X75260952Y-30697333D01*
X75308571Y-30649714D01*
X75403809Y-30602095D01*
X75641904Y-30602095D01*
X75737142Y-30649714D01*
X75784761Y-30697333D01*
X75832380Y-30792571D01*
X75832380Y-31078285D01*
X75784761Y-31173523D01*
X75737142Y-31221142D01*
X78324761Y-33125904D02*
X78372380Y-32983047D01*
X78372380Y-32744952D01*
X78324761Y-32649714D01*
X78277142Y-32602095D01*
X78181904Y-32554476D01*
X78086666Y-32554476D01*
X77991428Y-32602095D01*
X77943809Y-32649714D01*
X77896190Y-32744952D01*
X77848571Y-32935428D01*
X77800952Y-33030666D01*
X77753333Y-33078285D01*
X77658095Y-33125904D01*
X77562857Y-33125904D01*
X77467619Y-33078285D01*
X77420000Y-33030666D01*
X77372380Y-32935428D01*
X77372380Y-32697333D01*
X77420000Y-32554476D01*
X78372380Y-32125904D02*
X77372380Y-32125904D01*
X77372380Y-31887809D01*
X77420000Y-31744952D01*
X77515238Y-31649714D01*
X77610476Y-31602095D01*
X77800952Y-31554476D01*
X77943809Y-31554476D01*
X78134285Y-31602095D01*
X78229523Y-31649714D01*
X78324761Y-31744952D01*
X78372380Y-31887809D01*
X78372380Y-32125904D01*
X77372380Y-31221142D02*
X77372380Y-30602095D01*
X77753333Y-30935428D01*
X77753333Y-30792571D01*
X77800952Y-30697333D01*
X77848571Y-30649714D01*
X77943809Y-30602095D01*
X78181904Y-30602095D01*
X78277142Y-30649714D01*
X78324761Y-30697333D01*
X78372380Y-30792571D01*
X78372380Y-31078285D01*
X78324761Y-31173523D01*
X78277142Y-31221142D01*
X80864761Y-33125904D02*
X80912380Y-32983047D01*
X80912380Y-32744952D01*
X80864761Y-32649714D01*
X80817142Y-32602095D01*
X80721904Y-32554476D01*
X80626666Y-32554476D01*
X80531428Y-32602095D01*
X80483809Y-32649714D01*
X80436190Y-32744952D01*
X80388571Y-32935428D01*
X80340952Y-33030666D01*
X80293333Y-33078285D01*
X80198095Y-33125904D01*
X80102857Y-33125904D01*
X80007619Y-33078285D01*
X79960000Y-33030666D01*
X79912380Y-32935428D01*
X79912380Y-32697333D01*
X79960000Y-32554476D01*
X80817142Y-31554476D02*
X80864761Y-31602095D01*
X80912380Y-31744952D01*
X80912380Y-31840190D01*
X80864761Y-31983047D01*
X80769523Y-32078285D01*
X80674285Y-32125904D01*
X80483809Y-32173523D01*
X80340952Y-32173523D01*
X80150476Y-32125904D01*
X80055238Y-32078285D01*
X79960000Y-31983047D01*
X79912380Y-31840190D01*
X79912380Y-31744952D01*
X79960000Y-31602095D01*
X80007619Y-31554476D01*
X80007619Y-31173523D02*
X79960000Y-31125904D01*
X79912380Y-31030666D01*
X79912380Y-30792571D01*
X79960000Y-30697333D01*
X80007619Y-30649714D01*
X80102857Y-30602095D01*
X80198095Y-30602095D01*
X80340952Y-30649714D01*
X80912380Y-31221142D01*
X80912380Y-30602095D01*
X83404761Y-33125904D02*
X83452380Y-32983047D01*
X83452380Y-32744952D01*
X83404761Y-32649714D01*
X83357142Y-32602095D01*
X83261904Y-32554476D01*
X83166666Y-32554476D01*
X83071428Y-32602095D01*
X83023809Y-32649714D01*
X82976190Y-32744952D01*
X82928571Y-32935428D01*
X82880952Y-33030666D01*
X82833333Y-33078285D01*
X82738095Y-33125904D01*
X82642857Y-33125904D01*
X82547619Y-33078285D01*
X82500000Y-33030666D01*
X82452380Y-32935428D01*
X82452380Y-32697333D01*
X82500000Y-32554476D01*
X83452380Y-32125904D02*
X82452380Y-32125904D01*
X82452380Y-31887809D01*
X82500000Y-31744952D01*
X82595238Y-31649714D01*
X82690476Y-31602095D01*
X82880952Y-31554476D01*
X83023809Y-31554476D01*
X83214285Y-31602095D01*
X83309523Y-31649714D01*
X83404761Y-31744952D01*
X83452380Y-31887809D01*
X83452380Y-32125904D01*
X82547619Y-31173523D02*
X82500000Y-31125904D01*
X82452380Y-31030666D01*
X82452380Y-30792571D01*
X82500000Y-30697333D01*
X82547619Y-30649714D01*
X82642857Y-30602095D01*
X82738095Y-30602095D01*
X82880952Y-30649714D01*
X83452380Y-31221142D01*
X83452380Y-30602095D01*
X83404761Y-45317904D02*
X83452380Y-45175047D01*
X83452380Y-44936952D01*
X83404761Y-44841714D01*
X83357142Y-44794095D01*
X83261904Y-44746476D01*
X83166666Y-44746476D01*
X83071428Y-44794095D01*
X83023809Y-44841714D01*
X82976190Y-44936952D01*
X82928571Y-45127428D01*
X82880952Y-45222666D01*
X82833333Y-45270285D01*
X82738095Y-45317904D01*
X82642857Y-45317904D01*
X82547619Y-45270285D01*
X82500000Y-45222666D01*
X82452380Y-45127428D01*
X82452380Y-44889333D01*
X82500000Y-44746476D01*
X83357142Y-43746476D02*
X83404761Y-43794095D01*
X83452380Y-43936952D01*
X83452380Y-44032190D01*
X83404761Y-44175047D01*
X83309523Y-44270285D01*
X83214285Y-44317904D01*
X83023809Y-44365523D01*
X82880952Y-44365523D01*
X82690476Y-44317904D01*
X82595238Y-44270285D01*
X82500000Y-44175047D01*
X82452380Y-44032190D01*
X82452380Y-43936952D01*
X82500000Y-43794095D01*
X82547619Y-43746476D01*
X83452380Y-42794095D02*
X83452380Y-43365523D01*
X83452380Y-43079809D02*
X82452380Y-43079809D01*
X82595238Y-43175047D01*
X82690476Y-43270285D01*
X82738095Y-43365523D01*
X80864761Y-45317904D02*
X80912380Y-45175047D01*
X80912380Y-44936952D01*
X80864761Y-44841714D01*
X80817142Y-44794095D01*
X80721904Y-44746476D01*
X80626666Y-44746476D01*
X80531428Y-44794095D01*
X80483809Y-44841714D01*
X80436190Y-44936952D01*
X80388571Y-45127428D01*
X80340952Y-45222666D01*
X80293333Y-45270285D01*
X80198095Y-45317904D01*
X80102857Y-45317904D01*
X80007619Y-45270285D01*
X79960000Y-45222666D01*
X79912380Y-45127428D01*
X79912380Y-44889333D01*
X79960000Y-44746476D01*
X80912380Y-44317904D02*
X79912380Y-44317904D01*
X79912380Y-44079809D01*
X79960000Y-43936952D01*
X80055238Y-43841714D01*
X80150476Y-43794095D01*
X80340952Y-43746476D01*
X80483809Y-43746476D01*
X80674285Y-43794095D01*
X80769523Y-43841714D01*
X80864761Y-43936952D01*
X80912380Y-44079809D01*
X80912380Y-44317904D01*
X80912380Y-42794095D02*
X80912380Y-43365523D01*
X80912380Y-43079809D02*
X79912380Y-43079809D01*
X80055238Y-43175047D01*
X80150476Y-43270285D01*
X80198095Y-43365523D01*
X78324761Y-45317904D02*
X78372380Y-45175047D01*
X78372380Y-44936952D01*
X78324761Y-44841714D01*
X78277142Y-44794095D01*
X78181904Y-44746476D01*
X78086666Y-44746476D01*
X77991428Y-44794095D01*
X77943809Y-44841714D01*
X77896190Y-44936952D01*
X77848571Y-45127428D01*
X77800952Y-45222666D01*
X77753333Y-45270285D01*
X77658095Y-45317904D01*
X77562857Y-45317904D01*
X77467619Y-45270285D01*
X77420000Y-45222666D01*
X77372380Y-45127428D01*
X77372380Y-44889333D01*
X77420000Y-44746476D01*
X78277142Y-43746476D02*
X78324761Y-43794095D01*
X78372380Y-43936952D01*
X78372380Y-44032190D01*
X78324761Y-44175047D01*
X78229523Y-44270285D01*
X78134285Y-44317904D01*
X77943809Y-44365523D01*
X77800952Y-44365523D01*
X77610476Y-44317904D01*
X77515238Y-44270285D01*
X77420000Y-44175047D01*
X77372380Y-44032190D01*
X77372380Y-43936952D01*
X77420000Y-43794095D01*
X77467619Y-43746476D01*
X77372380Y-43127428D02*
X77372380Y-43032190D01*
X77420000Y-42936952D01*
X77467619Y-42889333D01*
X77562857Y-42841714D01*
X77753333Y-42794095D01*
X77991428Y-42794095D01*
X78181904Y-42841714D01*
X78277142Y-42889333D01*
X78324761Y-42936952D01*
X78372380Y-43032190D01*
X78372380Y-43127428D01*
X78324761Y-43222666D01*
X78277142Y-43270285D01*
X78181904Y-43317904D01*
X77991428Y-43365523D01*
X77753333Y-43365523D01*
X77562857Y-43317904D01*
X77467619Y-43270285D01*
X77420000Y-43222666D01*
X77372380Y-43127428D01*
X75784761Y-45317904D02*
X75832380Y-45175047D01*
X75832380Y-44936952D01*
X75784761Y-44841714D01*
X75737142Y-44794095D01*
X75641904Y-44746476D01*
X75546666Y-44746476D01*
X75451428Y-44794095D01*
X75403809Y-44841714D01*
X75356190Y-44936952D01*
X75308571Y-45127428D01*
X75260952Y-45222666D01*
X75213333Y-45270285D01*
X75118095Y-45317904D01*
X75022857Y-45317904D01*
X74927619Y-45270285D01*
X74880000Y-45222666D01*
X74832380Y-45127428D01*
X74832380Y-44889333D01*
X74880000Y-44746476D01*
X75832380Y-44317904D02*
X74832380Y-44317904D01*
X74832380Y-44079809D01*
X74880000Y-43936952D01*
X74975238Y-43841714D01*
X75070476Y-43794095D01*
X75260952Y-43746476D01*
X75403809Y-43746476D01*
X75594285Y-43794095D01*
X75689523Y-43841714D01*
X75784761Y-43936952D01*
X75832380Y-44079809D01*
X75832380Y-44317904D01*
X74832380Y-43127428D02*
X74832380Y-43032190D01*
X74880000Y-42936952D01*
X74927619Y-42889333D01*
X75022857Y-42841714D01*
X75213333Y-42794095D01*
X75451428Y-42794095D01*
X75641904Y-42841714D01*
X75737142Y-42889333D01*
X75784761Y-42936952D01*
X75832380Y-43032190D01*
X75832380Y-43127428D01*
X75784761Y-43222666D01*
X75737142Y-43270285D01*
X75641904Y-43317904D01*
X75451428Y-43365523D01*
X75213333Y-43365523D01*
X75022857Y-43317904D01*
X74927619Y-43270285D01*
X74880000Y-43222666D01*
X74832380Y-43127428D01*
X63084761Y-45246476D02*
X63132380Y-45103619D01*
X63132380Y-44865523D01*
X63084761Y-44770285D01*
X63037142Y-44722666D01*
X62941904Y-44675047D01*
X62846666Y-44675047D01*
X62751428Y-44722666D01*
X62703809Y-44770285D01*
X62656190Y-44865523D01*
X62608571Y-45056000D01*
X62560952Y-45151238D01*
X62513333Y-45198857D01*
X62418095Y-45246476D01*
X62322857Y-45246476D01*
X62227619Y-45198857D01*
X62180000Y-45151238D01*
X62132380Y-45056000D01*
X62132380Y-44817904D01*
X62180000Y-44675047D01*
X63037142Y-43675047D02*
X63084761Y-43722666D01*
X63132380Y-43865523D01*
X63132380Y-43960761D01*
X63084761Y-44103619D01*
X62989523Y-44198857D01*
X62894285Y-44246476D01*
X62703809Y-44294095D01*
X62560952Y-44294095D01*
X62370476Y-44246476D01*
X62275238Y-44198857D01*
X62180000Y-44103619D01*
X62132380Y-43960761D01*
X62132380Y-43865523D01*
X62180000Y-43722666D01*
X62227619Y-43675047D01*
X63132380Y-42770285D02*
X63132380Y-43246476D01*
X62132380Y-43246476D01*
X60544761Y-45270285D02*
X60592380Y-45127428D01*
X60592380Y-44889333D01*
X60544761Y-44794095D01*
X60497142Y-44746476D01*
X60401904Y-44698857D01*
X60306666Y-44698857D01*
X60211428Y-44746476D01*
X60163809Y-44794095D01*
X60116190Y-44889333D01*
X60068571Y-45079809D01*
X60020952Y-45175047D01*
X59973333Y-45222666D01*
X59878095Y-45270285D01*
X59782857Y-45270285D01*
X59687619Y-45222666D01*
X59640000Y-45175047D01*
X59592380Y-45079809D01*
X59592380Y-44841714D01*
X59640000Y-44698857D01*
X60592380Y-44270285D02*
X59592380Y-44270285D01*
X59592380Y-44032190D01*
X59640000Y-43889333D01*
X59735238Y-43794095D01*
X59830476Y-43746476D01*
X60020952Y-43698857D01*
X60163809Y-43698857D01*
X60354285Y-43746476D01*
X60449523Y-43794095D01*
X60544761Y-43889333D01*
X60592380Y-44032190D01*
X60592380Y-44270285D01*
X60306666Y-43317904D02*
X60306666Y-42841714D01*
X60592380Y-43413142D02*
X59592380Y-43079809D01*
X60592380Y-42746476D01*
X57100000Y-44817904D02*
X57052380Y-44913142D01*
X57052380Y-45056000D01*
X57100000Y-45198857D01*
X57195238Y-45294095D01*
X57290476Y-45341714D01*
X57480952Y-45389333D01*
X57623809Y-45389333D01*
X57814285Y-45341714D01*
X57909523Y-45294095D01*
X58004761Y-45198857D01*
X58052380Y-45056000D01*
X58052380Y-44960761D01*
X58004761Y-44817904D01*
X57957142Y-44770285D01*
X57623809Y-44770285D01*
X57623809Y-44960761D01*
X58052380Y-44341714D02*
X57052380Y-44341714D01*
X58052380Y-43770285D01*
X57052380Y-43770285D01*
X58052380Y-43294095D02*
X57052380Y-43294095D01*
X57052380Y-43056000D01*
X57100000Y-42913142D01*
X57195238Y-42817904D01*
X57290476Y-42770285D01*
X57480952Y-42722666D01*
X57623809Y-42722666D01*
X57814285Y-42770285D01*
X57909523Y-42817904D01*
X58004761Y-42913142D01*
X58052380Y-43056000D01*
X58052380Y-43294095D01*
X54512380Y-45405238D02*
X55512380Y-45071904D01*
X54512380Y-44738571D01*
X55512380Y-44405238D02*
X54512380Y-44405238D01*
X55512380Y-43929047D02*
X54512380Y-43929047D01*
X55512380Y-43357619D01*
X54512380Y-43357619D01*
X59592380Y-40999619D02*
X59592380Y-40428190D01*
X60592380Y-40713904D02*
X59592380Y-40713904D01*
X60497142Y-39523428D02*
X60544761Y-39571047D01*
X60592380Y-39713904D01*
X60592380Y-39809142D01*
X60544761Y-39952000D01*
X60449523Y-40047238D01*
X60354285Y-40094857D01*
X60163809Y-40142476D01*
X60020952Y-40142476D01*
X59830476Y-40094857D01*
X59735238Y-40047238D01*
X59640000Y-39952000D01*
X59592380Y-39809142D01*
X59592380Y-39713904D01*
X59640000Y-39571047D01*
X59687619Y-39523428D01*
X60306666Y-39142476D02*
X60306666Y-38666285D01*
X60592380Y-39237714D02*
X59592380Y-38904380D01*
X60592380Y-38571047D01*
X60592380Y-38190095D02*
X60592380Y-37999619D01*
X60544761Y-37904380D01*
X60497142Y-37856761D01*
X60354285Y-37761523D01*
X60163809Y-37713904D01*
X59782857Y-37713904D01*
X59687619Y-37761523D01*
X59640000Y-37809142D01*
X59592380Y-37904380D01*
X59592380Y-38094857D01*
X59640000Y-38190095D01*
X59687619Y-38237714D01*
X59782857Y-38285333D01*
X60020952Y-38285333D01*
X60116190Y-38237714D01*
X60163809Y-38190095D01*
X60211428Y-38094857D01*
X60211428Y-37904380D01*
X60163809Y-37809142D01*
X60116190Y-37761523D01*
X60020952Y-37713904D01*
X59592380Y-36809142D02*
X59592380Y-37285333D01*
X60068571Y-37332952D01*
X60020952Y-37285333D01*
X59973333Y-37190095D01*
X59973333Y-36952000D01*
X60020952Y-36856761D01*
X60068571Y-36809142D01*
X60163809Y-36761523D01*
X60401904Y-36761523D01*
X60497142Y-36809142D01*
X60544761Y-36856761D01*
X60592380Y-36952000D01*
X60592380Y-37190095D01*
X60544761Y-37285333D01*
X60497142Y-37332952D01*
X59925714Y-35904380D02*
X60592380Y-35904380D01*
X59544761Y-36142476D02*
X60259047Y-36380571D01*
X60259047Y-35761523D01*
X60020952Y-35237714D02*
X59973333Y-35332952D01*
X59925714Y-35380571D01*
X59830476Y-35428190D01*
X59782857Y-35428190D01*
X59687619Y-35380571D01*
X59640000Y-35332952D01*
X59592380Y-35237714D01*
X59592380Y-35047238D01*
X59640000Y-34952000D01*
X59687619Y-34904380D01*
X59782857Y-34856761D01*
X59830476Y-34856761D01*
X59925714Y-34904380D01*
X59973333Y-34952000D01*
X60020952Y-35047238D01*
X60020952Y-35237714D01*
X60068571Y-35332952D01*
X60116190Y-35380571D01*
X60211428Y-35428190D01*
X60401904Y-35428190D01*
X60497142Y-35380571D01*
X60544761Y-35332952D01*
X60592380Y-35237714D01*
X60592380Y-35047238D01*
X60544761Y-34952000D01*
X60497142Y-34904380D01*
X60401904Y-34856761D01*
X60211428Y-34856761D01*
X60116190Y-34904380D01*
X60068571Y-34952000D01*
X60020952Y-35047238D01*
X60306666Y-34475809D02*
X60306666Y-33999619D01*
X60592380Y-34571047D02*
X59592380Y-34237714D01*
X60592380Y-33904380D01*
%TO.C,U7*%
X282338095Y-54052380D02*
X282338095Y-54861904D01*
X282385714Y-54957142D01*
X282433333Y-55004761D01*
X282528571Y-55052380D01*
X282719047Y-55052380D01*
X282814285Y-55004761D01*
X282861904Y-54957142D01*
X282909523Y-54861904D01*
X282909523Y-54052380D01*
X283290476Y-54052380D02*
X283957142Y-54052380D01*
X283528571Y-55052380D01*
X273799238Y-41094760D02*
X273942095Y-41142379D01*
X274180190Y-41142379D01*
X274275428Y-41094760D01*
X274323047Y-41047141D01*
X274370666Y-40951903D01*
X274370666Y-40856665D01*
X274323047Y-40761427D01*
X274275428Y-40713808D01*
X274180190Y-40666189D01*
X273989714Y-40618570D01*
X273894476Y-40570951D01*
X273846857Y-40523332D01*
X273799238Y-40428094D01*
X273799238Y-40332856D01*
X273846857Y-40237618D01*
X273894476Y-40189999D01*
X273989714Y-40142379D01*
X274227809Y-40142379D01*
X274370666Y-40189999D01*
X274656380Y-40142379D02*
X275227809Y-40142379D01*
X274942095Y-41142379D02*
X274942095Y-40142379D01*
X275561142Y-40618570D02*
X275894476Y-40618570D01*
X276037333Y-41142379D02*
X275561142Y-41142379D01*
X275561142Y-40142379D01*
X276037333Y-40142379D01*
X277037333Y-41142379D02*
X276704000Y-40666189D01*
X276465904Y-41142379D02*
X276465904Y-40142379D01*
X276846857Y-40142379D01*
X276942095Y-40189999D01*
X276989714Y-40237618D01*
X277037333Y-40332856D01*
X277037333Y-40475713D01*
X276989714Y-40570951D01*
X276942095Y-40618570D01*
X276846857Y-40666189D01*
X276465904Y-40666189D01*
X277465904Y-40618570D02*
X277799238Y-40618570D01*
X277942095Y-41142379D02*
X277465904Y-41142379D01*
X277465904Y-40142379D01*
X277942095Y-40142379D01*
X278561142Y-40142379D02*
X278751619Y-40142379D01*
X278846857Y-40189999D01*
X278942095Y-40285237D01*
X278989714Y-40475713D01*
X278989714Y-40809046D01*
X278942095Y-40999522D01*
X278846857Y-41094760D01*
X278751619Y-41142379D01*
X278561142Y-41142379D01*
X278465904Y-41094760D01*
X278370666Y-40999522D01*
X278323047Y-40809046D01*
X278323047Y-40475713D01*
X278370666Y-40285237D01*
X278465904Y-40189999D01*
X278561142Y-40142379D01*
X280370666Y-40142379D02*
X280561142Y-40142379D01*
X280656380Y-40189999D01*
X280751619Y-40285237D01*
X280799238Y-40475713D01*
X280799238Y-40809046D01*
X280751619Y-40999522D01*
X280656380Y-41094760D01*
X280561142Y-41142379D01*
X280370666Y-41142379D01*
X280275428Y-41094760D01*
X280180190Y-40999522D01*
X280132571Y-40809046D01*
X280132571Y-40475713D01*
X280180190Y-40285237D01*
X280275428Y-40189999D01*
X280370666Y-40142379D01*
X281227809Y-40142379D02*
X281227809Y-40951903D01*
X281275428Y-41047141D01*
X281323047Y-41094760D01*
X281418285Y-41142379D01*
X281608761Y-41142379D01*
X281704000Y-41094760D01*
X281751619Y-41047141D01*
X281799238Y-40951903D01*
X281799238Y-40142379D01*
X282132571Y-40142379D02*
X282704000Y-40142379D01*
X282418285Y-41142379D02*
X282418285Y-40142379D01*
X248532380Y-43639046D02*
X249341904Y-43639046D01*
X249437142Y-43591427D01*
X249484761Y-43543808D01*
X249532380Y-43448570D01*
X249532380Y-43258094D01*
X249484761Y-43162856D01*
X249437142Y-43115237D01*
X249341904Y-43067618D01*
X248532380Y-43067618D01*
X249532380Y-42591427D02*
X248532380Y-42591427D01*
X248532380Y-42353332D01*
X248580000Y-42210475D01*
X248675238Y-42115237D01*
X248770476Y-42067618D01*
X248960952Y-42019999D01*
X249103809Y-42019999D01*
X249294285Y-42067618D01*
X249389523Y-42115237D01*
X249484761Y-42210475D01*
X249532380Y-42353332D01*
X249532380Y-42591427D01*
X249246666Y-41639046D02*
X249246666Y-41162856D01*
X249532380Y-41734284D02*
X248532380Y-41400951D01*
X249532380Y-41067618D01*
X249532380Y-40210475D02*
X249532380Y-40781903D01*
X249532380Y-40496189D02*
X248532380Y-40496189D01*
X248675238Y-40591427D01*
X248770476Y-40686665D01*
X248818095Y-40781903D01*
X248532380Y-39877141D02*
X248532380Y-39258094D01*
X248913333Y-39591427D01*
X248913333Y-39448570D01*
X248960952Y-39353332D01*
X249008571Y-39305713D01*
X249103809Y-39258094D01*
X249341904Y-39258094D01*
X249437142Y-39305713D01*
X249484761Y-39353332D01*
X249532380Y-39448570D01*
X249532380Y-39734284D01*
X249484761Y-39829522D01*
X249437142Y-39877141D01*
X248532380Y-38924760D02*
X248532380Y-38305713D01*
X248913333Y-38639046D01*
X248913333Y-38496189D01*
X248960952Y-38400951D01*
X249008571Y-38353332D01*
X249103809Y-38305713D01*
X249341904Y-38305713D01*
X249437142Y-38353332D01*
X249484761Y-38400951D01*
X249532380Y-38496189D01*
X249532380Y-38781903D01*
X249484761Y-38877141D01*
X249437142Y-38924760D01*
X248865714Y-37448570D02*
X249532380Y-37448570D01*
X248484761Y-37686665D02*
X249199047Y-37924760D01*
X249199047Y-37305713D01*
%TO.C,U9*%
X242832380Y-48621904D02*
X243641904Y-48621904D01*
X243737142Y-48574285D01*
X243784761Y-48526666D01*
X243832380Y-48431428D01*
X243832380Y-48240952D01*
X243784761Y-48145714D01*
X243737142Y-48098095D01*
X243641904Y-48050476D01*
X242832380Y-48050476D01*
X243832380Y-47526666D02*
X243832380Y-47336190D01*
X243784761Y-47240952D01*
X243737142Y-47193333D01*
X243594285Y-47098095D01*
X243403809Y-47050476D01*
X243022857Y-47050476D01*
X242927619Y-47098095D01*
X242880000Y-47145714D01*
X242832380Y-47240952D01*
X242832380Y-47431428D01*
X242880000Y-47526666D01*
X242927619Y-47574285D01*
X243022857Y-47621904D01*
X243260952Y-47621904D01*
X243356190Y-47574285D01*
X243403809Y-47526666D01*
X243451428Y-47431428D01*
X243451428Y-47240952D01*
X243403809Y-47145714D01*
X243356190Y-47098095D01*
X243260952Y-47050476D01*
X236814285Y-47885714D02*
X236814285Y-48552380D01*
X236576190Y-47504761D02*
X236338095Y-48219047D01*
X236957142Y-48219047D01*
X237338095Y-48552380D02*
X237338095Y-47552380D01*
X237909523Y-48552380D01*
X237909523Y-47552380D01*
X238290476Y-47552380D02*
X238909523Y-47552380D01*
X238576190Y-47933333D01*
X238719047Y-47933333D01*
X238814285Y-47980952D01*
X238861904Y-48028571D01*
X238909523Y-48123809D01*
X238909523Y-48361904D01*
X238861904Y-48457142D01*
X238814285Y-48504761D01*
X238719047Y-48552380D01*
X238433333Y-48552380D01*
X238338095Y-48504761D01*
X238290476Y-48457142D01*
X239766666Y-47552380D02*
X239576190Y-47552380D01*
X239480952Y-47600000D01*
X239433333Y-47647619D01*
X239338095Y-47790476D01*
X239290476Y-47980952D01*
X239290476Y-48361904D01*
X239338095Y-48457142D01*
X239385714Y-48504761D01*
X239480952Y-48552380D01*
X239671428Y-48552380D01*
X239766666Y-48504761D01*
X239814285Y-48457142D01*
X239861904Y-48361904D01*
X239861904Y-48123809D01*
X239814285Y-48028571D01*
X239766666Y-47980952D01*
X239671428Y-47933333D01*
X239480952Y-47933333D01*
X239385714Y-47980952D01*
X239338095Y-48028571D01*
X239290476Y-48123809D01*
%TO.C,U8*%
X232682380Y-48871904D02*
X233491904Y-48871904D01*
X233587142Y-48824285D01*
X233634761Y-48776666D01*
X233682380Y-48681428D01*
X233682380Y-48490952D01*
X233634761Y-48395714D01*
X233587142Y-48348095D01*
X233491904Y-48300476D01*
X232682380Y-48300476D01*
X233110952Y-47681428D02*
X233063333Y-47776666D01*
X233015714Y-47824285D01*
X232920476Y-47871904D01*
X232872857Y-47871904D01*
X232777619Y-47824285D01*
X232730000Y-47776666D01*
X232682380Y-47681428D01*
X232682380Y-47490952D01*
X232730000Y-47395714D01*
X232777619Y-47348095D01*
X232872857Y-47300476D01*
X232920476Y-47300476D01*
X233015714Y-47348095D01*
X233063333Y-47395714D01*
X233110952Y-47490952D01*
X233110952Y-47681428D01*
X233158571Y-47776666D01*
X233206190Y-47824285D01*
X233301428Y-47871904D01*
X233491904Y-47871904D01*
X233587142Y-47824285D01*
X233634761Y-47776666D01*
X233682380Y-47681428D01*
X233682380Y-47490952D01*
X233634761Y-47395714D01*
X233587142Y-47348095D01*
X233491904Y-47300476D01*
X233301428Y-47300476D01*
X233206190Y-47348095D01*
X233158571Y-47395714D01*
X233110952Y-47490952D01*
%TO.C,U6*%
X281438095Y-74152380D02*
X281438095Y-74961904D01*
X281485714Y-75057142D01*
X281533333Y-75104761D01*
X281628571Y-75152380D01*
X281819047Y-75152380D01*
X281914285Y-75104761D01*
X281961904Y-75057142D01*
X282009523Y-74961904D01*
X282009523Y-74152380D01*
X282914285Y-74152380D02*
X282723809Y-74152380D01*
X282628571Y-74200000D01*
X282580952Y-74247619D01*
X282485714Y-74390476D01*
X282438095Y-74580952D01*
X282438095Y-74961904D01*
X282485714Y-75057142D01*
X282533333Y-75104761D01*
X282628571Y-75152380D01*
X282819047Y-75152380D01*
X282914285Y-75104761D01*
X282961904Y-75057142D01*
X283009523Y-74961904D01*
X283009523Y-74723809D01*
X282961904Y-74628571D01*
X282914285Y-74580952D01*
X282819047Y-74533333D01*
X282628571Y-74533333D01*
X282533333Y-74580952D01*
X282485714Y-74628571D01*
X282438095Y-74723809D01*
X279512380Y-65706904D02*
X280321904Y-65706904D01*
X280417142Y-65659285D01*
X280464761Y-65611666D01*
X280512380Y-65516428D01*
X280512380Y-65325952D01*
X280464761Y-65230714D01*
X280417142Y-65183095D01*
X280321904Y-65135476D01*
X279512380Y-65135476D01*
X280464761Y-64706904D02*
X280512380Y-64564047D01*
X280512380Y-64325952D01*
X280464761Y-64230714D01*
X280417142Y-64183095D01*
X280321904Y-64135476D01*
X280226666Y-64135476D01*
X280131428Y-64183095D01*
X280083809Y-64230714D01*
X280036190Y-64325952D01*
X279988571Y-64516428D01*
X279940952Y-64611666D01*
X279893333Y-64659285D01*
X279798095Y-64706904D01*
X279702857Y-64706904D01*
X279607619Y-64659285D01*
X279560000Y-64611666D01*
X279512380Y-64516428D01*
X279512380Y-64278333D01*
X279560000Y-64135476D01*
X279988571Y-63373571D02*
X280036190Y-63230714D01*
X280083809Y-63183095D01*
X280179047Y-63135476D01*
X280321904Y-63135476D01*
X280417142Y-63183095D01*
X280464761Y-63230714D01*
X280512380Y-63325952D01*
X280512380Y-63706904D01*
X279512380Y-63706904D01*
X279512380Y-63373571D01*
X279560000Y-63278333D01*
X279607619Y-63230714D01*
X279702857Y-63183095D01*
X279798095Y-63183095D01*
X279893333Y-63230714D01*
X279940952Y-63278333D01*
X279988571Y-63373571D01*
X279988571Y-63706904D01*
X245447142Y-67626428D02*
X245494761Y-67674047D01*
X245542380Y-67816904D01*
X245542380Y-67912142D01*
X245494761Y-68055000D01*
X245399523Y-68150238D01*
X245304285Y-68197857D01*
X245113809Y-68245476D01*
X244970952Y-68245476D01*
X244780476Y-68197857D01*
X244685238Y-68150238D01*
X244590000Y-68055000D01*
X244542380Y-67912142D01*
X244542380Y-67816904D01*
X244590000Y-67674047D01*
X244637619Y-67626428D01*
X245542380Y-67197857D02*
X244542380Y-67197857D01*
X245256666Y-66864523D01*
X244542380Y-66531190D01*
X245542380Y-66531190D01*
X244542380Y-65864523D02*
X244542380Y-65674047D01*
X244590000Y-65578809D01*
X244685238Y-65483571D01*
X244875714Y-65435952D01*
X245209047Y-65435952D01*
X245399523Y-65483571D01*
X245494761Y-65578809D01*
X245542380Y-65674047D01*
X245542380Y-65864523D01*
X245494761Y-65959761D01*
X245399523Y-66055000D01*
X245209047Y-66102619D01*
X244875714Y-66102619D01*
X244685238Y-66055000D01*
X244590000Y-65959761D01*
X244542380Y-65864523D01*
X245542380Y-65007380D02*
X244542380Y-65007380D01*
X244542380Y-64769285D01*
X244590000Y-64626428D01*
X244685238Y-64531190D01*
X244780476Y-64483571D01*
X244970952Y-64435952D01*
X245113809Y-64435952D01*
X245304285Y-64483571D01*
X245399523Y-64531190D01*
X245494761Y-64626428D01*
X245542380Y-64769285D01*
X245542380Y-65007380D01*
X245256666Y-63293095D02*
X245256666Y-62816904D01*
X245542380Y-63388333D02*
X244542380Y-63055000D01*
X245542380Y-62721666D01*
X244542380Y-62483571D02*
X244542380Y-61816904D01*
X245542380Y-62245476D01*
%TO.C,U1*%
X30978095Y-48452380D02*
X30978095Y-49261904D01*
X31025714Y-49357142D01*
X31073333Y-49404761D01*
X31168571Y-49452380D01*
X31359047Y-49452380D01*
X31454285Y-49404761D01*
X31501904Y-49357142D01*
X31549523Y-49261904D01*
X31549523Y-48452380D01*
X32549523Y-49452380D02*
X31978095Y-49452380D01*
X32263809Y-49452380D02*
X32263809Y-48452380D01*
X32168571Y-48595238D01*
X32073333Y-48690476D01*
X31978095Y-48738095D01*
X18073333Y-47054761D02*
X18216190Y-47102380D01*
X18454285Y-47102380D01*
X18549523Y-47054761D01*
X18597142Y-47007142D01*
X18644761Y-46911904D01*
X18644761Y-46816666D01*
X18597142Y-46721428D01*
X18549523Y-46673809D01*
X18454285Y-46626190D01*
X18263809Y-46578571D01*
X18168571Y-46530952D01*
X18120952Y-46483333D01*
X18073333Y-46388095D01*
X18073333Y-46292857D01*
X18120952Y-46197619D01*
X18168571Y-46150000D01*
X18263809Y-46102380D01*
X18501904Y-46102380D01*
X18644761Y-46150000D01*
X19454285Y-47054761D02*
X19359047Y-47102380D01*
X19168571Y-47102380D01*
X19073333Y-47054761D01*
X19025714Y-46959523D01*
X19025714Y-46578571D01*
X19073333Y-46483333D01*
X19168571Y-46435714D01*
X19359047Y-46435714D01*
X19454285Y-46483333D01*
X19501904Y-46578571D01*
X19501904Y-46673809D01*
X19025714Y-46769047D01*
X20311428Y-47054761D02*
X20216190Y-47102380D01*
X20025714Y-47102380D01*
X19930476Y-47054761D01*
X19882857Y-46959523D01*
X19882857Y-46578571D01*
X19930476Y-46483333D01*
X20025714Y-46435714D01*
X20216190Y-46435714D01*
X20311428Y-46483333D01*
X20359047Y-46578571D01*
X20359047Y-46673809D01*
X19882857Y-46769047D01*
X21168571Y-47054761D02*
X21073333Y-47102380D01*
X20882857Y-47102380D01*
X20787619Y-47054761D01*
X20740000Y-46959523D01*
X20740000Y-46578571D01*
X20787619Y-46483333D01*
X20882857Y-46435714D01*
X21073333Y-46435714D01*
X21168571Y-46483333D01*
X21216190Y-46578571D01*
X21216190Y-46673809D01*
X20740000Y-46769047D01*
X22073333Y-47102380D02*
X22073333Y-46102380D01*
X22073333Y-47054761D02*
X21978095Y-47102380D01*
X21787619Y-47102380D01*
X21692380Y-47054761D01*
X21644761Y-47007142D01*
X21597142Y-46911904D01*
X21597142Y-46626190D01*
X21644761Y-46530952D01*
X21692380Y-46483333D01*
X21787619Y-46435714D01*
X21978095Y-46435714D01*
X22073333Y-46483333D01*
X22978095Y-46435714D02*
X22978095Y-47102380D01*
X22549523Y-46435714D02*
X22549523Y-46959523D01*
X22597142Y-47054761D01*
X22692380Y-47102380D01*
X22835238Y-47102380D01*
X22930476Y-47054761D01*
X22978095Y-47007142D01*
X23454285Y-47102380D02*
X23454285Y-46435714D01*
X23454285Y-46102380D02*
X23406666Y-46150000D01*
X23454285Y-46197619D01*
X23501904Y-46150000D01*
X23454285Y-46102380D01*
X23454285Y-46197619D01*
X23930476Y-46435714D02*
X23930476Y-47102380D01*
X23930476Y-46530952D02*
X23978095Y-46483333D01*
X24073333Y-46435714D01*
X24216190Y-46435714D01*
X24311428Y-46483333D01*
X24359047Y-46578571D01*
X24359047Y-47102380D01*
X24978095Y-47102380D02*
X24882857Y-47054761D01*
X24835238Y-47007142D01*
X24787619Y-46911904D01*
X24787619Y-46626190D01*
X24835238Y-46530952D01*
X24882857Y-46483333D01*
X24978095Y-46435714D01*
X25120952Y-46435714D01*
X25216190Y-46483333D01*
X25263809Y-46530952D01*
X25311428Y-46626190D01*
X25311428Y-46911904D01*
X25263809Y-47007142D01*
X25216190Y-47054761D01*
X25120952Y-47102380D01*
X24978095Y-47102380D01*
X26406666Y-46102380D02*
X27073333Y-47102380D01*
X27073333Y-46102380D02*
X26406666Y-47102380D01*
X27454285Y-47102380D02*
X27454285Y-46102380D01*
X27882857Y-46816666D02*
X28359047Y-46816666D01*
X27787619Y-47102380D02*
X28120952Y-46102380D01*
X28454285Y-47102380D01*
X28978095Y-46102380D02*
X29168571Y-46102380D01*
X29263809Y-46150000D01*
X29359047Y-46245238D01*
X29406666Y-46435714D01*
X29406666Y-46769047D01*
X29359047Y-46959523D01*
X29263809Y-47054761D01*
X29168571Y-47102380D01*
X28978095Y-47102380D01*
X28882857Y-47054761D01*
X28787619Y-46959523D01*
X28739999Y-46769047D01*
X28739999Y-46435714D01*
X28787619Y-46245238D01*
X28882857Y-46150000D01*
X28978095Y-46102380D01*
X22793095Y-28522380D02*
X22793095Y-29331904D01*
X22840714Y-29427142D01*
X22888333Y-29474761D01*
X22983571Y-29522380D01*
X23174047Y-29522380D01*
X23269285Y-29474761D01*
X23316904Y-29427142D01*
X23364523Y-29331904D01*
X23364523Y-28522380D01*
X23793095Y-29474761D02*
X23935952Y-29522380D01*
X24174047Y-29522380D01*
X24269285Y-29474761D01*
X24316904Y-29427142D01*
X24364523Y-29331904D01*
X24364523Y-29236666D01*
X24316904Y-29141428D01*
X24269285Y-29093809D01*
X24174047Y-29046190D01*
X23983571Y-28998571D01*
X23888333Y-28950952D01*
X23840714Y-28903333D01*
X23793095Y-28808095D01*
X23793095Y-28712857D01*
X23840714Y-28617619D01*
X23888333Y-28570000D01*
X23983571Y-28522380D01*
X24221666Y-28522380D01*
X24364523Y-28570000D01*
X25126428Y-28998571D02*
X25269285Y-29046190D01*
X25316904Y-29093809D01*
X25364523Y-29189047D01*
X25364523Y-29331904D01*
X25316904Y-29427142D01*
X25269285Y-29474761D01*
X25174047Y-29522380D01*
X24793095Y-29522380D01*
X24793095Y-28522380D01*
X25126428Y-28522380D01*
X25221666Y-28570000D01*
X25269285Y-28617619D01*
X25316904Y-28712857D01*
X25316904Y-28808095D01*
X25269285Y-28903333D01*
X25221666Y-28950952D01*
X25126428Y-28998571D01*
X24793095Y-28998571D01*
%TO.C,SW12*%
X75504761Y-131909523D02*
X75552380Y-131766666D01*
X75552380Y-131528571D01*
X75504761Y-131433333D01*
X75457142Y-131385714D01*
X75361904Y-131338095D01*
X75266666Y-131338095D01*
X75171428Y-131385714D01*
X75123809Y-131433333D01*
X75076190Y-131528571D01*
X75028571Y-131719047D01*
X74980952Y-131814285D01*
X74933333Y-131861904D01*
X74838095Y-131909523D01*
X74742857Y-131909523D01*
X74647619Y-131861904D01*
X74600000Y-131814285D01*
X74552380Y-131719047D01*
X74552380Y-131480952D01*
X74600000Y-131338095D01*
X74552380Y-131004761D02*
X75552380Y-130766666D01*
X74838095Y-130576190D01*
X75552380Y-130385714D01*
X74552380Y-130147619D01*
X75552380Y-129242857D02*
X75552380Y-129814285D01*
X75552380Y-129528571D02*
X74552380Y-129528571D01*
X74695238Y-129623809D01*
X74790476Y-129719047D01*
X74838095Y-129814285D01*
X74647619Y-128861904D02*
X74600000Y-128814285D01*
X74552380Y-128719047D01*
X74552380Y-128480952D01*
X74600000Y-128385714D01*
X74647619Y-128338095D01*
X74742857Y-128290476D01*
X74838095Y-128290476D01*
X74980952Y-128338095D01*
X75552380Y-128909523D01*
X75552380Y-128290476D01*
%TO.C,SW11*%
X27494761Y-131909523D02*
X27542380Y-131766666D01*
X27542380Y-131528571D01*
X27494761Y-131433333D01*
X27447142Y-131385714D01*
X27351904Y-131338095D01*
X27256666Y-131338095D01*
X27161428Y-131385714D01*
X27113809Y-131433333D01*
X27066190Y-131528571D01*
X27018571Y-131719047D01*
X26970952Y-131814285D01*
X26923333Y-131861904D01*
X26828095Y-131909523D01*
X26732857Y-131909523D01*
X26637619Y-131861904D01*
X26590000Y-131814285D01*
X26542380Y-131719047D01*
X26542380Y-131480952D01*
X26590000Y-131338095D01*
X26542380Y-131004761D02*
X27542380Y-130766666D01*
X26828095Y-130576190D01*
X27542380Y-130385714D01*
X26542380Y-130147619D01*
X27542380Y-129242857D02*
X27542380Y-129814285D01*
X27542380Y-129528571D02*
X26542380Y-129528571D01*
X26685238Y-129623809D01*
X26780476Y-129719047D01*
X26828095Y-129814285D01*
X27542380Y-128290476D02*
X27542380Y-128861904D01*
X27542380Y-128576190D02*
X26542380Y-128576190D01*
X26685238Y-128671428D01*
X26780476Y-128766666D01*
X26828095Y-128861904D01*
%TO.C,SW10*%
X75604761Y-104909523D02*
X75652380Y-104766666D01*
X75652380Y-104528571D01*
X75604761Y-104433333D01*
X75557142Y-104385714D01*
X75461904Y-104338095D01*
X75366666Y-104338095D01*
X75271428Y-104385714D01*
X75223809Y-104433333D01*
X75176190Y-104528571D01*
X75128571Y-104719047D01*
X75080952Y-104814285D01*
X75033333Y-104861904D01*
X74938095Y-104909523D01*
X74842857Y-104909523D01*
X74747619Y-104861904D01*
X74700000Y-104814285D01*
X74652380Y-104719047D01*
X74652380Y-104480952D01*
X74700000Y-104338095D01*
X74652380Y-104004761D02*
X75652380Y-103766666D01*
X74938095Y-103576190D01*
X75652380Y-103385714D01*
X74652380Y-103147619D01*
X75652380Y-102242857D02*
X75652380Y-102814285D01*
X75652380Y-102528571D02*
X74652380Y-102528571D01*
X74795238Y-102623809D01*
X74890476Y-102719047D01*
X74938095Y-102814285D01*
X74652380Y-101623809D02*
X74652380Y-101528571D01*
X74700000Y-101433333D01*
X74747619Y-101385714D01*
X74842857Y-101338095D01*
X75033333Y-101290476D01*
X75271428Y-101290476D01*
X75461904Y-101338095D01*
X75557142Y-101385714D01*
X75604761Y-101433333D01*
X75652380Y-101528571D01*
X75652380Y-101623809D01*
X75604761Y-101719047D01*
X75557142Y-101766666D01*
X75461904Y-101814285D01*
X75271428Y-101861904D01*
X75033333Y-101861904D01*
X74842857Y-101814285D01*
X74747619Y-101766666D01*
X74700000Y-101719047D01*
X74652380Y-101623809D01*
%TO.C,SW9*%
X27494761Y-104768333D02*
X27542380Y-104625476D01*
X27542380Y-104387380D01*
X27494761Y-104292142D01*
X27447142Y-104244523D01*
X27351904Y-104196904D01*
X27256666Y-104196904D01*
X27161428Y-104244523D01*
X27113809Y-104292142D01*
X27066190Y-104387380D01*
X27018571Y-104577857D01*
X26970952Y-104673095D01*
X26923333Y-104720714D01*
X26828095Y-104768333D01*
X26732857Y-104768333D01*
X26637619Y-104720714D01*
X26590000Y-104673095D01*
X26542380Y-104577857D01*
X26542380Y-104339761D01*
X26590000Y-104196904D01*
X26542380Y-103863571D02*
X27542380Y-103625476D01*
X26828095Y-103435000D01*
X27542380Y-103244523D01*
X26542380Y-103006428D01*
X27542380Y-102577857D02*
X27542380Y-102387380D01*
X27494761Y-102292142D01*
X27447142Y-102244523D01*
X27304285Y-102149285D01*
X27113809Y-102101666D01*
X26732857Y-102101666D01*
X26637619Y-102149285D01*
X26590000Y-102196904D01*
X26542380Y-102292142D01*
X26542380Y-102482619D01*
X26590000Y-102577857D01*
X26637619Y-102625476D01*
X26732857Y-102673095D01*
X26970952Y-102673095D01*
X27066190Y-102625476D01*
X27113809Y-102577857D01*
X27161428Y-102482619D01*
X27161428Y-102292142D01*
X27113809Y-102196904D01*
X27066190Y-102149285D01*
X26970952Y-102101666D01*
%TO.C,J6*%
X125716666Y-35017380D02*
X125716666Y-35731666D01*
X125669047Y-35874523D01*
X125573809Y-35969761D01*
X125430952Y-36017380D01*
X125335714Y-36017380D01*
X126621428Y-35017380D02*
X126430952Y-35017380D01*
X126335714Y-35065000D01*
X126288095Y-35112619D01*
X126192857Y-35255476D01*
X126145238Y-35445952D01*
X126145238Y-35826904D01*
X126192857Y-35922142D01*
X126240476Y-35969761D01*
X126335714Y-36017380D01*
X126526190Y-36017380D01*
X126621428Y-35969761D01*
X126669047Y-35922142D01*
X126716666Y-35826904D01*
X126716666Y-35588809D01*
X126669047Y-35493571D01*
X126621428Y-35445952D01*
X126526190Y-35398333D01*
X126335714Y-35398333D01*
X126240476Y-35445952D01*
X126192857Y-35493571D01*
X126145238Y-35588809D01*
%TO.C,J5*%
X116916666Y-35017380D02*
X116916666Y-35731666D01*
X116869047Y-35874523D01*
X116773809Y-35969761D01*
X116630952Y-36017380D01*
X116535714Y-36017380D01*
X117869047Y-35017380D02*
X117392857Y-35017380D01*
X117345238Y-35493571D01*
X117392857Y-35445952D01*
X117488095Y-35398333D01*
X117726190Y-35398333D01*
X117821428Y-35445952D01*
X117869047Y-35493571D01*
X117916666Y-35588809D01*
X117916666Y-35826904D01*
X117869047Y-35922142D01*
X117821428Y-35969761D01*
X117726190Y-36017380D01*
X117488095Y-36017380D01*
X117392857Y-35969761D01*
X117345238Y-35922142D01*
%TO.C,J4*%
X108116666Y-35017380D02*
X108116666Y-35731666D01*
X108069047Y-35874523D01*
X107973809Y-35969761D01*
X107830952Y-36017380D01*
X107735714Y-36017380D01*
X109021428Y-35350714D02*
X109021428Y-36017380D01*
X108783333Y-34969761D02*
X108545238Y-35684047D01*
X109164285Y-35684047D01*
%TO.C,DS0*%
X35185714Y-130052380D02*
X35185714Y-129052380D01*
X35423809Y-129052380D01*
X35566666Y-129100000D01*
X35661904Y-129195238D01*
X35709523Y-129290476D01*
X35757142Y-129480952D01*
X35757142Y-129623809D01*
X35709523Y-129814285D01*
X35661904Y-129909523D01*
X35566666Y-130004761D01*
X35423809Y-130052380D01*
X35185714Y-130052380D01*
X36138095Y-130004761D02*
X36280952Y-130052380D01*
X36519047Y-130052380D01*
X36614285Y-130004761D01*
X36661904Y-129957142D01*
X36709523Y-129861904D01*
X36709523Y-129766666D01*
X36661904Y-129671428D01*
X36614285Y-129623809D01*
X36519047Y-129576190D01*
X36328571Y-129528571D01*
X36233333Y-129480952D01*
X36185714Y-129433333D01*
X36138095Y-129338095D01*
X36138095Y-129242857D01*
X36185714Y-129147619D01*
X36233333Y-129100000D01*
X36328571Y-129052380D01*
X36566666Y-129052380D01*
X36709523Y-129100000D01*
X37328571Y-129052380D02*
X37423809Y-129052380D01*
X37519047Y-129100000D01*
X37566666Y-129147619D01*
X37614285Y-129242857D01*
X37661904Y-129433333D01*
X37661904Y-129671428D01*
X37614285Y-129861904D01*
X37566666Y-129957142D01*
X37519047Y-130004761D01*
X37423809Y-130052380D01*
X37328571Y-130052380D01*
X37233333Y-130004761D01*
X37185714Y-129957142D01*
X37138095Y-129861904D01*
X37090476Y-129671428D01*
X37090476Y-129433333D01*
X37138095Y-129242857D01*
X37185714Y-129147619D01*
X37233333Y-129100000D01*
X37328571Y-129052380D01*
X39417141Y-128947619D02*
X39464760Y-128900000D01*
X39559999Y-128852380D01*
X39798094Y-128852380D01*
X39893332Y-128900000D01*
X39940951Y-128947619D01*
X39988570Y-129042857D01*
X39988570Y-129138095D01*
X39940951Y-129280952D01*
X39369522Y-129852380D01*
X39988570Y-129852380D01*
X40845713Y-129185714D02*
X40845713Y-129852380D01*
X40607618Y-128804761D02*
X40369522Y-129519047D01*
X40988570Y-129519047D01*
X41559999Y-128852380D02*
X41655237Y-128852380D01*
X41750475Y-128900000D01*
X41798094Y-128947619D01*
X41845713Y-129042857D01*
X41893332Y-129233333D01*
X41893332Y-129471428D01*
X41845713Y-129661904D01*
X41798094Y-129757142D01*
X41750475Y-129804761D01*
X41655237Y-129852380D01*
X41559999Y-129852380D01*
X41464760Y-129804761D01*
X41417141Y-129757142D01*
X41369522Y-129661904D01*
X41321903Y-129471428D01*
X41321903Y-129233333D01*
X41369522Y-129042857D01*
X41417141Y-128947619D01*
X41464760Y-128900000D01*
X41559999Y-128852380D01*
X42464760Y-128852380D02*
X42464760Y-129090476D01*
X42226665Y-128995238D02*
X42464760Y-129090476D01*
X42702856Y-128995238D01*
X42321903Y-129280952D02*
X42464760Y-129090476D01*
X42607618Y-129280952D01*
X43036189Y-128947619D02*
X43083808Y-128900000D01*
X43179046Y-128852380D01*
X43417141Y-128852380D01*
X43512379Y-128900000D01*
X43559999Y-128947619D01*
X43607618Y-129042857D01*
X43607618Y-129138095D01*
X43559999Y-129280952D01*
X42988570Y-129852380D01*
X43607618Y-129852380D01*
X44464760Y-129185714D02*
X44464760Y-129852380D01*
X44226665Y-128804761D02*
X43988570Y-129519047D01*
X44607618Y-129519047D01*
X45179046Y-128852380D02*
X45274284Y-128852380D01*
X45369522Y-128900000D01*
X45417141Y-128947619D01*
X45464760Y-129042857D01*
X45512379Y-129233333D01*
X45512379Y-129471428D01*
X45464760Y-129661904D01*
X45417141Y-129757142D01*
X45369522Y-129804761D01*
X45274284Y-129852380D01*
X45179046Y-129852380D01*
X45083808Y-129804761D01*
X45036189Y-129757142D01*
X44988570Y-129661904D01*
X44940951Y-129471428D01*
X44940951Y-129233333D01*
X44988570Y-129042857D01*
X45036189Y-128947619D01*
X45083808Y-128900000D01*
X45179046Y-128852380D01*
X46702856Y-129852380D02*
X46702856Y-128852380D01*
X47179046Y-129852380D02*
X47179046Y-128852380D01*
X47559999Y-128852380D01*
X47655237Y-128900000D01*
X47702856Y-128947619D01*
X47750475Y-129042857D01*
X47750475Y-129185714D01*
X47702856Y-129280952D01*
X47655237Y-129328571D01*
X47559999Y-129376190D01*
X47179046Y-129376190D01*
X48131427Y-129804761D02*
X48274284Y-129852380D01*
X48512379Y-129852380D01*
X48607618Y-129804761D01*
X48655237Y-129757142D01*
X48702856Y-129661904D01*
X48702856Y-129566666D01*
X48655237Y-129471428D01*
X48607618Y-129423809D01*
X48512379Y-129376190D01*
X48321903Y-129328571D01*
X48226665Y-129280952D01*
X48179046Y-129233333D01*
X48131427Y-129138095D01*
X48131427Y-129042857D01*
X48179046Y-128947619D01*
X48226665Y-128900000D01*
X48321903Y-128852380D01*
X48559999Y-128852380D01*
X48702856Y-128900000D01*
%TO.C,D1*%
X244772380Y-35648095D02*
X243772380Y-35648095D01*
X243772380Y-35410000D01*
X243820000Y-35267142D01*
X243915238Y-35171904D01*
X244010476Y-35124285D01*
X244200952Y-35076666D01*
X244343809Y-35076666D01*
X244534285Y-35124285D01*
X244629523Y-35171904D01*
X244724761Y-35267142D01*
X244772380Y-35410000D01*
X244772380Y-35648095D01*
X244772380Y-34124285D02*
X244772380Y-34695714D01*
X244772380Y-34410000D02*
X243772380Y-34410000D01*
X243915238Y-34505238D01*
X244010476Y-34600476D01*
X244058095Y-34695714D01*
X244452380Y-31361904D02*
X243452380Y-31361904D01*
X244452380Y-30790476D02*
X243880952Y-31219047D01*
X243452380Y-30790476D02*
X244023809Y-31361904D01*
%TO.C,U4*%
X208802380Y-63271904D02*
X209611904Y-63271904D01*
X209707142Y-63224285D01*
X209754761Y-63176666D01*
X209802380Y-63081428D01*
X209802380Y-62890952D01*
X209754761Y-62795714D01*
X209707142Y-62748095D01*
X209611904Y-62700476D01*
X208802380Y-62700476D01*
X209135714Y-61795714D02*
X209802380Y-61795714D01*
X208754761Y-62033809D02*
X209469047Y-62271904D01*
X209469047Y-61652857D01*
X187285714Y-62952380D02*
X187285714Y-61952380D01*
X187619047Y-62666666D01*
X187952380Y-61952380D01*
X187952380Y-62952380D01*
X189000000Y-62857142D02*
X188952380Y-62904761D01*
X188809523Y-62952380D01*
X188714285Y-62952380D01*
X188571428Y-62904761D01*
X188476190Y-62809523D01*
X188428571Y-62714285D01*
X188380952Y-62523809D01*
X188380952Y-62380952D01*
X188428571Y-62190476D01*
X188476190Y-62095238D01*
X188571428Y-62000000D01*
X188714285Y-61952380D01*
X188809523Y-61952380D01*
X188952380Y-62000000D01*
X189000000Y-62047619D01*
X189428571Y-62952380D02*
X189428571Y-61952380D01*
X189809523Y-61952380D01*
X189904761Y-62000000D01*
X189952380Y-62047619D01*
X190000000Y-62142857D01*
X190000000Y-62285714D01*
X189952380Y-62380952D01*
X189904761Y-62428571D01*
X189809523Y-62476190D01*
X189428571Y-62476190D01*
X190380952Y-62047619D02*
X190428571Y-62000000D01*
X190523809Y-61952380D01*
X190761904Y-61952380D01*
X190857142Y-62000000D01*
X190904761Y-62047619D01*
X190952380Y-62142857D01*
X190952380Y-62238095D01*
X190904761Y-62380952D01*
X190333333Y-62952380D01*
X190952380Y-62952380D01*
X191285714Y-61952380D02*
X191904761Y-61952380D01*
X191571428Y-62333333D01*
X191714285Y-62333333D01*
X191809523Y-62380952D01*
X191857142Y-62428571D01*
X191904761Y-62523809D01*
X191904761Y-62761904D01*
X191857142Y-62857142D01*
X191809523Y-62904761D01*
X191714285Y-62952380D01*
X191428571Y-62952380D01*
X191333333Y-62904761D01*
X191285714Y-62857142D01*
X192523809Y-61952380D02*
X192619047Y-61952380D01*
X192714285Y-62000000D01*
X192761904Y-62047619D01*
X192809523Y-62142857D01*
X192857142Y-62333333D01*
X192857142Y-62571428D01*
X192809523Y-62761904D01*
X192761904Y-62857142D01*
X192714285Y-62904761D01*
X192619047Y-62952380D01*
X192523809Y-62952380D01*
X192428571Y-62904761D01*
X192380952Y-62857142D01*
X192333333Y-62761904D01*
X192285714Y-62571428D01*
X192285714Y-62333333D01*
X192333333Y-62142857D01*
X192380952Y-62047619D01*
X192428571Y-62000000D01*
X192523809Y-61952380D01*
X193809523Y-62952380D02*
X193238095Y-62952380D01*
X193523809Y-62952380D02*
X193523809Y-61952380D01*
X193428571Y-62095238D01*
X193333333Y-62190476D01*
X193238095Y-62238095D01*
X194142857Y-61952380D02*
X194809523Y-61952380D01*
X194380952Y-62952380D01*
%TO.C,U3*%
X166802380Y-63271904D02*
X167611904Y-63271904D01*
X167707142Y-63224285D01*
X167754761Y-63176666D01*
X167802380Y-63081428D01*
X167802380Y-62890952D01*
X167754761Y-62795714D01*
X167707142Y-62748095D01*
X167611904Y-62700476D01*
X166802380Y-62700476D01*
X166802380Y-62319523D02*
X166802380Y-61700476D01*
X167183333Y-62033809D01*
X167183333Y-61890952D01*
X167230952Y-61795714D01*
X167278571Y-61748095D01*
X167373809Y-61700476D01*
X167611904Y-61700476D01*
X167707142Y-61748095D01*
X167754761Y-61795714D01*
X167802380Y-61890952D01*
X167802380Y-62176666D01*
X167754761Y-62271904D01*
X167707142Y-62319523D01*
X144985714Y-62852380D02*
X144985714Y-61852380D01*
X145319047Y-62566666D01*
X145652380Y-61852380D01*
X145652380Y-62852380D01*
X146700000Y-62757142D02*
X146652380Y-62804761D01*
X146509523Y-62852380D01*
X146414285Y-62852380D01*
X146271428Y-62804761D01*
X146176190Y-62709523D01*
X146128571Y-62614285D01*
X146080952Y-62423809D01*
X146080952Y-62280952D01*
X146128571Y-62090476D01*
X146176190Y-61995238D01*
X146271428Y-61900000D01*
X146414285Y-61852380D01*
X146509523Y-61852380D01*
X146652380Y-61900000D01*
X146700000Y-61947619D01*
X147128571Y-62852380D02*
X147128571Y-61852380D01*
X147509523Y-61852380D01*
X147604761Y-61900000D01*
X147652380Y-61947619D01*
X147700000Y-62042857D01*
X147700000Y-62185714D01*
X147652380Y-62280952D01*
X147604761Y-62328571D01*
X147509523Y-62376190D01*
X147128571Y-62376190D01*
X148080952Y-61947619D02*
X148128571Y-61900000D01*
X148223809Y-61852380D01*
X148461904Y-61852380D01*
X148557142Y-61900000D01*
X148604761Y-61947619D01*
X148652380Y-62042857D01*
X148652380Y-62138095D01*
X148604761Y-62280952D01*
X148033333Y-62852380D01*
X148652380Y-62852380D01*
X148985714Y-61852380D02*
X149604761Y-61852380D01*
X149271428Y-62233333D01*
X149414285Y-62233333D01*
X149509523Y-62280952D01*
X149557142Y-62328571D01*
X149604761Y-62423809D01*
X149604761Y-62661904D01*
X149557142Y-62757142D01*
X149509523Y-62804761D01*
X149414285Y-62852380D01*
X149128571Y-62852380D01*
X149033333Y-62804761D01*
X148985714Y-62757142D01*
X150223809Y-61852380D02*
X150319047Y-61852380D01*
X150414285Y-61900000D01*
X150461904Y-61947619D01*
X150509523Y-62042857D01*
X150557142Y-62233333D01*
X150557142Y-62471428D01*
X150509523Y-62661904D01*
X150461904Y-62757142D01*
X150414285Y-62804761D01*
X150319047Y-62852380D01*
X150223809Y-62852380D01*
X150128571Y-62804761D01*
X150080952Y-62757142D01*
X150033333Y-62661904D01*
X149985714Y-62471428D01*
X149985714Y-62233333D01*
X150033333Y-62042857D01*
X150080952Y-61947619D01*
X150128571Y-61900000D01*
X150223809Y-61852380D01*
X151509523Y-62852380D02*
X150938095Y-62852380D01*
X151223809Y-62852380D02*
X151223809Y-61852380D01*
X151128571Y-61995238D01*
X151033333Y-62090476D01*
X150938095Y-62138095D01*
X151842857Y-61852380D02*
X152509523Y-61852380D01*
X152080952Y-62852380D01*
%TO.C,U2*%
X124802380Y-63271904D02*
X125611904Y-63271904D01*
X125707142Y-63224285D01*
X125754761Y-63176666D01*
X125802380Y-63081428D01*
X125802380Y-62890952D01*
X125754761Y-62795714D01*
X125707142Y-62748095D01*
X125611904Y-62700476D01*
X124802380Y-62700476D01*
X124897619Y-62271904D02*
X124850000Y-62224285D01*
X124802380Y-62129047D01*
X124802380Y-61890952D01*
X124850000Y-61795714D01*
X124897619Y-61748095D01*
X124992857Y-61700476D01*
X125088095Y-61700476D01*
X125230952Y-61748095D01*
X125802380Y-62319523D01*
X125802380Y-61700476D01*
X102085714Y-62952380D02*
X102085714Y-61952380D01*
X102419047Y-62666666D01*
X102752380Y-61952380D01*
X102752380Y-62952380D01*
X103800000Y-62857142D02*
X103752380Y-62904761D01*
X103609523Y-62952380D01*
X103514285Y-62952380D01*
X103371428Y-62904761D01*
X103276190Y-62809523D01*
X103228571Y-62714285D01*
X103180952Y-62523809D01*
X103180952Y-62380952D01*
X103228571Y-62190476D01*
X103276190Y-62095238D01*
X103371428Y-62000000D01*
X103514285Y-61952380D01*
X103609523Y-61952380D01*
X103752380Y-62000000D01*
X103800000Y-62047619D01*
X104228571Y-62952380D02*
X104228571Y-61952380D01*
X104609523Y-61952380D01*
X104704761Y-62000000D01*
X104752380Y-62047619D01*
X104800000Y-62142857D01*
X104800000Y-62285714D01*
X104752380Y-62380952D01*
X104704761Y-62428571D01*
X104609523Y-62476190D01*
X104228571Y-62476190D01*
X105180952Y-62047619D02*
X105228571Y-62000000D01*
X105323809Y-61952380D01*
X105561904Y-61952380D01*
X105657142Y-62000000D01*
X105704761Y-62047619D01*
X105752380Y-62142857D01*
X105752380Y-62238095D01*
X105704761Y-62380952D01*
X105133333Y-62952380D01*
X105752380Y-62952380D01*
X106085714Y-61952380D02*
X106704761Y-61952380D01*
X106371428Y-62333333D01*
X106514285Y-62333333D01*
X106609523Y-62380952D01*
X106657142Y-62428571D01*
X106704761Y-62523809D01*
X106704761Y-62761904D01*
X106657142Y-62857142D01*
X106609523Y-62904761D01*
X106514285Y-62952380D01*
X106228571Y-62952380D01*
X106133333Y-62904761D01*
X106085714Y-62857142D01*
X107323809Y-61952380D02*
X107419047Y-61952380D01*
X107514285Y-62000000D01*
X107561904Y-62047619D01*
X107609523Y-62142857D01*
X107657142Y-62333333D01*
X107657142Y-62571428D01*
X107609523Y-62761904D01*
X107561904Y-62857142D01*
X107514285Y-62904761D01*
X107419047Y-62952380D01*
X107323809Y-62952380D01*
X107228571Y-62904761D01*
X107180952Y-62857142D01*
X107133333Y-62761904D01*
X107085714Y-62571428D01*
X107085714Y-62333333D01*
X107133333Y-62142857D01*
X107180952Y-62047619D01*
X107228571Y-62000000D01*
X107323809Y-61952380D01*
X108609523Y-62952380D02*
X108038095Y-62952380D01*
X108323809Y-62952380D02*
X108323809Y-61952380D01*
X108228571Y-62095238D01*
X108133333Y-62190476D01*
X108038095Y-62238095D01*
X108942857Y-61952380D02*
X109609523Y-61952380D01*
X109180952Y-62952380D01*
%TD*%
M02*
